%TF.GenerationSoftware,KiCad,Pcbnew,(6.0.0-0)*%
%TF.CreationDate,2022-09-04T12:08:38+02:00*%
%TF.ProjectId,RIAA_ADC,52494141-5f41-4444-932e-6b696361645f,rev?*%
%TF.SameCoordinates,Original*%
%TF.FileFunction,Soldermask,Top*%
%TF.FilePolarity,Negative*%
%FSLAX46Y46*%
G04 Gerber Fmt 4.6, Leading zero omitted, Abs format (unit mm)*
G04 Created by KiCad (PCBNEW (6.0.0-0)) date 2022-09-04 12:08:38*
%MOMM*%
%LPD*%
G01*
G04 APERTURE LIST*
G04 Aperture macros list*
%AMRoundRect*
0 Rectangle with rounded corners*
0 $1 Rounding radius*
0 $2 $3 $4 $5 $6 $7 $8 $9 X,Y pos of 4 corners*
0 Add a 4 corners polygon primitive as box body*
4,1,4,$2,$3,$4,$5,$6,$7,$8,$9,$2,$3,0*
0 Add four circle primitives for the rounded corners*
1,1,$1+$1,$2,$3*
1,1,$1+$1,$4,$5*
1,1,$1+$1,$6,$7*
1,1,$1+$1,$8,$9*
0 Add four rect primitives between the rounded corners*
20,1,$1+$1,$2,$3,$4,$5,0*
20,1,$1+$1,$4,$5,$6,$7,0*
20,1,$1+$1,$6,$7,$8,$9,0*
20,1,$1+$1,$8,$9,$2,$3,0*%
G04 Aperture macros list end*
%ADD10RoundRect,0.225000X0.250000X-0.225000X0.250000X0.225000X-0.250000X0.225000X-0.250000X-0.225000X0*%
%ADD11RoundRect,0.200000X0.275000X-0.200000X0.275000X0.200000X-0.275000X0.200000X-0.275000X-0.200000X0*%
%ADD12R,1.600000X1.600000*%
%ADD13C,1.600000*%
%ADD14C,3.000000*%
%ADD15RoundRect,0.250000X-0.925000X0.412500X-0.925000X-0.412500X0.925000X-0.412500X0.925000X0.412500X0*%
%ADD16C,1.000000*%
%ADD17RoundRect,0.250000X0.412500X0.925000X-0.412500X0.925000X-0.412500X-0.925000X0.412500X-0.925000X0*%
%ADD18RoundRect,0.250000X-0.412500X-1.100000X0.412500X-1.100000X0.412500X1.100000X-0.412500X1.100000X0*%
%ADD19R,1.500000X1.500000*%
%ADD20C,1.500000*%
%ADD21RoundRect,0.200000X-0.275000X0.200000X-0.275000X-0.200000X0.275000X-0.200000X0.275000X0.200000X0*%
%ADD22R,2.000000X1.500000*%
%ADD23R,2.000000X3.800000*%
%ADD24RoundRect,0.225000X-0.250000X0.225000X-0.250000X-0.225000X0.250000X-0.225000X0.250000X0.225000X0*%
%ADD25RoundRect,0.250000X-0.375000X-1.075000X0.375000X-1.075000X0.375000X1.075000X-0.375000X1.075000X0*%
%ADD26R,1.460500X0.558800*%
%ADD27R,1.800000X2.100000*%
%ADD28RoundRect,0.225000X-0.225000X-0.250000X0.225000X-0.250000X0.225000X0.250000X-0.225000X0.250000X0*%
%ADD29RoundRect,0.200000X-0.200000X-0.275000X0.200000X-0.275000X0.200000X0.275000X-0.200000X0.275000X0*%
%ADD30RoundRect,0.225000X0.225000X0.250000X-0.225000X0.250000X-0.225000X-0.250000X0.225000X-0.250000X0*%
%ADD31R,1.498600X1.905000*%
%ADD32R,1.600200X0.838200*%
%ADD33R,1.600200X2.997200*%
%ADD34RoundRect,0.250000X0.925000X-0.412500X0.925000X0.412500X-0.925000X0.412500X-0.925000X-0.412500X0*%
%ADD35RoundRect,0.075000X0.662500X0.075000X-0.662500X0.075000X-0.662500X-0.075000X0.662500X-0.075000X0*%
%ADD36RoundRect,0.075000X0.075000X0.662500X-0.075000X0.662500X-0.075000X-0.662500X0.075000X-0.662500X0*%
%ADD37R,2.100000X2.100000*%
%ADD38C,2.100000*%
%ADD39RoundRect,0.150000X0.512500X0.150000X-0.512500X0.150000X-0.512500X-0.150000X0.512500X-0.150000X0*%
%ADD40RoundRect,0.250000X-0.412500X-0.925000X0.412500X-0.925000X0.412500X0.925000X-0.412500X0.925000X0*%
%ADD41RoundRect,0.020500X0.764500X0.184500X-0.764500X0.184500X-0.764500X-0.184500X0.764500X-0.184500X0*%
%ADD42RoundRect,0.150000X-0.150000X0.512500X-0.150000X-0.512500X0.150000X-0.512500X0.150000X0.512500X0*%
%ADD43R,2.100000X1.800000*%
%ADD44RoundRect,0.250000X1.075000X-0.375000X1.075000X0.375000X-1.075000X0.375000X-1.075000X-0.375000X0*%
%ADD45R,1.651000X0.431800*%
%ADD46R,1.358000X1.358000*%
%ADD47C,1.358000*%
%ADD48C,0.650000*%
%ADD49R,0.300000X1.150000*%
%ADD50O,1.000000X1.600000*%
%ADD51O,1.000000X2.100000*%
%ADD52R,2.400000X0.740000*%
%ADD53RoundRect,0.250000X-1.075000X0.375000X-1.075000X-0.375000X1.075000X-0.375000X1.075000X0.375000X0*%
%ADD54R,1.000000X1.000000*%
%ADD55R,1.000000X3.800000*%
%ADD56R,3.800000X1.000000*%
%ADD57R,1.000000X2.700000*%
%ADD58R,2.350000X1.000000*%
%ADD59RoundRect,0.200000X0.200000X0.275000X-0.200000X0.275000X-0.200000X-0.275000X0.200000X-0.275000X0*%
%ADD60R,1.752600X4.495800*%
%ADD61R,3.000000X3.000000*%
%ADD62R,0.838200X1.600200*%
%ADD63R,2.997200X1.600200*%
%ADD64RoundRect,0.100000X0.100000X-0.637500X0.100000X0.637500X-0.100000X0.637500X-0.100000X-0.637500X0*%
%ADD65RoundRect,0.100000X-0.712500X-0.100000X0.712500X-0.100000X0.712500X0.100000X-0.712500X0.100000X0*%
G04 APERTURE END LIST*
D10*
%TO.C,C74*%
X204002651Y-73950000D03*
X204002651Y-72400000D03*
%TD*%
%TO.C,C31*%
X169002651Y-67350000D03*
X169002651Y-65800000D03*
%TD*%
D11*
%TO.C,R20*%
X211802651Y-66000000D03*
X211802651Y-64350000D03*
%TD*%
%TO.C,R4*%
X163602651Y-50600000D03*
X163602651Y-48950000D03*
%TD*%
D12*
%TO.C,C22*%
X192800000Y-65775000D03*
D13*
X197800000Y-65775000D03*
%TD*%
D14*
%TO.C,H1*%
X142000000Y-45000000D03*
%TD*%
D15*
%TO.C,C48*%
X216200000Y-72500000D03*
X216200000Y-75575000D03*
%TD*%
D16*
%TO.C,FID4*%
X235600000Y-118000000D03*
%TD*%
D17*
%TO.C,C8*%
X172740151Y-89175000D03*
X169665151Y-89175000D03*
%TD*%
D18*
%TO.C,C15*%
X169640151Y-46175000D03*
X172765151Y-46175000D03*
%TD*%
D10*
%TO.C,C19*%
X173802651Y-53550000D03*
X173802651Y-52000000D03*
%TD*%
D19*
%TO.C,U4*%
X165375151Y-104057500D03*
D20*
X165375151Y-102057500D03*
X165375151Y-98057500D03*
X170455151Y-104057500D03*
X170455151Y-102057500D03*
X170455151Y-100057500D03*
%TD*%
D12*
%TO.C,C23*%
X192800000Y-47975000D03*
D13*
X197800000Y-47975000D03*
%TD*%
D21*
%TO.C,R17*%
X173402651Y-65750000D03*
X173402651Y-67400000D03*
%TD*%
D22*
%TO.C,U11*%
X200090151Y-85075000D03*
X200090151Y-82775000D03*
X200090151Y-80475000D03*
D23*
X193790151Y-82775000D03*
%TD*%
D24*
%TO.C,C57*%
X216002651Y-51200000D03*
X216002651Y-52750000D03*
%TD*%
%TO.C,C43*%
X207300000Y-85825000D03*
X207300000Y-87375000D03*
%TD*%
D25*
%TO.C,L5*%
X217800000Y-47000000D03*
X220600000Y-47000000D03*
%TD*%
D26*
%TO.C,U1*%
X165878501Y-82470000D03*
X165878501Y-83740000D03*
X165878501Y-85010000D03*
X165878501Y-86280000D03*
X171326801Y-86280000D03*
X171326801Y-85010000D03*
X171326801Y-83740000D03*
X171326801Y-82470000D03*
%TD*%
D18*
%TO.C,C13*%
X163840151Y-46175000D03*
X166965151Y-46175000D03*
%TD*%
D15*
%TO.C,C37*%
X177402651Y-102637500D03*
X177402651Y-105712500D03*
%TD*%
D10*
%TO.C,C18*%
X173802651Y-83350000D03*
X173802651Y-81800000D03*
%TD*%
D11*
%TO.C,R26*%
X220402651Y-57800000D03*
X220402651Y-56150000D03*
%TD*%
D24*
%TO.C,C3*%
X162802651Y-55200000D03*
X162802651Y-56750000D03*
%TD*%
D27*
%TO.C,Y2*%
X221850000Y-73550000D03*
X221850000Y-76450000D03*
X224150000Y-76450000D03*
X224150000Y-73550000D03*
%TD*%
D17*
%TO.C,C66*%
X200540151Y-91175000D03*
X197465151Y-91175000D03*
%TD*%
%TO.C,C9*%
X172540151Y-59375000D03*
X169465151Y-59375000D03*
%TD*%
D28*
%TO.C,C72*%
X228427651Y-50375000D03*
X229977651Y-50375000D03*
%TD*%
D18*
%TO.C,C54*%
X207840151Y-60175000D03*
X210965151Y-60175000D03*
%TD*%
D29*
%TO.C,R8*%
X169777651Y-79775000D03*
X171427651Y-79775000D03*
%TD*%
D30*
%TO.C,C11*%
X166977651Y-58575000D03*
X165427651Y-58575000D03*
%TD*%
D31*
%TO.C,L4*%
X167852651Y-109775000D03*
X171752651Y-109775000D03*
%TD*%
D32*
%TO.C,U8*%
X209577400Y-80639400D03*
X209577400Y-82138000D03*
X209577400Y-83662000D03*
X209577400Y-85160600D03*
D33*
X215622600Y-82900000D03*
%TD*%
D34*
%TO.C,C17*%
X177202651Y-53312500D03*
X177202651Y-50237500D03*
%TD*%
D21*
%TO.C,R1*%
X160402651Y-84950000D03*
X160402651Y-86600000D03*
%TD*%
D30*
%TO.C,C56*%
X206377651Y-63375000D03*
X204827651Y-63375000D03*
%TD*%
D35*
%TO.C,U3*%
X216562500Y-103950000D03*
X216562500Y-103450000D03*
X216562500Y-102950000D03*
X216562500Y-102450000D03*
X216562500Y-101950000D03*
X216562500Y-101450000D03*
X216562500Y-100950000D03*
X216562500Y-100450000D03*
X216562500Y-99950000D03*
X216562500Y-99450000D03*
X216562500Y-98950000D03*
X216562500Y-98450000D03*
D36*
X215150000Y-97037500D03*
X214650000Y-97037500D03*
X214150000Y-97037500D03*
X213650000Y-97037500D03*
X213150000Y-97037500D03*
X212650000Y-97037500D03*
X212150000Y-97037500D03*
X211650000Y-97037500D03*
X211150000Y-97037500D03*
X210650000Y-97037500D03*
X210150000Y-97037500D03*
X209650000Y-97037500D03*
D35*
X208237500Y-98450000D03*
X208237500Y-98950000D03*
X208237500Y-99450000D03*
X208237500Y-99950000D03*
X208237500Y-100450000D03*
X208237500Y-100950000D03*
X208237500Y-101450000D03*
X208237500Y-101950000D03*
X208237500Y-102450000D03*
X208237500Y-102950000D03*
X208237500Y-103450000D03*
X208237500Y-103950000D03*
D36*
X209650000Y-105362500D03*
X210150000Y-105362500D03*
X210650000Y-105362500D03*
X211150000Y-105362500D03*
X211650000Y-105362500D03*
X212150000Y-105362500D03*
X212650000Y-105362500D03*
X213150000Y-105362500D03*
X213650000Y-105362500D03*
X214150000Y-105362500D03*
X214650000Y-105362500D03*
X215150000Y-105362500D03*
%TD*%
D24*
%TO.C,C64*%
X225802651Y-56200000D03*
X225802651Y-57750000D03*
%TD*%
D30*
%TO.C,C73*%
X199315151Y-77375000D03*
X197765151Y-77375000D03*
%TD*%
D28*
%TO.C,C7*%
X229025000Y-100600000D03*
X230575000Y-100600000D03*
%TD*%
D34*
%TO.C,C16*%
X177202651Y-83112500D03*
X177202651Y-80037500D03*
%TD*%
D28*
%TO.C,C35*%
X164027651Y-70575000D03*
X165577651Y-70575000D03*
%TD*%
D29*
%TO.C,R27*%
X205977651Y-77975000D03*
X207627651Y-77975000D03*
%TD*%
D11*
%TO.C,R24*%
X218402651Y-57800000D03*
X218402651Y-56150000D03*
%TD*%
D24*
%TO.C,C42*%
X187802651Y-102400000D03*
X187802651Y-103950000D03*
%TD*%
D15*
%TO.C,C59*%
X188402651Y-108637500D03*
X188402651Y-111712500D03*
%TD*%
D37*
%TO.C,J1*%
X141000000Y-71230000D03*
D38*
X141000000Y-73770000D03*
%TD*%
D39*
%TO.C,U5*%
X166740151Y-68725000D03*
X166740151Y-67775000D03*
X166740151Y-66825000D03*
X164465151Y-66825000D03*
X164465151Y-68725000D03*
%TD*%
D24*
%TO.C,C49*%
X201202651Y-54600000D03*
X201202651Y-56150000D03*
%TD*%
D37*
%TO.C,J3*%
X210400000Y-43800000D03*
D38*
X207860000Y-43800000D03*
X205320000Y-43800000D03*
X202780000Y-43800000D03*
%TD*%
D11*
%TO.C,R18*%
X171402651Y-67400000D03*
X171402651Y-65750000D03*
%TD*%
D40*
%TO.C,C63*%
X228465151Y-55375000D03*
X231540151Y-55375000D03*
%TD*%
D24*
%TO.C,C62*%
X191402651Y-109400000D03*
X191402651Y-110950000D03*
%TD*%
D41*
%TO.C,U12*%
X225672651Y-53725000D03*
X225672651Y-53075000D03*
X225672651Y-52425000D03*
X225672651Y-51775000D03*
X225672651Y-51125000D03*
X225672651Y-50475000D03*
X225672651Y-49825000D03*
X219932651Y-49825000D03*
X219932651Y-50475000D03*
X219932651Y-51125000D03*
X219932651Y-51775000D03*
X219932651Y-52425000D03*
X219932651Y-53075000D03*
X219932651Y-53725000D03*
%TD*%
D42*
%TO.C,U7*%
X226950000Y-106462500D03*
X226000000Y-106462500D03*
X225050000Y-106462500D03*
X225050000Y-108737500D03*
X226000000Y-108737500D03*
X226950000Y-108737500D03*
%TD*%
D17*
%TO.C,C28*%
X207537500Y-109200000D03*
X204462500Y-109200000D03*
%TD*%
D29*
%TO.C,R11*%
X173777651Y-56175000D03*
X175427651Y-56175000D03*
%TD*%
D28*
%TO.C,C36*%
X171627651Y-69375000D03*
X173177651Y-69375000D03*
%TD*%
D43*
%TO.C,Y1*%
X220350000Y-102350000D03*
X223250000Y-102350000D03*
X223250000Y-100050000D03*
X220350000Y-100050000D03*
%TD*%
D17*
%TO.C,C51*%
X171540151Y-114775000D03*
X168465151Y-114775000D03*
%TD*%
D30*
%TO.C,C32*%
X211075000Y-78000000D03*
X209525000Y-78000000D03*
%TD*%
D26*
%TO.C,U2*%
X165678501Y-52670000D03*
X165678501Y-53940000D03*
X165678501Y-55210000D03*
X165678501Y-56480000D03*
X171126801Y-56480000D03*
X171126801Y-55210000D03*
X171126801Y-53940000D03*
X171126801Y-52670000D03*
%TD*%
D37*
%TO.C,J2*%
X140800000Y-61930000D03*
D38*
X140800000Y-64470000D03*
%TD*%
D44*
%TO.C,L2*%
X184802651Y-105375000D03*
X184802651Y-102575000D03*
%TD*%
D29*
%TO.C,R10*%
X173777651Y-85975000D03*
X175427651Y-85975000D03*
%TD*%
%TO.C,R13*%
X192577651Y-54375000D03*
X194227651Y-54375000D03*
%TD*%
D45*
%TO.C,U10*%
X218970451Y-64450000D03*
X218970451Y-65100001D03*
X218970451Y-65749999D03*
X218970451Y-66400001D03*
X218970451Y-67049999D03*
X218970451Y-67699998D03*
X218970451Y-68349999D03*
X218970451Y-68999998D03*
X218970451Y-69649999D03*
X218970451Y-70299998D03*
X226234851Y-70300000D03*
X226234851Y-69650002D03*
X226234851Y-69000001D03*
X226234851Y-68350002D03*
X226234851Y-67700001D03*
X226234851Y-67050002D03*
X226234851Y-66400001D03*
X226234851Y-65750002D03*
X226234851Y-65100001D03*
X226234851Y-64450002D03*
%TD*%
D11*
%TO.C,R25*%
X222402651Y-57800000D03*
X222402651Y-56150000D03*
%TD*%
D30*
%TO.C,C34*%
X166377651Y-64775000D03*
X164827651Y-64775000D03*
%TD*%
D24*
%TO.C,C50*%
X216202651Y-68400000D03*
X216202651Y-69950000D03*
%TD*%
D21*
%TO.C,R16*%
X162202651Y-66950000D03*
X162202651Y-68600000D03*
%TD*%
D46*
%TO.C,PS1*%
X177262651Y-110762500D03*
D47*
X179802651Y-110762500D03*
X182342651Y-110762500D03*
%TD*%
D11*
%TO.C,R22*%
X213802651Y-52800000D03*
X213802651Y-51150000D03*
%TD*%
%TO.C,R15*%
X160202651Y-68600000D03*
X160202651Y-66950000D03*
%TD*%
D48*
%TO.C,J5*%
X219710000Y-112995000D03*
X225490000Y-112995000D03*
D49*
X219250000Y-111930000D03*
X220050000Y-111930000D03*
X221350000Y-111930000D03*
X222350000Y-111930000D03*
X222850000Y-111930000D03*
X223850000Y-111930000D03*
X225150000Y-111930000D03*
X225950000Y-111930000D03*
X225650000Y-111930000D03*
X224850000Y-111930000D03*
X224350000Y-111930000D03*
X223350000Y-111930000D03*
X221850000Y-111930000D03*
X220850000Y-111930000D03*
X220350000Y-111930000D03*
X219550000Y-111930000D03*
D50*
X226920000Y-116675000D03*
D51*
X226920000Y-112495000D03*
X218280000Y-112495000D03*
D50*
X218280000Y-116675000D03*
%TD*%
D11*
%TO.C,R3*%
X163802651Y-80400000D03*
X163802651Y-78750000D03*
%TD*%
D34*
%TO.C,C75*%
X201002651Y-73912500D03*
X201002651Y-70837500D03*
%TD*%
D52*
%TO.C,J4*%
X229850000Y-93160000D03*
X233750000Y-93160000D03*
X229850000Y-94430000D03*
X233750000Y-94430000D03*
X229850000Y-95700000D03*
X233750000Y-95700000D03*
X229850000Y-96970000D03*
X233750000Y-96970000D03*
X229850000Y-98240000D03*
X233750000Y-98240000D03*
%TD*%
D53*
%TO.C,L3*%
X184802651Y-97175000D03*
X184802651Y-99975000D03*
%TD*%
D30*
%TO.C,C4*%
X221775000Y-97100000D03*
X220225000Y-97100000D03*
%TD*%
%TO.C,C20*%
X211400000Y-94800000D03*
X209850000Y-94800000D03*
%TD*%
%TO.C,C68*%
X200715151Y-87975000D03*
X199165151Y-87975000D03*
%TD*%
%TO.C,C52*%
X172577651Y-117975000D03*
X171027651Y-117975000D03*
%TD*%
D34*
%TO.C,C27*%
X158202651Y-99712500D03*
X158202651Y-96637500D03*
%TD*%
D11*
%TO.C,R21*%
X216202651Y-66000000D03*
X216202651Y-64350000D03*
%TD*%
D28*
%TO.C,C26*%
X206025000Y-105600000D03*
X207575000Y-105600000D03*
%TD*%
D18*
%TO.C,C12*%
X164040151Y-75575000D03*
X167165151Y-75575000D03*
%TD*%
D12*
%TO.C,C5*%
X147300000Y-83000000D03*
D13*
X142300000Y-83000000D03*
%TD*%
D18*
%TO.C,C55*%
X207840151Y-55975000D03*
X210965151Y-55975000D03*
%TD*%
D37*
%TO.C,J7*%
X233200000Y-85000000D03*
D38*
X233200000Y-82460000D03*
X233200000Y-79920000D03*
%TD*%
D16*
%TO.C,FID3*%
X138400000Y-41400000D03*
%TD*%
D34*
%TO.C,C25*%
X152602651Y-99712500D03*
X152602651Y-96637500D03*
%TD*%
D40*
%TO.C,C53*%
X203065151Y-66175000D03*
X206140151Y-66175000D03*
%TD*%
D12*
%TO.C,C6*%
X147500000Y-52800000D03*
D13*
X142500000Y-52800000D03*
%TD*%
D12*
%TO.C,C45*%
X155802651Y-112375000D03*
D13*
X155802651Y-117375000D03*
%TD*%
D54*
%TO.C,SHIELD1*%
X150750000Y-93000000D03*
D55*
X150750000Y-73700000D03*
D56*
X157700000Y-93000000D03*
X175700000Y-93000000D03*
D54*
X188650000Y-93000000D03*
D57*
X188650000Y-44250000D03*
D55*
X150750000Y-61700000D03*
D56*
X157700000Y-42400000D03*
D54*
X188650000Y-42400000D03*
D58*
X152425000Y-42400000D03*
D57*
X188650000Y-91150000D03*
D56*
X163700000Y-42400000D03*
D55*
X188650000Y-67700000D03*
X150750000Y-55700000D03*
D56*
X175700000Y-42400000D03*
D55*
X150750000Y-67700000D03*
D57*
X150750000Y-44250000D03*
D58*
X152425000Y-93000000D03*
X186975000Y-42400000D03*
D55*
X188650000Y-79700000D03*
X188650000Y-49700000D03*
X150750000Y-79700000D03*
D58*
X186975000Y-93000000D03*
D55*
X150750000Y-85700000D03*
X188650000Y-61700000D03*
X188650000Y-73700000D03*
D56*
X181700000Y-93000000D03*
X169700000Y-93000000D03*
X169700000Y-42400000D03*
X163700000Y-93000000D03*
X181700000Y-42400000D03*
D54*
X150750000Y-42400000D03*
D57*
X150750000Y-91150000D03*
D55*
X188650000Y-85700000D03*
X150750000Y-49700000D03*
X188650000Y-55700000D03*
%TD*%
D59*
%TO.C,R14*%
X215025000Y-78000000D03*
X213375000Y-78000000D03*
%TD*%
D11*
%TO.C,R19*%
X214002651Y-66000000D03*
X214002651Y-64350000D03*
%TD*%
D24*
%TO.C,C2*%
X163002651Y-85000000D03*
X163002651Y-86550000D03*
%TD*%
D29*
%TO.C,R6*%
X166177651Y-79775000D03*
X167827651Y-79775000D03*
%TD*%
D60*
%TO.C,L1*%
X155577650Y-104175000D03*
X158827652Y-104175000D03*
%TD*%
D15*
%TO.C,C47*%
X198202651Y-54637500D03*
X198202651Y-57712500D03*
%TD*%
D10*
%TO.C,C60*%
X219002651Y-74350000D03*
X219002651Y-72800000D03*
%TD*%
D18*
%TO.C,C14*%
X169840151Y-75575000D03*
X172965151Y-75575000D03*
%TD*%
D15*
%TO.C,C46*%
X164602651Y-111837500D03*
X164602651Y-114912500D03*
%TD*%
D10*
%TO.C,C58*%
X216002651Y-56175000D03*
X216002651Y-54625000D03*
%TD*%
D40*
%TO.C,C61*%
X228465151Y-59575000D03*
X231540151Y-59575000D03*
%TD*%
D30*
%TO.C,C1*%
X221575000Y-105200000D03*
X220025000Y-105200000D03*
%TD*%
D29*
%TO.C,R9*%
X169577651Y-49975000D03*
X171227651Y-49975000D03*
%TD*%
D30*
%TO.C,C24*%
X216775000Y-107400000D03*
X215225000Y-107400000D03*
%TD*%
D28*
%TO.C,C71*%
X230027651Y-66575000D03*
X231577651Y-66575000D03*
%TD*%
D29*
%TO.C,R12*%
X192577651Y-58175000D03*
X194227651Y-58175000D03*
%TD*%
D14*
%TO.C,H3*%
X232000000Y-115000000D03*
%TD*%
D30*
%TO.C,C29*%
X165377651Y-107175000D03*
X163827651Y-107175000D03*
%TD*%
D28*
%TO.C,C21*%
X216825000Y-96200000D03*
X218375000Y-96200000D03*
%TD*%
D61*
%TO.C,J6*%
X141300000Y-103740000D03*
D14*
X141300000Y-98660000D03*
%TD*%
D10*
%TO.C,C65*%
X227002651Y-74350000D03*
X227002651Y-72800000D03*
%TD*%
D62*
%TO.C,U13*%
X206142051Y-75397600D03*
X207640651Y-75397600D03*
X209164651Y-75397600D03*
X210663251Y-75397600D03*
D63*
X208402651Y-69352400D03*
%TD*%
D28*
%TO.C,C38*%
X175427651Y-64575000D03*
X176977651Y-64575000D03*
%TD*%
%TO.C,C67*%
X228427651Y-52375000D03*
X229977651Y-52375000D03*
%TD*%
D64*
%TO.C,U9*%
X203427651Y-60500000D03*
X204077651Y-60500000D03*
X204727651Y-60500000D03*
X205377651Y-60500000D03*
X205377651Y-54775000D03*
X204727651Y-54775000D03*
X204077651Y-54775000D03*
X203427651Y-54775000D03*
%TD*%
D10*
%TO.C,C44*%
X187802651Y-100150000D03*
X187802651Y-98600000D03*
%TD*%
D21*
%TO.C,R2*%
X160202651Y-55150000D03*
X160202651Y-56800000D03*
%TD*%
D10*
%TO.C,C40*%
X181802651Y-103950000D03*
X181802651Y-102400000D03*
%TD*%
D24*
%TO.C,C41*%
X181802651Y-98600000D03*
X181802651Y-100150000D03*
%TD*%
D30*
%TO.C,C10*%
X167177651Y-88375000D03*
X165627651Y-88375000D03*
%TD*%
D14*
%TO.C,H2*%
X232000000Y-45000000D03*
%TD*%
D65*
%TO.C,U6*%
X175690151Y-66600000D03*
X175690151Y-67250000D03*
X175690151Y-67900000D03*
X175690151Y-68550000D03*
X179915151Y-68550000D03*
X179915151Y-67900000D03*
X179915151Y-67250000D03*
X179915151Y-66600000D03*
%TD*%
D29*
%TO.C,R7*%
X165977651Y-49975000D03*
X167627651Y-49975000D03*
%TD*%
D59*
%TO.C,R5*%
X234525000Y-100600000D03*
X232875000Y-100600000D03*
%TD*%
D24*
%TO.C,C30*%
X182402651Y-67000000D03*
X182402651Y-68550000D03*
%TD*%
D16*
%TO.C,FID1*%
X235400000Y-41600000D03*
%TD*%
D14*
%TO.C,H4*%
X142000000Y-115000000D03*
%TD*%
D34*
%TO.C,C33*%
X206400000Y-83537500D03*
X206400000Y-80462500D03*
%TD*%
D17*
%TO.C,C70*%
X227000000Y-46975000D03*
X223925000Y-46975000D03*
%TD*%
D24*
%TO.C,C76*%
X212802651Y-72200000D03*
X212802651Y-73750000D03*
%TD*%
D16*
%TO.C,FID2*%
X138800000Y-118600000D03*
%TD*%
D11*
%TO.C,R23*%
X213802651Y-56200000D03*
X213802651Y-54550000D03*
%TD*%
D15*
%TO.C,C39*%
X177402651Y-96837500D03*
X177402651Y-99912500D03*
%TD*%
D40*
%TO.C,C69*%
X230065151Y-63775000D03*
X233140151Y-63775000D03*
%TD*%
M02*
