M48
; DRILL file {KiCad (6.0.0-0)} date 2022 September 04, Sunday 12:08:35
; FORMAT={-:-/ absolute / inch / decimal}
; #@! TF.CreationDate,2022-09-04T12:08:35+02:00
; #@! TF.GenerationSoftware,Kicad,Pcbnew,(6.0.0-0)
; #@! TF.FileFunction,Plated,1,4,PTH
FMAT,2
INCH
; #@! TA.AperFunction,Plated,PTH,ViaDrill
T1C0.0157
; #@! TA.AperFunction,Plated,PTH,ComponentDrill
T2C0.0236
; #@! TA.AperFunction,Plated,PTH,ComponentDrill
T3C0.0276
; #@! TA.AperFunction,Plated,PTH,ComponentDrill
T4C0.0315
; #@! TA.AperFunction,Plated,PTH,ComponentDrill
T5C0.0335
; #@! TA.AperFunction,Plated,PTH,ComponentDrill
T6C0.0433
; #@! TA.AperFunction,Plated,PTH,ComponentDrill
T7C0.0598
%
G90
G05
T1
X5.9332Y-2.6683
X5.9332Y-2.7676
X5.9332Y-2.8857
X5.935Y-1.7815
X5.935Y-1.8602
X5.935Y-1.9567
X5.935Y-2.2146
X5.935Y-2.3327
X5.935Y-2.4291
X5.935Y-3.1378
X5.935Y-3.1988
X5.935Y-3.3563
X5.935Y-3.435
X5.935Y-3.5138
X5.935Y-3.5925
X5.937Y-1.6772
X5.9449Y-3.6614
X6.001Y-1.6693
X6.0079Y-3.7323
X6.063Y-3.6614
X6.0866Y-1.6693
X6.1654Y-1.6693
X6.1811Y-3.6614
X6.2283Y-3.7323
X6.2441Y-1.6693
X6.2678Y-2.6998
X6.3072Y-2.2825
X6.3151Y-3.4636
X6.3228Y-1.6693
X6.3386Y-3.6614
X6.3937Y-2.7323
X6.4016Y-1.6693
X6.4017Y-4.2195
X6.4096Y-2.2825
X6.4173Y-2.7795
X6.4173Y-3.6614
X6.4174Y-3.4636
X6.4409Y-2.7008
X6.4488Y-3.2205
X6.4803Y-1.6693
X6.4803Y-4.5827
X6.5118Y-2.5039
X6.5119Y-2.3533
X6.5198Y-2.8258
X6.5198Y-3.5344
X6.5354Y-3.6614
X6.5512Y-2.4646
X6.5591Y-1.6693
X6.5748Y-2.2283
X6.5748Y-2.3465
X6.5748Y-2.748
X6.5827Y-3.3937
X6.5827Y-3.5197
X6.5955Y-2.6683
X6.6063Y-2.4409
X6.6142Y-3.6614
X6.6378Y-1.6693
X6.6378Y-4.6063
X6.6388Y-2.6664
X6.6458Y-2.5423
X6.6693Y-2.2598
X6.6772Y-3.4331
X6.685Y-2.4409
X6.685Y-4.6693
X6.7165Y-1.6693
X6.7323Y-3.6614
X6.7481Y-2.5423
X6.7795Y-2.7874
X6.7874Y-2.1181
X6.7898Y-3.2969
X6.7953Y-1.6693
X6.8346Y-2.5591
X6.8426Y-1.999
X6.8426Y-2.3376
X6.8504Y-3.6614
X6.8505Y-3.1644
X6.8584Y-2.5266
X6.8661Y-2.6142
X6.874Y-1.6693
X6.882Y-2.1093
X6.882Y-3.5187
X6.8899Y-3.251
X6.8899Y-3.2904
X6.9291Y-3.6614
X6.9528Y-1.6693
X6.9529Y-2.1093
X6.9765Y-1.9203
X6.9765Y-2.6998
X6.9765Y-3.0856
X6.9844Y-3.9833
X6.9922Y-2.1093
X7.0079Y-3.6614
X7.0159Y-2.5423
X7.0252Y-2.6354
X7.0281Y-2.6963
X7.0315Y-1.6693
X7.1102Y-1.6693
X7.1339Y-2.622
X7.1339Y-2.6969
X7.1576Y-3.9833
X7.189Y-1.6693
X7.2362Y-2.6929
X7.2441Y-3.6614
X7.2677Y-1.6693
X7.2757Y-3.936
X7.2757Y-4.0384
X7.3308Y-2.0226
X7.3387Y-3.936
X7.3465Y-1.6693
X7.3466Y-4.0384
X7.3544Y-2.7009
X7.3937Y-4.1417
X7.3938Y-3.936
X7.4096Y-4.0384
X7.4173Y-4.4567
X7.4272Y-1.6693
X7.4272Y-1.7461
X7.4272Y-1.8248
X7.4272Y-2.0217
X7.4272Y-2.1004
X7.4272Y-2.1791
X7.4272Y-2.2579
X7.4272Y-2.4154
X7.4272Y-2.4941
X7.4272Y-2.7303
X7.4272Y-2.8091
X7.4272Y-2.8878
X7.4272Y-2.9665
X7.4272Y-3.0453
X7.4272Y-3.124
X7.4272Y-3.2028
X7.4272Y-3.2815
X7.4272Y-3.3602
X7.4272Y-3.4783
X7.4272Y-3.5965
X7.4488Y-3.8819
X7.5354Y-4.4252
X7.6103Y-3.1998
X7.6103Y-3.2392
X7.6103Y-3.2785
X7.6103Y-3.3179
X7.6458Y-2.188
X7.6458Y-2.2431
X7.6497Y-3.1998
X7.6497Y-3.2392
X7.6497Y-3.2785
X7.6497Y-3.3179
X7.7166Y-3.5896
X7.7265Y-3.0482
X7.7718Y-3.4636
X7.8033Y-2.1511
X7.8033Y-3.2589
X7.8111Y-2.3297
X7.8504Y-2.9124
X7.8652Y-2.9665
X7.882Y-2.1486
X7.8878Y-3.1191
X7.8898Y-3.0394
X7.9135Y-2.7392
X7.9173Y-3.0669
X7.9214Y-2.1496
X7.9214Y-2.251
X7.9439Y-3.0098
X7.945Y-2.6053
X7.9508Y-3.186
X7.9518Y-2.9606
X7.9646Y-3.0709
X7.9843Y-2.1575
X7.9843Y-4.2992
X7.9863Y-2.9094
X8.008Y-2.503
X8.0159Y-2.251
X8.0316Y-2.8022
X8.0394Y-2.9626
X8.0394Y-3.1614
X8.0709Y-2.9094
X8.0945Y-2.4331
X8.0984Y-3.4449
X8.1102Y-4.2087
X8.1103Y-2.9094
X8.1181Y-2.5748
X8.1181Y-2.6299
X8.1181Y-4.0472
X8.126Y-2.4724
X8.1546Y-2.9094
X8.1655Y-2.7156
X8.1655Y-2.7549
X8.1732Y-4.2087
X8.1875Y-3.3529
X8.1978Y-3.8268
X8.2027Y-3.308
X8.2048Y-2.7156
X8.2048Y-2.7549
X8.2283Y-2.5945
X8.2308Y-3.2338
X8.2441Y-3.1142
X8.2442Y-2.7156
X8.2442Y-2.7549
X8.252Y-3.3976
X8.2559Y-4.0709
X8.2785Y-3.9252
X8.2825Y-4.0138
X8.2835Y-3.874
X8.2904Y-3.6811
X8.3071Y-3.4734
X8.3396Y-4.2205
X8.3504Y-2.9803
X8.3583Y-3.0709
X8.3661Y-4.0482
X8.3701Y-3.7323
X8.3781Y-2.9439
X8.4134Y-3.9833
X8.4173Y-2.9803
X8.4174Y-2.8415
X8.4213Y-4.0866
X8.4488Y-3.937
X8.466Y-3.3991
X8.4724Y-3.2244
X8.4724Y-3.2638
X8.4724Y-3.3031
X8.504Y-1.9675
X8.504Y-2.2589
X8.5079Y-3.2244
X8.5079Y-3.2638
X8.5079Y-3.3031
X8.5277Y-2.7943
X8.5295Y-4.1722
X8.5315Y-3.7323
X8.5395Y-2.4754
X8.558Y-2.6092
X8.5748Y-1.8287
X8.5768Y-1.8681
X8.5828Y-1.9911
X8.5866Y-4.2283
X8.5909Y-2.0538
X8.5974Y-3.8593
X8.5985Y-2.1644
X8.5985Y-2.3219
X8.6122Y-4.3602
X8.6222Y-2.9754
X8.6732Y-4.3622
X8.6772Y-3.9213
X8.6773Y-2.3297
X8.6811Y-3.2844
X8.6851Y-2.7156
X8.689Y-2.6614
X8.7047Y-2.5866
X8.7166Y-1.9675
X8.7205Y-2.5354
X8.7244Y-4.189
X8.7323Y-3.7756
X8.7402Y-1.8504
X8.7481Y-2.3297
X8.7687Y-4.4783
X8.7953Y-1.748
X8.8031Y-3.1024
X8.8041Y-4.1516
X8.8268Y-2.8819
X8.8269Y-2.0157
X8.8269Y-2.6998
X8.8426Y-2.5344
X8.8426Y-2.747
X8.8642Y-4.3406
X8.874Y-4.0315
X8.8899Y-2.3219
X8.8927Y-3.9665
X8.8996Y-4.1348
X8.9213Y-4.3612
X8.9291Y-4.0709
X8.945Y-2.1014
X8.9666Y-2.064
X8.9685Y-3.6693
X8.9685Y-3.9606
X8.9764Y-3.748
X8.9764Y-3.878
X8.9765Y-2.9281
X8.9793Y-4.2904
X8.9932Y-1.8847
X8.9932Y-1.9241
X8.9932Y-1.9595
X9.0001Y-2.5974
X9.1025Y-1.9833
X9.1103Y-2.062
X9.1576Y-2.6211
X9.1733Y-2.1801
X9.1733Y-2.3455
X9.2008Y-3.6102
X9.2362Y-4.0039
X9.2363Y-2.5108
X9.2707Y-3.7195
T3
X6.5108Y-3.8605
X6.5108Y-4.018
X6.5108Y-4.0968
X6.7108Y-3.9393
X6.7108Y-4.018
X6.7108Y-4.0968
T4
X5.6024Y-3.2677
X5.6102Y-2.0787
X5.7992Y-3.2677
X5.8071Y-2.0787
X6.134Y-4.4242
X6.134Y-4.6211
X7.5906Y-1.8888
X7.5906Y-2.5896
X7.7874Y-1.8888
X7.7874Y-2.5896
T5
X6.9788Y-4.3607
X7.0788Y-4.3607
X7.1788Y-4.3607
T6
X5.5433Y-2.4382
X5.5433Y-2.5382
X5.5512Y-2.8043
X5.5512Y-2.9043
X7.9835Y-1.7244
X8.0835Y-1.7244
X8.1835Y-1.7244
X8.2835Y-1.7244
X9.1811Y-3.1465
X9.1811Y-3.2465
X9.1811Y-3.3465
T7
X5.563Y-3.8843
X5.563Y-4.0843
T2
G00X8.5937Y-4.4073
M15
G01X8.5937Y-4.4506
M16
G05
G00X8.5937Y-4.5817
M15
G01X8.5937Y-4.6053
M16
G05
G00X8.9339Y-4.4073
M15
G01X8.9339Y-4.4506
M16
G05
G00X8.9339Y-4.5817
M15
G01X8.9339Y-4.6053
M16
G05
T0
M30
