%TF.GenerationSoftware,KiCad,Pcbnew,(6.0.0-0)*%
%TF.CreationDate,2022-09-04T12:08:37+02:00*%
%TF.ProjectId,RIAA_ADC,52494141-5f41-4444-932e-6b696361645f,rev?*%
%TF.SameCoordinates,Original*%
%TF.FileFunction,Copper,L4,Bot*%
%TF.FilePolarity,Positive*%
%FSLAX46Y46*%
G04 Gerber Fmt 4.6, Leading zero omitted, Abs format (unit mm)*
G04 Created by KiCad (PCBNEW (6.0.0-0)) date 2022-09-04 12:08:37*
%MOMM*%
%LPD*%
G01*
G04 APERTURE LIST*
%TA.AperFunction,ComponentPad*%
%ADD10R,1.600000X1.600000*%
%TD*%
%TA.AperFunction,ComponentPad*%
%ADD11C,1.600000*%
%TD*%
%TA.AperFunction,ComponentPad*%
%ADD12R,1.500000X1.500000*%
%TD*%
%TA.AperFunction,ComponentPad*%
%ADD13C,1.500000*%
%TD*%
%TA.AperFunction,ComponentPad*%
%ADD14R,2.100000X2.100000*%
%TD*%
%TA.AperFunction,ComponentPad*%
%ADD15C,2.100000*%
%TD*%
%TA.AperFunction,ComponentPad*%
%ADD16R,1.358000X1.358000*%
%TD*%
%TA.AperFunction,ComponentPad*%
%ADD17C,1.358000*%
%TD*%
%TA.AperFunction,ComponentPad*%
%ADD18O,1.000000X1.600000*%
%TD*%
%TA.AperFunction,ComponentPad*%
%ADD19O,1.000000X2.100000*%
%TD*%
%TA.AperFunction,ComponentPad*%
%ADD20R,3.000000X3.000000*%
%TD*%
%TA.AperFunction,ComponentPad*%
%ADD21C,3.000000*%
%TD*%
%TA.AperFunction,ViaPad*%
%ADD22C,0.800000*%
%TD*%
%TA.AperFunction,Conductor*%
%ADD23C,1.500000*%
%TD*%
%TA.AperFunction,Conductor*%
%ADD24C,0.400000*%
%TD*%
%TA.AperFunction,Conductor*%
%ADD25C,0.250000*%
%TD*%
%TA.AperFunction,Conductor*%
%ADD26C,0.500000*%
%TD*%
G04 APERTURE END LIST*
D10*
%TO.P,C22,1*%
%TO.N,Net-(C22-Pad1)*%
X192800000Y-65775000D03*
D11*
%TO.P,C22,2*%
%TO.N,PHONO_OUT_L*%
X197800000Y-65775000D03*
%TD*%
D12*
%TO.P,U4,1,+VINVCC*%
%TO.N,Net-(C27-Pad1)*%
X165375151Y-104057500D03*
D13*
%TO.P,U4,2,-VINGND*%
%TO.N,GND*%
X165375151Y-102057500D03*
%TO.P,U4,4,ON/OFF*%
%TO.N,unconnected-(U4-Pad4)*%
X165375151Y-98057500D03*
%TO.P,U4,5,-VOUT*%
%TO.N,Net-(C37-Pad2)*%
X170455151Y-104057500D03*
%TO.P,U4,6,GND*%
%TO.N,GND*%
X170455151Y-102057500D03*
%TO.P,U4,7,+VOUT*%
%TO.N,Net-(C39-Pad1)*%
X170455151Y-100057500D03*
%TD*%
D10*
%TO.P,C23,1*%
%TO.N,Net-(C23-Pad1)*%
X192800000Y-47975000D03*
D11*
%TO.P,C23,2*%
%TO.N,PHONO_OUT_R*%
X197800000Y-47975000D03*
%TD*%
D14*
%TO.P,J1,1,Pin_1*%
%TO.N,GND*%
X141000000Y-71230000D03*
D15*
%TO.P,J1,2,Pin_2*%
%TO.N,Net-(C2-Pad1)*%
X141000000Y-73770000D03*
%TD*%
D14*
%TO.P,J3,1,Pin_1*%
%TO.N,PHONO_OUT_L*%
X210400000Y-43800000D03*
D15*
%TO.P,J3,2,Pin_2*%
%TO.N,GND*%
X207860000Y-43800000D03*
%TO.P,J3,3,Pin_3*%
%TO.N,PHONO_OUT_R*%
X205320000Y-43800000D03*
%TO.P,J3,4,Pin_4*%
%TO.N,GND*%
X202780000Y-43800000D03*
%TD*%
D14*
%TO.P,J2,1,Pin_1*%
%TO.N,GND*%
X140800000Y-61930000D03*
D15*
%TO.P,J2,2,Pin_2*%
%TO.N,Net-(C3-Pad1)*%
X140800000Y-64470000D03*
%TD*%
D16*
%TO.P,PS1,1,+VIN*%
%TO.N,Net-(C51-Pad1)*%
X177262651Y-110762500D03*
D17*
%TO.P,PS1,2,GND*%
%TO.N,GND*%
X179802651Y-110762500D03*
%TO.P,PS1,3,+VOUT*%
%TO.N,Net-(C59-Pad1)*%
X182342651Y-110762500D03*
%TD*%
D18*
%TO.P,J5,S1,SHIELD*%
%TO.N,GND*%
X226920000Y-116675000D03*
D19*
X226920000Y-112495000D03*
X218280000Y-112495000D03*
D18*
X218280000Y-116675000D03*
%TD*%
D10*
%TO.P,C5,1*%
%TO.N,Net-(C5-Pad1)*%
X147300000Y-83000000D03*
D11*
%TO.P,C5,2*%
%TO.N,GND*%
X142300000Y-83000000D03*
%TD*%
D14*
%TO.P,J7,1,Pin_1*%
%TO.N,+3.3VA*%
X233200000Y-85000000D03*
D15*
%TO.P,J7,2,Pin_2*%
%TO.N,Net-(J7-Pad2)*%
X233200000Y-82460000D03*
%TO.P,J7,3,Pin_3*%
%TO.N,GND*%
X233200000Y-79920000D03*
%TD*%
D10*
%TO.P,C6,1*%
%TO.N,Net-(C6-Pad1)*%
X147500000Y-52800000D03*
D11*
%TO.P,C6,2*%
%TO.N,GND*%
X142500000Y-52800000D03*
%TD*%
D10*
%TO.P,C45,1*%
%TO.N,VCC*%
X155802651Y-112375000D03*
D11*
%TO.P,C45,2*%
%TO.N,GND*%
X155802651Y-117375000D03*
%TD*%
D20*
%TO.P,J6,1,Pin_1*%
%TO.N,GND*%
X141300000Y-103740000D03*
D21*
%TO.P,J6,2,Pin_2*%
%TO.N,VCC*%
X141300000Y-98660000D03*
%TD*%
D22*
%TO.N,Net-(C5-Pad1)*%
X163800000Y-81800000D03*
%TO.N,GND*%
X188400000Y-113200000D03*
X225400000Y-102400000D03*
X169800000Y-118600000D03*
X150702651Y-67775000D03*
X201802651Y-66175000D03*
X158600000Y-42400000D03*
X164600000Y-116400000D03*
X193302651Y-82275000D03*
X197402651Y-87975000D03*
X188650000Y-81350000D03*
X213900000Y-103800000D03*
X228002651Y-74375000D03*
X193302651Y-81275000D03*
X220602651Y-68975000D03*
X214600000Y-100000000D03*
X188650000Y-46350000D03*
X160402651Y-87975000D03*
X188650000Y-61350000D03*
X216100000Y-82900000D03*
X166000000Y-93000000D03*
X158200000Y-94800000D03*
X205700000Y-87500000D03*
X151000000Y-93000000D03*
X226050000Y-105025000D03*
X194302651Y-84275000D03*
X156600000Y-42400000D03*
X188650000Y-85350000D03*
X152425000Y-42400000D03*
X220402651Y-59175000D03*
X164600000Y-42400000D03*
X209600000Y-86300000D03*
X173802651Y-50775000D03*
X228000000Y-95200000D03*
X162802651Y-57975000D03*
X233002651Y-59575000D03*
X227800000Y-100600000D03*
X224202651Y-51199500D03*
X160202651Y-57975000D03*
X188650000Y-75350000D03*
X184600000Y-42400000D03*
X188650000Y-55350000D03*
X178000000Y-93000000D03*
X162600000Y-42400000D03*
X189200000Y-98600000D03*
X223400000Y-44400000D03*
X209402651Y-68975000D03*
X216602651Y-70975000D03*
X165402651Y-59775000D03*
X228602651Y-65975000D03*
X212600000Y-94800000D03*
X174002651Y-80375000D03*
X188650000Y-51350000D03*
X188650000Y-77350000D03*
X220400000Y-99600000D03*
X210400000Y-98400000D03*
X225802651Y-58975000D03*
X177402651Y-101175000D03*
X218402651Y-58975000D03*
X213800000Y-75700000D03*
X188650000Y-73350000D03*
X188650000Y-57350000D03*
X204002651Y-71175000D03*
X150750000Y-59250000D03*
X168802651Y-64575000D03*
X188650000Y-69350000D03*
X212802651Y-74775000D03*
X196252651Y-77425000D03*
X203402651Y-63575000D03*
X174000000Y-93000000D03*
X219002651Y-75575000D03*
X204200000Y-80300000D03*
X194302651Y-82275000D03*
X186600000Y-42400000D03*
X182600000Y-42400000D03*
X194202651Y-55575000D03*
X218750000Y-110750000D03*
X215200000Y-82900000D03*
X191400000Y-112400000D03*
X150750000Y-89250000D03*
X216002651Y-57375000D03*
X198402651Y-59175000D03*
X154600000Y-42400000D03*
X193302651Y-83275000D03*
X188650000Y-91350000D03*
X150750000Y-45250000D03*
X194202651Y-56975000D03*
X159202651Y-68575000D03*
X184000000Y-93000000D03*
X150750000Y-79700000D03*
X168600000Y-42400000D03*
X196002651Y-91175000D03*
X177202651Y-78375000D03*
X218100000Y-107400000D03*
X223600000Y-78800000D03*
X221800000Y-95900000D03*
X207402651Y-68975000D03*
X168000000Y-93000000D03*
X161000000Y-93000000D03*
X163000000Y-93000000D03*
X208402651Y-68975000D03*
X150750000Y-85250000D03*
X231202651Y-50375000D03*
X178600000Y-42400000D03*
X150702651Y-70297349D03*
X201202651Y-57175000D03*
X206000000Y-106900000D03*
X188650000Y-83350000D03*
X177202651Y-48775000D03*
X232602651Y-66575000D03*
X150702651Y-73297349D03*
X181802651Y-101175000D03*
X165602651Y-89775000D03*
X209700000Y-103400000D03*
X150750000Y-91250000D03*
X198202651Y-82775000D03*
X188650000Y-53350000D03*
X228000000Y-98500000D03*
X150750000Y-56250000D03*
X233002651Y-55375000D03*
X212100000Y-75700000D03*
X188650000Y-71350000D03*
X202800000Y-109200000D03*
X177202651Y-68575000D03*
X215200000Y-81900000D03*
X176600000Y-42400000D03*
X222202651Y-59175000D03*
X187800000Y-105200000D03*
X162602651Y-107175000D03*
X165602651Y-71775000D03*
X170600000Y-42400000D03*
X188650000Y-88350000D03*
X226600000Y-110775000D03*
X188650000Y-44350000D03*
X201002651Y-69575000D03*
X168600000Y-117000000D03*
X171402651Y-64575000D03*
X163002651Y-87975000D03*
X150750000Y-47250000D03*
X208402651Y-69975000D03*
X227202651Y-53375000D03*
X216100000Y-83900000D03*
X188650000Y-42400000D03*
X224200000Y-73200000D03*
X231402651Y-52375000D03*
X216002651Y-49975000D03*
X154000000Y-93000000D03*
X183800000Y-68400000D03*
X234602651Y-63775000D03*
X173802651Y-59375000D03*
X150800000Y-42600000D03*
X150750000Y-87250000D03*
X166600000Y-42400000D03*
X216700000Y-94800000D03*
X152600000Y-94800000D03*
X150750000Y-49700000D03*
X157000000Y-93000000D03*
X193302651Y-84275000D03*
X172600000Y-42400000D03*
X215200000Y-83900000D03*
X194302651Y-81275000D03*
X209400000Y-79100000D03*
X221600000Y-106400000D03*
X178202651Y-64575000D03*
X180600000Y-42400000D03*
X188650000Y-63350000D03*
X176000000Y-93000000D03*
X167000000Y-69800000D03*
X188650000Y-79350000D03*
X150750000Y-81250000D03*
X174802651Y-89375000D03*
X160600000Y-42400000D03*
X174600000Y-42400000D03*
X209402651Y-69975000D03*
X207402651Y-69975000D03*
X150750000Y-61700000D03*
X194302651Y-83275000D03*
X216100000Y-81900000D03*
X171000000Y-93000000D03*
%TO.N,-12VA*%
X167800000Y-62000000D03*
X167200000Y-86200000D03*
X163000000Y-70600000D03*
X169400000Y-57400000D03*
X167000000Y-59600000D03*
X169600000Y-87200000D03*
X162400000Y-69400000D03*
X166400000Y-62600000D03*
X163600000Y-68600000D03*
X167200000Y-89400000D03*
X205600000Y-61800000D03*
X206200000Y-66800000D03*
X169800000Y-62000000D03*
X165400000Y-63600000D03*
X167000000Y-56600000D03*
X206200000Y-65400000D03*
X206400000Y-62800000D03*
%TO.N,+12VA*%
X174400000Y-66400000D03*
X176602651Y-53575000D03*
X202800000Y-54800000D03*
X173600000Y-65000000D03*
X172460000Y-83740000D03*
X200202651Y-54575000D03*
X201202651Y-54600000D03*
X177602651Y-53575000D03*
X174202651Y-64175000D03*
X175002651Y-82575000D03*
X174802651Y-53575000D03*
X175002651Y-83575000D03*
X198202651Y-54637500D03*
X172200000Y-70800000D03*
X172400000Y-53800000D03*
%TO.N,Net-(C22-Pad1)*%
X186802651Y-68602651D03*
%TO.N,PHONO_OUT_L*%
X203602651Y-57175000D03*
%TO.N,Net-(C23-Pad1)*%
X186202651Y-51375000D03*
%TO.N,+3V3*%
X216650000Y-105975000D03*
X207962500Y-85162500D03*
X208347389Y-84022389D03*
X234600000Y-101700000D03*
X218375000Y-98025000D03*
X207600000Y-106900000D03*
X227800000Y-93200000D03*
X210575000Y-93500000D03*
%TO.N,+15V*%
X186402651Y-99975000D03*
X187802651Y-99975000D03*
X178438826Y-66938826D03*
X178513826Y-68486174D03*
X181200000Y-66600000D03*
X181200000Y-68500000D03*
X184802651Y-99975000D03*
%TO.N,-15V*%
X167525000Y-67775000D03*
X186602651Y-102575000D03*
X184802651Y-102575000D03*
X188202651Y-102575000D03*
X168626325Y-67726325D03*
%TO.N,+3.3VA*%
X228427651Y-47872349D03*
X216902651Y-62875000D03*
X228427651Y-48872349D03*
X213802651Y-72175000D03*
X224602651Y-64375000D03*
X228427651Y-49772349D03*
%TO.N,+5V*%
X202852011Y-73897989D03*
X201950000Y-80925000D03*
X217850000Y-47450000D03*
X200350000Y-79225000D03*
X201975000Y-75200000D03*
X200400000Y-77200000D03*
X217800000Y-46450000D03*
X202300000Y-78000000D03*
X212300000Y-78000000D03*
X201775000Y-76450000D03*
X205002011Y-73897989D03*
X201100000Y-77900000D03*
X199400000Y-73975000D03*
X199775000Y-75350000D03*
X204200000Y-75250000D03*
X207125640Y-73897989D03*
X209062000Y-82138000D03*
X206002011Y-73897989D03*
%TO.N,SWDIO*%
X206200000Y-102800000D03*
X233700000Y-91700000D03*
%TO.N,SWCLK*%
X211825000Y-107200000D03*
X235475000Y-94475000D03*
%TO.N,/NRST*%
X213700000Y-101175000D03*
X225875000Y-100750000D03*
%TO.N,VBUS*%
X220300000Y-110800000D03*
X225150000Y-110250000D03*
%TO.N,USB_D_ESD+*%
X228075000Y-108975000D03*
X222725000Y-113750000D03*
%TO.N,MOSI_WM*%
X217372475Y-66272475D03*
X215037500Y-86337500D03*
%TO.N,RST_WM*%
X209000000Y-65900000D03*
X211000000Y-88225000D03*
%TO.N,Net-(R24-Pad2)*%
X218208288Y-52167374D03*
X218402651Y-54975000D03*
%TO.N,SS_WM*%
X220700000Y-67600000D03*
X208225000Y-97200000D03*
%TO.N,SCLK_WM*%
X210275000Y-99700000D03*
X221500000Y-64400000D03*
%TO.N,MISO_WM*%
X220500000Y-83425000D03*
X221100000Y-65700000D03*
%TO.N,USB_DM*%
X226800000Y-103400000D03*
X210375000Y-101950000D03*
%TO.N,USB_DP*%
X212500000Y-102825000D03*
X223625000Y-105450000D03*
%TO.N,DOUT_ADC*%
X218002651Y-50575000D03*
X224602651Y-69775000D03*
%TO.N,BCK_ADC*%
X224202651Y-68575000D03*
X221402651Y-49975000D03*
%TO.N,Net-(C63-Pad1)*%
X227752651Y-52425000D03*
X222000000Y-47000000D03*
%TD*%
D23*
%TO.N,-12VA*%
X196400000Y-61800000D02*
X205600000Y-61800000D01*
D24*
X205600000Y-61800000D02*
X205600000Y-62000000D01*
X205600000Y-62000000D02*
X206400000Y-62800000D01*
D23*
X184800000Y-62000000D02*
X187600000Y-59200000D01*
X169800000Y-62000000D02*
X184800000Y-62000000D01*
X167000000Y-62000000D02*
X167800000Y-62000000D01*
X193800000Y-59200000D02*
X196400000Y-61800000D01*
X206200000Y-62400000D02*
X205600000Y-61800000D01*
X206200000Y-66800000D02*
X206200000Y-62400000D01*
X187600000Y-59200000D02*
X193800000Y-59200000D01*
X165400000Y-63600000D02*
X166400000Y-62600000D01*
X166400000Y-62600000D02*
X167000000Y-62000000D01*
X167800000Y-62000000D02*
X169800000Y-62000000D01*
%TO.N,+15V*%
X185500000Y-77200000D02*
X185500000Y-91700000D01*
X187802651Y-99975000D02*
X184802651Y-99975000D01*
X186402651Y-92602651D02*
X185500000Y-91700000D01*
X186402651Y-99975000D02*
X186402651Y-92602651D01*
X181200000Y-66600000D02*
X181200000Y-72900000D01*
X181200000Y-72900000D02*
X185500000Y-77200000D01*
%TO.N,-15V*%
X177800000Y-75800000D02*
X181200000Y-79200000D01*
X169100000Y-68700000D02*
X169100000Y-73900000D01*
X171000000Y-75800000D02*
X177800000Y-75800000D01*
X179700000Y-95700000D02*
X179700000Y-101900000D01*
X169100000Y-68200000D02*
X168626325Y-67726325D01*
X181200000Y-94200000D02*
X179700000Y-95700000D01*
X167525000Y-67775000D02*
X168577650Y-67775000D01*
X169100000Y-68700000D02*
X169100000Y-68200000D01*
X188202651Y-102575000D02*
X184802651Y-102575000D01*
X180375000Y-102575000D02*
X184802651Y-102575000D01*
X179700000Y-101900000D02*
X180375000Y-102575000D01*
X181200000Y-79200000D02*
X181200000Y-94200000D01*
X169100000Y-73900000D02*
X171000000Y-75800000D01*
D25*
%TO.N,SWDIO*%
X212600000Y-100775000D02*
X222975000Y-90400000D01*
X212125000Y-100775000D02*
X212600000Y-100775000D01*
X222975000Y-90400000D02*
X232550000Y-90400000D01*
X206200000Y-102800000D02*
X206200000Y-101925000D01*
X232550000Y-90400000D02*
X233700000Y-91550000D01*
X207350000Y-100775000D02*
X212125000Y-100775000D01*
X233700000Y-91550000D02*
X233700000Y-91700000D01*
X206200000Y-101925000D02*
X207350000Y-100775000D01*
%TO.N,SWCLK*%
X229925000Y-98400000D02*
X229925000Y-103750000D01*
X233850000Y-94475000D02*
X229925000Y-98400000D01*
X215675000Y-107200000D02*
X216650000Y-108175000D01*
X214625000Y-107200000D02*
X215675000Y-107200000D01*
X235475000Y-94475000D02*
X233850000Y-94475000D01*
X229925000Y-103750000D02*
X225250000Y-108425000D01*
X225250000Y-108425000D02*
X221850000Y-108425000D01*
X211825000Y-107200000D02*
X214625000Y-107200000D01*
X216900000Y-108425000D02*
X221850000Y-108425000D01*
X216650000Y-108175000D02*
X216900000Y-108425000D01*
D24*
%TO.N,/NRST*%
X218325000Y-101175000D02*
X213700000Y-101175000D01*
X225875000Y-100750000D02*
X218750000Y-100750000D01*
X218750000Y-100750000D02*
X218325000Y-101175000D01*
D25*
%TO.N,VBUS*%
X220600000Y-110300000D02*
X220300000Y-110600000D01*
X225100000Y-110300000D02*
X220700000Y-110300000D01*
X220700000Y-110300000D02*
X220600000Y-110300000D01*
X225150000Y-110250000D02*
X225100000Y-110300000D01*
X220300000Y-110600000D02*
X220300000Y-110800000D01*
%TO.N,MOSI_WM*%
X217372475Y-66272475D02*
X215500000Y-68144950D01*
X213800000Y-81300000D02*
X213800000Y-85100000D01*
X215500000Y-79600000D02*
X213800000Y-81300000D01*
X215500000Y-68144950D02*
X215500000Y-79600000D01*
X213800000Y-85100000D02*
X215037500Y-86337500D01*
%TO.N,RST_WM*%
X211000000Y-66400000D02*
X211000000Y-88225000D01*
X209000000Y-65900000D02*
X210500000Y-65900000D01*
X210500000Y-65900000D02*
X211000000Y-66400000D01*
%TO.N,Net-(R24-Pad2)*%
X218208288Y-54780637D02*
X218402651Y-54975000D01*
X218208288Y-52167374D02*
X218208288Y-54780637D01*
%TO.N,SS_WM*%
X217900000Y-85375000D02*
X217900000Y-69100000D01*
X208225000Y-97200000D02*
X208225000Y-93700000D01*
X217900000Y-69100000D02*
X219400000Y-67600000D01*
X208225000Y-93700000D02*
X214000000Y-87925000D01*
X214000000Y-87925000D02*
X215350000Y-87925000D01*
X215350000Y-87925000D02*
X217900000Y-85375000D01*
X219400000Y-67600000D02*
X220700000Y-67600000D01*
%TO.N,SCLK_WM*%
X211750000Y-99700000D02*
X214425000Y-97025000D01*
X210275000Y-99700000D02*
X211750000Y-99700000D01*
X222300000Y-84700000D02*
X222300000Y-65200000D01*
X214425000Y-97025000D02*
X214425000Y-92575000D01*
X214425000Y-92575000D02*
X222300000Y-84700000D01*
X222300000Y-65200000D02*
X221500000Y-64400000D01*
%TO.N,MISO_WM*%
X221500000Y-66100000D02*
X221500000Y-69200000D01*
X221100000Y-65700000D02*
X221500000Y-66100000D01*
X221500000Y-69600000D02*
X220500000Y-70600000D01*
X220500000Y-70600000D02*
X220500000Y-83425000D01*
X221500000Y-69200000D02*
X221500000Y-69600000D01*
%TO.N,USB_DM*%
X222351732Y-101950000D02*
X210375000Y-101950000D01*
X226800000Y-103400000D02*
X223801732Y-103400000D01*
X223801732Y-103400000D02*
X223400866Y-102999134D01*
X223400866Y-102999134D02*
X222351732Y-101950000D01*
%TO.N,USB_DP*%
X223625000Y-105450000D02*
X221300000Y-103125000D01*
X221000000Y-102825000D02*
X212500000Y-102825000D01*
X221300000Y-103125000D02*
X221000000Y-102825000D01*
%TO.N,DOUT_ADC*%
X223202651Y-68175000D02*
X223202651Y-69175000D01*
X223802651Y-69775000D02*
X224602651Y-69775000D01*
X223202651Y-60975000D02*
X226002651Y-63775000D01*
X218602651Y-50575000D02*
X223202651Y-55175000D01*
X226002651Y-65375000D02*
X223202651Y-68175000D01*
X223202651Y-55175000D02*
X223202651Y-60975000D01*
X223202651Y-69175000D02*
X223802651Y-69775000D01*
X218002651Y-50575000D02*
X218602651Y-50575000D01*
X226002651Y-63775000D02*
X226002651Y-65375000D01*
%TO.N,BCK_ADC*%
X221402651Y-49975000D02*
X221402651Y-51775000D01*
X227202651Y-63375000D02*
X227202651Y-65575000D01*
X221402651Y-51775000D02*
X224402651Y-54775000D01*
X224402651Y-60575000D02*
X227202651Y-63375000D01*
X227202651Y-65575000D02*
X224202651Y-68575000D01*
X224402651Y-54775000D02*
X224402651Y-60575000D01*
D26*
%TO.N,Net-(C63-Pad1)*%
X225900000Y-48000000D02*
X225900000Y-51500000D01*
X225900000Y-51500000D02*
X226825000Y-52425000D01*
X224900000Y-47000000D02*
X225900000Y-48000000D01*
X226825000Y-52425000D02*
X227752651Y-52425000D01*
X222000000Y-47000000D02*
X224900000Y-47000000D01*
%TD*%
%TA.AperFunction,Conductor*%
%TO.N,+15V*%
G36*
X186744772Y-98595002D02*
G01*
X186791265Y-98648658D01*
X186802651Y-98701000D01*
X186802651Y-99375000D01*
X189076651Y-99375000D01*
X189144772Y-99395002D01*
X189191265Y-99448658D01*
X189202651Y-99501000D01*
X189202651Y-100993000D01*
X189182649Y-101061121D01*
X189128993Y-101107614D01*
X189076651Y-101119000D01*
X183128651Y-101119000D01*
X183060530Y-101098998D01*
X183014037Y-101045342D01*
X183002651Y-100993000D01*
X183002651Y-98701000D01*
X183022653Y-98632879D01*
X183076309Y-98586386D01*
X183128651Y-98575000D01*
X186676651Y-98575000D01*
X186744772Y-98595002D01*
G37*
%TD.AperFunction*%
%TD*%
%TA.AperFunction,Conductor*%
%TO.N,+15V*%
G36*
X183442121Y-66020002D02*
G01*
X183488614Y-66073658D01*
X183500000Y-66126000D01*
X183500000Y-67739257D01*
X183479998Y-67807378D01*
X183440172Y-67843598D01*
X183441315Y-67845279D01*
X183435030Y-67849550D01*
X183428282Y-67853033D01*
X183422562Y-67858023D01*
X183422559Y-67858025D01*
X183353739Y-67918061D01*
X183308542Y-67957489D01*
X183217175Y-68087492D01*
X183159455Y-68235536D01*
X183158464Y-68243063D01*
X183139705Y-68385544D01*
X183139705Y-68385548D01*
X183138714Y-68393075D01*
X183156151Y-68551013D01*
X183158760Y-68558144D01*
X183158761Y-68558146D01*
X183163525Y-68571163D01*
X183210758Y-68700234D01*
X183214995Y-68706540D01*
X183214997Y-68706543D01*
X183223095Y-68718594D01*
X183299383Y-68832121D01*
X183416909Y-68939062D01*
X183434124Y-68948409D01*
X183484444Y-68998491D01*
X183500000Y-69059139D01*
X183500000Y-69174000D01*
X183479998Y-69242121D01*
X183426342Y-69288614D01*
X183374000Y-69300000D01*
X177926000Y-69300000D01*
X177857879Y-69279998D01*
X177811386Y-69226342D01*
X177800000Y-69174000D01*
X177800000Y-68873622D01*
X177809093Y-68826625D01*
X177809419Y-68825815D01*
X177841439Y-68746163D01*
X177863828Y-68588850D01*
X177863973Y-68575000D01*
X177861934Y-68558146D01*
X177845796Y-68424796D01*
X177845796Y-68424795D01*
X177844883Y-68417253D01*
X177808134Y-68319998D01*
X177800000Y-68275461D01*
X177800000Y-66126000D01*
X177820002Y-66057879D01*
X177873658Y-66011386D01*
X177926000Y-66000000D01*
X183374000Y-66000000D01*
X183442121Y-66020002D01*
G37*
%TD.AperFunction*%
%TD*%
%TA.AperFunction,Conductor*%
%TO.N,-15V*%
G36*
X189144772Y-101395002D02*
G01*
X189191265Y-101448658D01*
X189202651Y-101501000D01*
X189202651Y-103649000D01*
X189182649Y-103717121D01*
X189128993Y-103763614D01*
X189076651Y-103775000D01*
X183128651Y-103775000D01*
X183060530Y-103754998D01*
X183014037Y-103701342D01*
X183002651Y-103649000D01*
X183002651Y-101501000D01*
X183022653Y-101432879D01*
X183076309Y-101386386D01*
X183128651Y-101375000D01*
X189076651Y-101375000D01*
X189144772Y-101395002D01*
G37*
%TD.AperFunction*%
%TD*%
%TA.AperFunction,Conductor*%
%TO.N,-15V*%
G36*
X169642121Y-66520002D02*
G01*
X169688614Y-66573658D01*
X169700000Y-66626000D01*
X169700000Y-69274000D01*
X169679998Y-69342121D01*
X169626342Y-69388614D01*
X169574000Y-69400000D01*
X167584660Y-69400000D01*
X167516539Y-69379998D01*
X167496191Y-69362519D01*
X167496065Y-69362660D01*
X167455302Y-69326342D01*
X167377425Y-69256956D01*
X167236997Y-69182603D01*
X167227251Y-69180155D01*
X167090257Y-69145744D01*
X167090253Y-69145744D01*
X167082886Y-69143893D01*
X167075287Y-69143853D01*
X167075285Y-69143853D01*
X167009461Y-69143509D01*
X166923990Y-69143061D01*
X166916610Y-69144833D01*
X166916608Y-69144833D01*
X166840895Y-69163010D01*
X166769482Y-69180155D01*
X166628282Y-69253033D01*
X166622562Y-69258023D01*
X166622559Y-69258025D01*
X166604247Y-69274000D01*
X166508542Y-69357489D01*
X166507150Y-69359470D01*
X166448582Y-69395551D01*
X166415394Y-69400000D01*
X165826000Y-69400000D01*
X165757879Y-69379998D01*
X165711386Y-69326342D01*
X165700000Y-69274000D01*
X165700000Y-66626000D01*
X165720002Y-66557879D01*
X165773658Y-66511386D01*
X165826000Y-66500000D01*
X169574000Y-66500000D01*
X169642121Y-66520002D01*
G37*
%TD.AperFunction*%
%TD*%
M02*
