%TF.GenerationSoftware,KiCad,Pcbnew,(6.0.0-0)*%
%TF.CreationDate,2022-09-04T12:08:37+02:00*%
%TF.ProjectId,RIAA_ADC,52494141-5f41-4444-932e-6b696361645f,rev?*%
%TF.SameCoordinates,Original*%
%TF.FileFunction,Copper,L1,Top*%
%TF.FilePolarity,Positive*%
%FSLAX46Y46*%
G04 Gerber Fmt 4.6, Leading zero omitted, Abs format (unit mm)*
G04 Created by KiCad (PCBNEW (6.0.0-0)) date 2022-09-04 12:08:37*
%MOMM*%
%LPD*%
G01*
G04 APERTURE LIST*
G04 Aperture macros list*
%AMRoundRect*
0 Rectangle with rounded corners*
0 $1 Rounding radius*
0 $2 $3 $4 $5 $6 $7 $8 $9 X,Y pos of 4 corners*
0 Add a 4 corners polygon primitive as box body*
4,1,4,$2,$3,$4,$5,$6,$7,$8,$9,$2,$3,0*
0 Add four circle primitives for the rounded corners*
1,1,$1+$1,$2,$3*
1,1,$1+$1,$4,$5*
1,1,$1+$1,$6,$7*
1,1,$1+$1,$8,$9*
0 Add four rect primitives between the rounded corners*
20,1,$1+$1,$2,$3,$4,$5,0*
20,1,$1+$1,$4,$5,$6,$7,0*
20,1,$1+$1,$6,$7,$8,$9,0*
20,1,$1+$1,$8,$9,$2,$3,0*%
G04 Aperture macros list end*
%TA.AperFunction,SMDPad,CuDef*%
%ADD10RoundRect,0.225000X0.250000X-0.225000X0.250000X0.225000X-0.250000X0.225000X-0.250000X-0.225000X0*%
%TD*%
%TA.AperFunction,SMDPad,CuDef*%
%ADD11RoundRect,0.200000X0.275000X-0.200000X0.275000X0.200000X-0.275000X0.200000X-0.275000X-0.200000X0*%
%TD*%
%TA.AperFunction,ComponentPad*%
%ADD12R,1.600000X1.600000*%
%TD*%
%TA.AperFunction,ComponentPad*%
%ADD13C,1.600000*%
%TD*%
%TA.AperFunction,SMDPad,CuDef*%
%ADD14RoundRect,0.250000X-0.925000X0.412500X-0.925000X-0.412500X0.925000X-0.412500X0.925000X0.412500X0*%
%TD*%
%TA.AperFunction,SMDPad,CuDef*%
%ADD15C,0.500000*%
%TD*%
%TA.AperFunction,SMDPad,CuDef*%
%ADD16RoundRect,0.250000X0.412500X0.925000X-0.412500X0.925000X-0.412500X-0.925000X0.412500X-0.925000X0*%
%TD*%
%TA.AperFunction,SMDPad,CuDef*%
%ADD17RoundRect,0.250000X-0.412500X-1.100000X0.412500X-1.100000X0.412500X1.100000X-0.412500X1.100000X0*%
%TD*%
%TA.AperFunction,ComponentPad*%
%ADD18R,1.500000X1.500000*%
%TD*%
%TA.AperFunction,ComponentPad*%
%ADD19C,1.500000*%
%TD*%
%TA.AperFunction,SMDPad,CuDef*%
%ADD20RoundRect,0.200000X-0.275000X0.200000X-0.275000X-0.200000X0.275000X-0.200000X0.275000X0.200000X0*%
%TD*%
%TA.AperFunction,SMDPad,CuDef*%
%ADD21R,2.000000X1.500000*%
%TD*%
%TA.AperFunction,SMDPad,CuDef*%
%ADD22R,2.000000X3.800000*%
%TD*%
%TA.AperFunction,SMDPad,CuDef*%
%ADD23RoundRect,0.225000X-0.250000X0.225000X-0.250000X-0.225000X0.250000X-0.225000X0.250000X0.225000X0*%
%TD*%
%TA.AperFunction,SMDPad,CuDef*%
%ADD24RoundRect,0.250000X-0.375000X-1.075000X0.375000X-1.075000X0.375000X1.075000X-0.375000X1.075000X0*%
%TD*%
%TA.AperFunction,SMDPad,CuDef*%
%ADD25R,1.460500X0.558800*%
%TD*%
%TA.AperFunction,SMDPad,CuDef*%
%ADD26R,1.800000X2.100000*%
%TD*%
%TA.AperFunction,SMDPad,CuDef*%
%ADD27RoundRect,0.225000X-0.225000X-0.250000X0.225000X-0.250000X0.225000X0.250000X-0.225000X0.250000X0*%
%TD*%
%TA.AperFunction,SMDPad,CuDef*%
%ADD28RoundRect,0.200000X-0.200000X-0.275000X0.200000X-0.275000X0.200000X0.275000X-0.200000X0.275000X0*%
%TD*%
%TA.AperFunction,SMDPad,CuDef*%
%ADD29RoundRect,0.225000X0.225000X0.250000X-0.225000X0.250000X-0.225000X-0.250000X0.225000X-0.250000X0*%
%TD*%
%TA.AperFunction,SMDPad,CuDef*%
%ADD30R,1.498600X1.905000*%
%TD*%
%TA.AperFunction,SMDPad,CuDef*%
%ADD31R,1.600200X0.838200*%
%TD*%
%TA.AperFunction,SMDPad,CuDef*%
%ADD32R,1.600200X2.997200*%
%TD*%
%TA.AperFunction,SMDPad,CuDef*%
%ADD33RoundRect,0.250000X0.925000X-0.412500X0.925000X0.412500X-0.925000X0.412500X-0.925000X-0.412500X0*%
%TD*%
%TA.AperFunction,SMDPad,CuDef*%
%ADD34RoundRect,0.075000X0.662500X0.075000X-0.662500X0.075000X-0.662500X-0.075000X0.662500X-0.075000X0*%
%TD*%
%TA.AperFunction,SMDPad,CuDef*%
%ADD35RoundRect,0.075000X0.075000X0.662500X-0.075000X0.662500X-0.075000X-0.662500X0.075000X-0.662500X0*%
%TD*%
%TA.AperFunction,ComponentPad*%
%ADD36R,2.100000X2.100000*%
%TD*%
%TA.AperFunction,ComponentPad*%
%ADD37C,2.100000*%
%TD*%
%TA.AperFunction,SMDPad,CuDef*%
%ADD38RoundRect,0.150000X0.512500X0.150000X-0.512500X0.150000X-0.512500X-0.150000X0.512500X-0.150000X0*%
%TD*%
%TA.AperFunction,SMDPad,CuDef*%
%ADD39RoundRect,0.250000X-0.412500X-0.925000X0.412500X-0.925000X0.412500X0.925000X-0.412500X0.925000X0*%
%TD*%
%TA.AperFunction,SMDPad,CuDef*%
%ADD40RoundRect,0.020500X0.764500X0.184500X-0.764500X0.184500X-0.764500X-0.184500X0.764500X-0.184500X0*%
%TD*%
%TA.AperFunction,SMDPad,CuDef*%
%ADD41RoundRect,0.150000X-0.150000X0.512500X-0.150000X-0.512500X0.150000X-0.512500X0.150000X0.512500X0*%
%TD*%
%TA.AperFunction,SMDPad,CuDef*%
%ADD42R,2.100000X1.800000*%
%TD*%
%TA.AperFunction,SMDPad,CuDef*%
%ADD43RoundRect,0.250000X1.075000X-0.375000X1.075000X0.375000X-1.075000X0.375000X-1.075000X-0.375000X0*%
%TD*%
%TA.AperFunction,SMDPad,CuDef*%
%ADD44R,1.651000X0.431800*%
%TD*%
%TA.AperFunction,ComponentPad*%
%ADD45R,1.358000X1.358000*%
%TD*%
%TA.AperFunction,ComponentPad*%
%ADD46C,1.358000*%
%TD*%
%TA.AperFunction,SMDPad,CuDef*%
%ADD47R,0.300000X1.150000*%
%TD*%
%TA.AperFunction,ComponentPad*%
%ADD48O,1.000000X1.600000*%
%TD*%
%TA.AperFunction,ComponentPad*%
%ADD49O,1.000000X2.100000*%
%TD*%
%TA.AperFunction,SMDPad,CuDef*%
%ADD50R,2.400000X0.740000*%
%TD*%
%TA.AperFunction,SMDPad,CuDef*%
%ADD51RoundRect,0.250000X-1.075000X0.375000X-1.075000X-0.375000X1.075000X-0.375000X1.075000X0.375000X0*%
%TD*%
%TA.AperFunction,SMDPad,CuDef*%
%ADD52R,1.000000X1.000000*%
%TD*%
%TA.AperFunction,SMDPad,CuDef*%
%ADD53R,1.000000X3.800000*%
%TD*%
%TA.AperFunction,SMDPad,CuDef*%
%ADD54R,3.800000X1.000000*%
%TD*%
%TA.AperFunction,SMDPad,CuDef*%
%ADD55R,1.000000X2.700000*%
%TD*%
%TA.AperFunction,SMDPad,CuDef*%
%ADD56R,2.350000X1.000000*%
%TD*%
%TA.AperFunction,SMDPad,CuDef*%
%ADD57RoundRect,0.200000X0.200000X0.275000X-0.200000X0.275000X-0.200000X-0.275000X0.200000X-0.275000X0*%
%TD*%
%TA.AperFunction,SMDPad,CuDef*%
%ADD58R,1.752600X4.495800*%
%TD*%
%TA.AperFunction,ComponentPad*%
%ADD59R,3.000000X3.000000*%
%TD*%
%TA.AperFunction,ComponentPad*%
%ADD60C,3.000000*%
%TD*%
%TA.AperFunction,SMDPad,CuDef*%
%ADD61R,0.838200X1.600200*%
%TD*%
%TA.AperFunction,SMDPad,CuDef*%
%ADD62R,2.997200X1.600200*%
%TD*%
%TA.AperFunction,SMDPad,CuDef*%
%ADD63RoundRect,0.100000X0.100000X-0.637500X0.100000X0.637500X-0.100000X0.637500X-0.100000X-0.637500X0*%
%TD*%
%TA.AperFunction,SMDPad,CuDef*%
%ADD64RoundRect,0.100000X-0.712500X-0.100000X0.712500X-0.100000X0.712500X0.100000X-0.712500X0.100000X0*%
%TD*%
%TA.AperFunction,ViaPad*%
%ADD65C,0.800000*%
%TD*%
%TA.AperFunction,Conductor*%
%ADD66C,0.500000*%
%TD*%
%TA.AperFunction,Conductor*%
%ADD67C,0.400000*%
%TD*%
%TA.AperFunction,Conductor*%
%ADD68C,1.000000*%
%TD*%
%TA.AperFunction,Conductor*%
%ADD69C,0.250000*%
%TD*%
%TA.AperFunction,Conductor*%
%ADD70C,1.500000*%
%TD*%
%TA.AperFunction,Conductor*%
%ADD71C,0.750000*%
%TD*%
G04 APERTURE END LIST*
D10*
%TO.P,C74,1*%
%TO.N,+5V*%
X204002651Y-73950000D03*
%TO.P,C74,2*%
%TO.N,GND*%
X204002651Y-72400000D03*
%TD*%
%TO.P,C31,1*%
%TO.N,-15V*%
X169002651Y-67350000D03*
%TO.P,C31,2*%
%TO.N,GND*%
X169002651Y-65800000D03*
%TD*%
D11*
%TO.P,R20,1*%
%TO.N,RST_WM*%
X211802651Y-66000000D03*
%TO.P,R20,2*%
%TO.N,+3.3VA*%
X211802651Y-64350000D03*
%TD*%
%TO.P,R4,1*%
%TO.N,Net-(C6-Pad1)*%
X163602651Y-50600000D03*
%TO.P,R4,2*%
%TO.N,Net-(C13-Pad1)*%
X163602651Y-48950000D03*
%TD*%
D12*
%TO.P,C22,1*%
%TO.N,Net-(C22-Pad1)*%
X192800000Y-65775000D03*
D13*
%TO.P,C22,2*%
%TO.N,PHONO_OUT_L*%
X197800000Y-65775000D03*
%TD*%
D14*
%TO.P,C48,1*%
%TO.N,+3.3VA*%
X216200000Y-72500000D03*
%TO.P,C48,2*%
%TO.N,GND*%
X216200000Y-75575000D03*
%TD*%
D15*
%TO.P,FID4,*%
%TO.N,*%
X235600000Y-118000000D03*
%TD*%
D16*
%TO.P,C8,1*%
%TO.N,GND*%
X172740151Y-89175000D03*
%TO.P,C8,2*%
%TO.N,-12VA*%
X169665151Y-89175000D03*
%TD*%
D17*
%TO.P,C15,1*%
%TO.N,Net-(C13-Pad2)*%
X169640151Y-46175000D03*
%TO.P,C15,2*%
%TO.N,Net-(C15-Pad2)*%
X172765151Y-46175000D03*
%TD*%
D10*
%TO.P,C19,1*%
%TO.N,+12VA*%
X173802651Y-53550000D03*
%TO.P,C19,2*%
%TO.N,GND*%
X173802651Y-52000000D03*
%TD*%
D18*
%TO.P,U4,1,+VINVCC*%
%TO.N,Net-(C27-Pad1)*%
X165375151Y-104057500D03*
D19*
%TO.P,U4,2,-VINGND*%
%TO.N,GND*%
X165375151Y-102057500D03*
%TO.P,U4,4,ON/OFF*%
%TO.N,unconnected-(U4-Pad4)*%
X165375151Y-98057500D03*
%TO.P,U4,5,-VOUT*%
%TO.N,Net-(C37-Pad2)*%
X170455151Y-104057500D03*
%TO.P,U4,6,GND*%
%TO.N,GND*%
X170455151Y-102057500D03*
%TO.P,U4,7,+VOUT*%
%TO.N,Net-(C39-Pad1)*%
X170455151Y-100057500D03*
%TD*%
D12*
%TO.P,C23,1*%
%TO.N,Net-(C23-Pad1)*%
X192800000Y-47975000D03*
D13*
%TO.P,C23,2*%
%TO.N,PHONO_OUT_R*%
X197800000Y-47975000D03*
%TD*%
D20*
%TO.P,R17,1*%
%TO.N,+12VA*%
X173402651Y-65750000D03*
%TO.P,R17,2*%
%TO.N,Net-(R17-Pad2)*%
X173402651Y-67400000D03*
%TD*%
D21*
%TO.P,U11,1,Input*%
%TO.N,Net-(C59-Pad1)*%
X200090151Y-85075000D03*
%TO.P,U11,2,GND*%
%TO.N,GND*%
X200090151Y-82775000D03*
%TO.P,U11,3,Output*%
%TO.N,+5V*%
X200090151Y-80475000D03*
D22*
%TO.P,U11,4,GND*%
%TO.N,GND*%
X193790151Y-82775000D03*
%TD*%
D23*
%TO.P,C57,1*%
%TO.N,GND*%
X216002651Y-51200000D03*
%TO.P,C57,2*%
%TO.N,Net-(C57-Pad2)*%
X216002651Y-52750000D03*
%TD*%
%TO.P,C43,1*%
%TO.N,+3V3*%
X207300000Y-85825000D03*
%TO.P,C43,2*%
%TO.N,GND*%
X207300000Y-87375000D03*
%TD*%
D24*
%TO.P,L5,1,1*%
%TO.N,+5V*%
X217800000Y-47000000D03*
%TO.P,L5,2,2*%
%TO.N,Net-(C63-Pad1)*%
X220600000Y-47000000D03*
%TD*%
D25*
%TO.P,U1,1,NC*%
%TO.N,unconnected-(U1-Pad1)*%
X165878501Y-82470000D03*
%TO.P,U1,2,-IN*%
%TO.N,Net-(C12-Pad1)*%
X165878501Y-83740000D03*
%TO.P,U1,3,+IN*%
%TO.N,Net-(C2-Pad1)*%
X165878501Y-85010000D03*
%TO.P,U1,4,V-*%
%TO.N,-12VA*%
X165878501Y-86280000D03*
%TO.P,U1,5,NC*%
%TO.N,unconnected-(U1-Pad5)*%
X171326801Y-86280000D03*
%TO.P,U1,6,OUT*%
%TO.N,Net-(C14-Pad2)*%
X171326801Y-85010000D03*
%TO.P,U1,7,V+*%
%TO.N,+12VA*%
X171326801Y-83740000D03*
%TO.P,U1,8,NC*%
%TO.N,unconnected-(U1-Pad8)*%
X171326801Y-82470000D03*
%TD*%
D17*
%TO.P,C13,1*%
%TO.N,Net-(C13-Pad1)*%
X163840151Y-46175000D03*
%TO.P,C13,2*%
%TO.N,Net-(C13-Pad2)*%
X166965151Y-46175000D03*
%TD*%
D14*
%TO.P,C37,1*%
%TO.N,GND*%
X177402651Y-102637500D03*
%TO.P,C37,2*%
%TO.N,Net-(C37-Pad2)*%
X177402651Y-105712500D03*
%TD*%
D10*
%TO.P,C18,1*%
%TO.N,+12VA*%
X173802651Y-83350000D03*
%TO.P,C18,2*%
%TO.N,GND*%
X173802651Y-81800000D03*
%TD*%
D11*
%TO.P,R26,1*%
%TO.N,GND*%
X220402651Y-57800000D03*
%TO.P,R26,2*%
%TO.N,Net-(R26-Pad2)*%
X220402651Y-56150000D03*
%TD*%
D23*
%TO.P,C3,1*%
%TO.N,Net-(C3-Pad1)*%
X162802651Y-55200000D03*
%TO.P,C3,2*%
%TO.N,GND*%
X162802651Y-56750000D03*
%TD*%
D26*
%TO.P,Y2,1,1*%
%TO.N,Net-(C60-Pad2)*%
X221850000Y-73550000D03*
%TO.P,Y2,2,2*%
%TO.N,GND*%
X221850000Y-76450000D03*
%TO.P,Y2,3,3*%
%TO.N,Net-(C65-Pad2)*%
X224150000Y-76450000D03*
%TO.P,Y2,4,4*%
%TO.N,GND*%
X224150000Y-73550000D03*
%TD*%
D16*
%TO.P,C66,1*%
%TO.N,Net-(C59-Pad1)*%
X200540151Y-91175000D03*
%TO.P,C66,2*%
%TO.N,GND*%
X197465151Y-91175000D03*
%TD*%
%TO.P,C9,1*%
%TO.N,GND*%
X172540151Y-59375000D03*
%TO.P,C9,2*%
%TO.N,-12VA*%
X169465151Y-59375000D03*
%TD*%
D27*
%TO.P,C72,1*%
%TO.N,+3.3VA*%
X228427651Y-50375000D03*
%TO.P,C72,2*%
%TO.N,GND*%
X229977651Y-50375000D03*
%TD*%
D17*
%TO.P,C54,1*%
%TO.N,Net-(C54-Pad1)*%
X207840151Y-60175000D03*
%TO.P,C54,2*%
%TO.N,Net-(C54-Pad2)*%
X210965151Y-60175000D03*
%TD*%
D28*
%TO.P,R8,1*%
%TO.N,Net-(C12-Pad2)*%
X169777651Y-79775000D03*
%TO.P,R8,2*%
%TO.N,Net-(C14-Pad2)*%
X171427651Y-79775000D03*
%TD*%
D29*
%TO.P,C11,1*%
%TO.N,-12VA*%
X166977651Y-58575000D03*
%TO.P,C11,2*%
%TO.N,GND*%
X165427651Y-58575000D03*
%TD*%
D30*
%TO.P,L4,1,1*%
%TO.N,VCC*%
X167852651Y-109775000D03*
%TO.P,L4,2,2*%
%TO.N,Net-(C51-Pad1)*%
X171752651Y-109775000D03*
%TD*%
D31*
%TO.P,U8,1,~{SD}*%
%TO.N,Net-(R14-Pad1)*%
X209577400Y-80639400D03*
%TO.P,U8,2,VIN*%
%TO.N,+5V*%
X209577400Y-82138000D03*
%TO.P,U8,3,VOUT*%
%TO.N,+3V3*%
X209577400Y-83662000D03*
%TO.P,U8,4,~{ERROR}*%
%TO.N,GND*%
X209577400Y-85160600D03*
D32*
%TO.P,U8,5,GND*%
X215622600Y-82900000D03*
%TD*%
D33*
%TO.P,C17,1*%
%TO.N,+12VA*%
X177202651Y-53312500D03*
%TO.P,C17,2*%
%TO.N,GND*%
X177202651Y-50237500D03*
%TD*%
D20*
%TO.P,R1,1*%
%TO.N,Net-(C2-Pad1)*%
X160402651Y-84950000D03*
%TO.P,R1,2*%
%TO.N,GND*%
X160402651Y-86600000D03*
%TD*%
D29*
%TO.P,C56,1*%
%TO.N,-12VA*%
X206377651Y-63375000D03*
%TO.P,C56,2*%
%TO.N,GND*%
X204827651Y-63375000D03*
%TD*%
D34*
%TO.P,U3,1,VBAT*%
%TO.N,+BATT*%
X216562500Y-103950000D03*
%TO.P,U3,2,PC13*%
%TO.N,unconnected-(U3-Pad2)*%
X216562500Y-103450000D03*
%TO.P,U3,3,PC14*%
%TO.N,unconnected-(U3-Pad3)*%
X216562500Y-102950000D03*
%TO.P,U3,4,PC15*%
%TO.N,unconnected-(U3-Pad4)*%
X216562500Y-102450000D03*
%TO.P,U3,5,PD0*%
%TO.N,Net-(C1-Pad2)*%
X216562500Y-101950000D03*
%TO.P,U3,6,PD1*%
%TO.N,Net-(C4-Pad2)*%
X216562500Y-101450000D03*
%TO.P,U3,7,NRST*%
%TO.N,/NRST*%
X216562500Y-100950000D03*
%TO.P,U3,8,VSSA*%
%TO.N,GND*%
X216562500Y-100450000D03*
%TO.P,U3,9,VDDA*%
%TO.N,+3V3*%
X216562500Y-99950000D03*
%TO.P,U3,10,PA0*%
%TO.N,unconnected-(U3-Pad10)*%
X216562500Y-99450000D03*
%TO.P,U3,11,PA1*%
%TO.N,unconnected-(U3-Pad11)*%
X216562500Y-98950000D03*
%TO.P,U3,12,PA2*%
%TO.N,unconnected-(U3-Pad12)*%
X216562500Y-98450000D03*
D35*
%TO.P,U3,13,PA3*%
%TO.N,unconnected-(U3-Pad13)*%
X215150000Y-97037500D03*
%TO.P,U3,14,PA4*%
%TO.N,unconnected-(U3-Pad14)*%
X214650000Y-97037500D03*
%TO.P,U3,15,PA5*%
%TO.N,unconnected-(U3-Pad15)*%
X214150000Y-97037500D03*
%TO.P,U3,16,PA6*%
%TO.N,unconnected-(U3-Pad16)*%
X213650000Y-97037500D03*
%TO.P,U3,17,PA7*%
%TO.N,unconnected-(U3-Pad17)*%
X213150000Y-97037500D03*
%TO.P,U3,18,PB0*%
%TO.N,unconnected-(U3-Pad18)*%
X212650000Y-97037500D03*
%TO.P,U3,19,PB1*%
%TO.N,unconnected-(U3-Pad19)*%
X212150000Y-97037500D03*
%TO.P,U3,20,PB2*%
%TO.N,unconnected-(U3-Pad20)*%
X211650000Y-97037500D03*
%TO.P,U3,21,PB10*%
%TO.N,unconnected-(U3-Pad21)*%
X211150000Y-97037500D03*
%TO.P,U3,22,PB11*%
%TO.N,unconnected-(U3-Pad22)*%
X210650000Y-97037500D03*
%TO.P,U3,23,VSS*%
%TO.N,GND*%
X210150000Y-97037500D03*
%TO.P,U3,24,VDD*%
%TO.N,+3V3*%
X209650000Y-97037500D03*
D34*
%TO.P,U3,25,PB12*%
%TO.N,SS_WM*%
X208237500Y-98450000D03*
%TO.P,U3,26,PB13*%
%TO.N,SCLK_WM*%
X208237500Y-98950000D03*
%TO.P,U3,27,PB14*%
%TO.N,MISO_WM*%
X208237500Y-99450000D03*
%TO.P,U3,28,PB15*%
%TO.N,MOSI_WM*%
X208237500Y-99950000D03*
%TO.P,U3,29,PA8*%
%TO.N,RST_WM*%
X208237500Y-100450000D03*
%TO.P,U3,30,PA9*%
%TO.N,unconnected-(U3-Pad30)*%
X208237500Y-100950000D03*
%TO.P,U3,31,PA10*%
%TO.N,unconnected-(U3-Pad31)*%
X208237500Y-101450000D03*
%TO.P,U3,32,PA11*%
%TO.N,USB_DM*%
X208237500Y-101950000D03*
%TO.P,U3,33,PA12*%
%TO.N,USB_DP*%
X208237500Y-102450000D03*
%TO.P,U3,34,PA13*%
%TO.N,SWDIO*%
X208237500Y-102950000D03*
%TO.P,U3,35,VSS*%
%TO.N,GND*%
X208237500Y-103450000D03*
%TO.P,U3,36,VDD*%
%TO.N,+3V3*%
X208237500Y-103950000D03*
D35*
%TO.P,U3,37,PA14*%
%TO.N,SWCLK*%
X209650000Y-105362500D03*
%TO.P,U3,38,PA15*%
%TO.N,unconnected-(U3-Pad38)*%
X210150000Y-105362500D03*
%TO.P,U3,39,PB3*%
%TO.N,unconnected-(U3-Pad39)*%
X210650000Y-105362500D03*
%TO.P,U3,40,PB4*%
%TO.N,unconnected-(U3-Pad40)*%
X211150000Y-105362500D03*
%TO.P,U3,41,PB5*%
%TO.N,unconnected-(U3-Pad41)*%
X211650000Y-105362500D03*
%TO.P,U3,42,PB6*%
%TO.N,unconnected-(U3-Pad42)*%
X212150000Y-105362500D03*
%TO.P,U3,43,PB7*%
%TO.N,unconnected-(U3-Pad43)*%
X212650000Y-105362500D03*
%TO.P,U3,44,BOOT0*%
%TO.N,GND*%
X213150000Y-105362500D03*
%TO.P,U3,45,PB8*%
%TO.N,unconnected-(U3-Pad45)*%
X213650000Y-105362500D03*
%TO.P,U3,46,PB9*%
%TO.N,unconnected-(U3-Pad46)*%
X214150000Y-105362500D03*
%TO.P,U3,47,VSS*%
%TO.N,GND*%
X214650000Y-105362500D03*
%TO.P,U3,48,VDD*%
%TO.N,+3V3*%
X215150000Y-105362500D03*
%TD*%
D23*
%TO.P,C64,1*%
%TO.N,Net-(C61-Pad1)*%
X225802651Y-56200000D03*
%TO.P,C64,2*%
%TO.N,GND*%
X225802651Y-57750000D03*
%TD*%
D29*
%TO.P,C73,1*%
%TO.N,+5V*%
X199315151Y-77375000D03*
%TO.P,C73,2*%
%TO.N,GND*%
X197765151Y-77375000D03*
%TD*%
D27*
%TO.P,C7,1*%
%TO.N,GND*%
X229025000Y-100600000D03*
%TO.P,C7,2*%
%TO.N,/NRST*%
X230575000Y-100600000D03*
%TD*%
D33*
%TO.P,C16,1*%
%TO.N,+12VA*%
X177202651Y-83112500D03*
%TO.P,C16,2*%
%TO.N,GND*%
X177202651Y-80037500D03*
%TD*%
D27*
%TO.P,C35,1*%
%TO.N,-12VA*%
X164027651Y-70575000D03*
%TO.P,C35,2*%
%TO.N,GND*%
X165577651Y-70575000D03*
%TD*%
D28*
%TO.P,R27,1*%
%TO.N,Net-(R27-Pad1)*%
X205977651Y-77975000D03*
%TO.P,R27,2*%
%TO.N,+5V*%
X207627651Y-77975000D03*
%TD*%
D11*
%TO.P,R24,1*%
%TO.N,GND*%
X218402651Y-57800000D03*
%TO.P,R24,2*%
%TO.N,Net-(R24-Pad2)*%
X218402651Y-56150000D03*
%TD*%
D23*
%TO.P,C42,1*%
%TO.N,-15V*%
X187802651Y-102400000D03*
%TO.P,C42,2*%
%TO.N,GND*%
X187802651Y-103950000D03*
%TD*%
D14*
%TO.P,C59,1*%
%TO.N,Net-(C59-Pad1)*%
X188402651Y-108637500D03*
%TO.P,C59,2*%
%TO.N,GND*%
X188402651Y-111712500D03*
%TD*%
D36*
%TO.P,J1,1,Pin_1*%
%TO.N,GND*%
X141000000Y-71230000D03*
D37*
%TO.P,J1,2,Pin_2*%
%TO.N,Net-(C2-Pad1)*%
X141000000Y-73770000D03*
%TD*%
D38*
%TO.P,U5,1,GND*%
%TO.N,GND*%
X166740151Y-68725000D03*
%TO.P,U5,2,VIN*%
%TO.N,-15V*%
X166740151Y-67775000D03*
%TO.P,U5,3,BYP*%
%TO.N,Net-(C34-Pad1)*%
X166740151Y-66825000D03*
%TO.P,U5,4,ADJ*%
%TO.N,Net-(R15-Pad2)*%
X164465151Y-66825000D03*
%TO.P,U5,5,VOUT*%
%TO.N,-12VA*%
X164465151Y-68725000D03*
%TD*%
D23*
%TO.P,C49,1*%
%TO.N,+12VA*%
X201202651Y-54600000D03*
%TO.P,C49,2*%
%TO.N,GND*%
X201202651Y-56150000D03*
%TD*%
D36*
%TO.P,J3,1,Pin_1*%
%TO.N,PHONO_OUT_L*%
X210400000Y-43800000D03*
D37*
%TO.P,J3,2,Pin_2*%
%TO.N,GND*%
X207860000Y-43800000D03*
%TO.P,J3,3,Pin_3*%
%TO.N,PHONO_OUT_R*%
X205320000Y-43800000D03*
%TO.P,J3,4,Pin_4*%
%TO.N,GND*%
X202780000Y-43800000D03*
%TD*%
D11*
%TO.P,R18,1*%
%TO.N,Net-(R17-Pad2)*%
X171402651Y-67400000D03*
%TO.P,R18,2*%
%TO.N,GND*%
X171402651Y-65750000D03*
%TD*%
D39*
%TO.P,C63,1*%
%TO.N,Net-(C63-Pad1)*%
X228465151Y-55375000D03*
%TO.P,C63,2*%
%TO.N,GND*%
X231540151Y-55375000D03*
%TD*%
D23*
%TO.P,C62,1*%
%TO.N,Net-(C59-Pad1)*%
X191402651Y-109400000D03*
%TO.P,C62,2*%
%TO.N,GND*%
X191402651Y-110950000D03*
%TD*%
D40*
%TO.P,U12,1,VREF*%
%TO.N,Net-(C61-Pad1)*%
X225672651Y-53725000D03*
%TO.P,U12,2,AGND*%
%TO.N,GND*%
X225672651Y-53075000D03*
%TO.P,U12,3,VCC*%
%TO.N,Net-(C63-Pad1)*%
X225672651Y-52425000D03*
%TO.P,U12,4,VDD*%
%TO.N,+3.3VA*%
X225672651Y-51775000D03*
%TO.P,U12,5,DGND*%
%TO.N,GND*%
X225672651Y-51125000D03*
%TO.P,U12,6,SCKI*%
%TO.N,SCKI_ADC*%
X225672651Y-50475000D03*
%TO.P,U12,7,LRCK*%
%TO.N,LRCK_ADC*%
X225672651Y-49825000D03*
%TO.P,U12,8,BCK*%
%TO.N,BCK_ADC*%
X219932651Y-49825000D03*
%TO.P,U12,9,DOUT*%
%TO.N,DOUT_ADC*%
X219932651Y-50475000D03*
%TO.P,U12,10,MD0*%
%TO.N,Net-(R25-Pad2)*%
X219932651Y-51125000D03*
%TO.P,U12,11,MD1*%
%TO.N,Net-(R26-Pad2)*%
X219932651Y-51775000D03*
%TO.P,U12,12,FMT*%
%TO.N,Net-(R24-Pad2)*%
X219932651Y-52425000D03*
%TO.P,U12,13,VINL*%
%TO.N,Net-(C57-Pad2)*%
X219932651Y-53075000D03*
%TO.P,U12,14,VINR*%
%TO.N,Net-(C58-Pad2)*%
X219932651Y-53725000D03*
%TD*%
D41*
%TO.P,U7,1,I/O1*%
%TO.N,USB_DM*%
X226950000Y-106462500D03*
%TO.P,U7,2,GND*%
%TO.N,GND*%
X226000000Y-106462500D03*
%TO.P,U7,3,I/O2*%
%TO.N,USB_DP*%
X225050000Y-106462500D03*
%TO.P,U7,4,I/O3*%
%TO.N,USB_D_ESD-*%
X225050000Y-108737500D03*
%TO.P,U7,5,VBUS*%
%TO.N,VBUS*%
X226000000Y-108737500D03*
%TO.P,U7,6,I/O4*%
%TO.N,USB_D_ESD+*%
X226950000Y-108737500D03*
%TD*%
D16*
%TO.P,C28,1*%
%TO.N,+3V3*%
X207537500Y-109200000D03*
%TO.P,C28,2*%
%TO.N,GND*%
X204462500Y-109200000D03*
%TD*%
D28*
%TO.P,R11,1*%
%TO.N,Net-(C15-Pad2)*%
X173777651Y-56175000D03*
%TO.P,R11,2*%
%TO.N,Net-(C23-Pad1)*%
X175427651Y-56175000D03*
%TD*%
D27*
%TO.P,C36,1*%
%TO.N,+12VA*%
X171627651Y-69375000D03*
%TO.P,C36,2*%
%TO.N,Net-(C36-Pad2)*%
X173177651Y-69375000D03*
%TD*%
D42*
%TO.P,Y1,1,1*%
%TO.N,Net-(C1-Pad2)*%
X220350000Y-102350000D03*
%TO.P,Y1,2,2*%
%TO.N,GND*%
X223250000Y-102350000D03*
%TO.P,Y1,3,3*%
%TO.N,Net-(C4-Pad2)*%
X223250000Y-100050000D03*
%TO.P,Y1,4,4*%
%TO.N,GND*%
X220350000Y-100050000D03*
%TD*%
D16*
%TO.P,C51,1*%
%TO.N,Net-(C51-Pad1)*%
X171540151Y-114775000D03*
%TO.P,C51,2*%
%TO.N,GND*%
X168465151Y-114775000D03*
%TD*%
D29*
%TO.P,C32,1*%
%TO.N,+5V*%
X211075000Y-78000000D03*
%TO.P,C32,2*%
%TO.N,GND*%
X209525000Y-78000000D03*
%TD*%
D25*
%TO.P,U2,1,NC*%
%TO.N,unconnected-(U2-Pad1)*%
X165678501Y-52670000D03*
%TO.P,U2,2,-IN*%
%TO.N,Net-(C13-Pad1)*%
X165678501Y-53940000D03*
%TO.P,U2,3,+IN*%
%TO.N,Net-(C3-Pad1)*%
X165678501Y-55210000D03*
%TO.P,U2,4,V-*%
%TO.N,-12VA*%
X165678501Y-56480000D03*
%TO.P,U2,5,NC*%
%TO.N,unconnected-(U2-Pad5)*%
X171126801Y-56480000D03*
%TO.P,U2,6,OUT*%
%TO.N,Net-(C15-Pad2)*%
X171126801Y-55210000D03*
%TO.P,U2,7,V+*%
%TO.N,+12VA*%
X171126801Y-53940000D03*
%TO.P,U2,8,NC*%
%TO.N,unconnected-(U2-Pad8)*%
X171126801Y-52670000D03*
%TD*%
D36*
%TO.P,J2,1,Pin_1*%
%TO.N,GND*%
X140800000Y-61930000D03*
D37*
%TO.P,J2,2,Pin_2*%
%TO.N,Net-(C3-Pad1)*%
X140800000Y-64470000D03*
%TD*%
D43*
%TO.P,L2,1,1*%
%TO.N,Net-(C37-Pad2)*%
X184802651Y-105375000D03*
%TO.P,L2,2,2*%
%TO.N,-15V*%
X184802651Y-102575000D03*
%TD*%
D28*
%TO.P,R10,1*%
%TO.N,Net-(C14-Pad2)*%
X173777651Y-85975000D03*
%TO.P,R10,2*%
%TO.N,Net-(C22-Pad1)*%
X175427651Y-85975000D03*
%TD*%
%TO.P,R13,1*%
%TO.N,PHONO_OUT_R*%
X192577651Y-54375000D03*
%TO.P,R13,2*%
%TO.N,GND*%
X194227651Y-54375000D03*
%TD*%
D44*
%TO.P,U10,1,SCLK*%
%TO.N,SCLK_WM*%
X218970451Y-64450000D03*
%TO.P,U10,2,GPO0/SWIFMODE*%
%TO.N,Net-(R21-Pad1)*%
X218970451Y-65100001D03*
%TO.P,U10,3,SDIN/HWMODE*%
%TO.N,MOSI_WM*%
X218970451Y-65749999D03*
%TO.P,U10,4,SDOUT/GPO2*%
%TO.N,MISO_WM*%
X218970451Y-66400001D03*
%TO.P,U10,5,CSB/GPO1*%
%TO.N,SS_WM*%
X218970451Y-67049999D03*
%TO.P,U10,6,RESETB*%
%TO.N,RST_WM*%
X218970451Y-67699998D03*
%TO.P,U10,7,PVDD*%
%TO.N,+3.3VA*%
X218970451Y-68349999D03*
%TO.P,U10,8,PGND*%
%TO.N,GND*%
X218970451Y-68999998D03*
%TO.P,U10,9,CLKOUT*%
%TO.N,unconnected-(U10-Pad9)*%
X218970451Y-69649999D03*
%TO.P,U10,10,XOP*%
%TO.N,Net-(C60-Pad2)*%
X218970451Y-70299998D03*
%TO.P,U10,11,XIN*%
%TO.N,Net-(C65-Pad2)*%
X226234851Y-70300000D03*
%TO.P,U10,12,DOUT*%
%TO.N,unconnected-(U10-Pad12)*%
X226234851Y-69650002D03*
%TO.P,U10,13,DIN*%
%TO.N,DOUT_ADC*%
X226234851Y-69000001D03*
%TO.P,U10,14,BCLK*%
%TO.N,BCK_ADC*%
X226234851Y-68350002D03*
%TO.P,U10,15,LRCLK*%
%TO.N,LRCK_ADC*%
X226234851Y-67700001D03*
%TO.P,U10,16,MCLK*%
%TO.N,SCKI_ADC*%
X226234851Y-67050002D03*
%TO.P,U10,17,TX0*%
%TO.N,Net-(J7-Pad2)*%
X226234851Y-66400001D03*
%TO.P,U10,18,DGND*%
%TO.N,GND*%
X226234851Y-65750002D03*
%TO.P,U10,19,DVDD*%
%TO.N,+3.3VA*%
X226234851Y-65100001D03*
%TO.P,U10,20,RX0*%
%TO.N,unconnected-(U10-Pad20)*%
X226234851Y-64450002D03*
%TD*%
D11*
%TO.P,R25,1*%
%TO.N,GND*%
X222402651Y-57800000D03*
%TO.P,R25,2*%
%TO.N,Net-(R25-Pad2)*%
X222402651Y-56150000D03*
%TD*%
D29*
%TO.P,C34,1*%
%TO.N,Net-(C34-Pad1)*%
X166377651Y-64775000D03*
%TO.P,C34,2*%
%TO.N,-12VA*%
X164827651Y-64775000D03*
%TD*%
D23*
%TO.P,C50,1*%
%TO.N,+3.3VA*%
X216202651Y-68400000D03*
%TO.P,C50,2*%
%TO.N,GND*%
X216202651Y-69950000D03*
%TD*%
D20*
%TO.P,R16,1*%
%TO.N,Net-(R15-Pad2)*%
X162202651Y-66950000D03*
%TO.P,R16,2*%
%TO.N,-12VA*%
X162202651Y-68600000D03*
%TD*%
D45*
%TO.P,PS1,1,+VIN*%
%TO.N,Net-(C51-Pad1)*%
X177262651Y-110762500D03*
D46*
%TO.P,PS1,2,GND*%
%TO.N,GND*%
X179802651Y-110762500D03*
%TO.P,PS1,3,+VOUT*%
%TO.N,Net-(C59-Pad1)*%
X182342651Y-110762500D03*
%TD*%
D11*
%TO.P,R22,1*%
%TO.N,Net-(C54-Pad2)*%
X213802651Y-52800000D03*
%TO.P,R22,2*%
%TO.N,Net-(C57-Pad2)*%
X213802651Y-51150000D03*
%TD*%
%TO.P,R15,1*%
%TO.N,GND*%
X160202651Y-68600000D03*
%TO.P,R15,2*%
%TO.N,Net-(R15-Pad2)*%
X160202651Y-66950000D03*
%TD*%
D47*
%TO.P,J5,A1,GND*%
%TO.N,GND*%
X219250000Y-111930000D03*
%TO.P,J5,A4,VBUS*%
%TO.N,VBUS*%
X220050000Y-111930000D03*
%TO.P,J5,A5,CC1*%
%TO.N,unconnected-(J5-PadA5)*%
X221350000Y-111930000D03*
%TO.P,J5,A6,D+*%
%TO.N,USB_D_ESD+*%
X222350000Y-111930000D03*
%TO.P,J5,A7,D-*%
%TO.N,USB_D_ESD-*%
X222850000Y-111930000D03*
%TO.P,J5,A8,SBU1*%
%TO.N,unconnected-(J5-PadA8)*%
X223850000Y-111930000D03*
%TO.P,J5,A9,VBUS*%
%TO.N,VBUS*%
X225150000Y-111930000D03*
%TO.P,J5,A12,GND*%
%TO.N,GND*%
X225950000Y-111930000D03*
%TO.P,J5,B1,GND*%
X225650000Y-111930000D03*
%TO.P,J5,B4,VBUS*%
%TO.N,VBUS*%
X224850000Y-111930000D03*
%TO.P,J5,B5,CC2*%
%TO.N,unconnected-(J5-PadB5)*%
X224350000Y-111930000D03*
%TO.P,J5,B6,D+*%
%TO.N,USB_D_ESD+*%
X223350000Y-111930000D03*
%TO.P,J5,B7,D-*%
%TO.N,USB_D_ESD-*%
X221850000Y-111930000D03*
%TO.P,J5,B8,SBU2*%
%TO.N,unconnected-(J5-PadB8)*%
X220850000Y-111930000D03*
%TO.P,J5,B9,VBUS*%
%TO.N,VBUS*%
X220350000Y-111930000D03*
%TO.P,J5,B12,GND*%
%TO.N,GND*%
X219550000Y-111930000D03*
D48*
%TO.P,J5,S1,SHIELD*%
X226920000Y-116675000D03*
D49*
X226920000Y-112495000D03*
X218280000Y-112495000D03*
D48*
X218280000Y-116675000D03*
%TD*%
D11*
%TO.P,R3,1*%
%TO.N,Net-(C5-Pad1)*%
X163802651Y-80400000D03*
%TO.P,R3,2*%
%TO.N,Net-(C12-Pad1)*%
X163802651Y-78750000D03*
%TD*%
D33*
%TO.P,C75,1*%
%TO.N,+5V*%
X201002651Y-73912500D03*
%TO.P,C75,2*%
%TO.N,GND*%
X201002651Y-70837500D03*
%TD*%
D50*
%TO.P,J4,1,Pin_1*%
%TO.N,+3V3*%
X229850000Y-93160000D03*
%TO.P,J4,2,Pin_2*%
%TO.N,SWDIO*%
X233750000Y-93160000D03*
%TO.P,J4,3,Pin_3*%
%TO.N,GND*%
X229850000Y-94430000D03*
%TO.P,J4,4,Pin_4*%
%TO.N,SWCLK*%
X233750000Y-94430000D03*
%TO.P,J4,5,Pin_5*%
%TO.N,GND*%
X229850000Y-95700000D03*
%TO.P,J4,6,Pin_6*%
%TO.N,unconnected-(J4-Pad6)*%
X233750000Y-95700000D03*
%TO.P,J4,7,Pin_7*%
%TO.N,unconnected-(J4-Pad7)*%
X229850000Y-96970000D03*
%TO.P,J4,8,Pin_8*%
%TO.N,unconnected-(J4-Pad8)*%
X233750000Y-96970000D03*
%TO.P,J4,9,Pin_9*%
%TO.N,GND*%
X229850000Y-98240000D03*
%TO.P,J4,10,Pin_10*%
%TO.N,/NRST*%
X233750000Y-98240000D03*
%TD*%
D51*
%TO.P,L3,1,1*%
%TO.N,Net-(C39-Pad1)*%
X184802651Y-97175000D03*
%TO.P,L3,2,2*%
%TO.N,+15V*%
X184802651Y-99975000D03*
%TD*%
D29*
%TO.P,C4,1*%
%TO.N,GND*%
X221775000Y-97100000D03*
%TO.P,C4,2*%
%TO.N,Net-(C4-Pad2)*%
X220225000Y-97100000D03*
%TD*%
%TO.P,C20,1*%
%TO.N,GND*%
X211400000Y-94800000D03*
%TO.P,C20,2*%
%TO.N,+3V3*%
X209850000Y-94800000D03*
%TD*%
%TO.P,C68,1*%
%TO.N,Net-(C59-Pad1)*%
X200715151Y-87975000D03*
%TO.P,C68,2*%
%TO.N,GND*%
X199165151Y-87975000D03*
%TD*%
%TO.P,C52,1*%
%TO.N,Net-(C51-Pad1)*%
X172577651Y-117975000D03*
%TO.P,C52,2*%
%TO.N,GND*%
X171027651Y-117975000D03*
%TD*%
D33*
%TO.P,C27,1*%
%TO.N,Net-(C27-Pad1)*%
X158202651Y-99712500D03*
%TO.P,C27,2*%
%TO.N,GND*%
X158202651Y-96637500D03*
%TD*%
D11*
%TO.P,R21,1*%
%TO.N,Net-(R21-Pad1)*%
X216202651Y-66000000D03*
%TO.P,R21,2*%
%TO.N,+3.3VA*%
X216202651Y-64350000D03*
%TD*%
D27*
%TO.P,C26,1*%
%TO.N,GND*%
X206025000Y-105600000D03*
%TO.P,C26,2*%
%TO.N,+3V3*%
X207575000Y-105600000D03*
%TD*%
D17*
%TO.P,C12,1*%
%TO.N,Net-(C12-Pad1)*%
X164040151Y-75575000D03*
%TO.P,C12,2*%
%TO.N,Net-(C12-Pad2)*%
X167165151Y-75575000D03*
%TD*%
D12*
%TO.P,C5,1*%
%TO.N,Net-(C5-Pad1)*%
X147300000Y-83000000D03*
D13*
%TO.P,C5,2*%
%TO.N,GND*%
X142300000Y-83000000D03*
%TD*%
D17*
%TO.P,C55,1*%
%TO.N,Net-(C55-Pad1)*%
X207840151Y-55975000D03*
%TO.P,C55,2*%
%TO.N,Net-(C55-Pad2)*%
X210965151Y-55975000D03*
%TD*%
D36*
%TO.P,J7,1,Pin_1*%
%TO.N,+3.3VA*%
X233200000Y-85000000D03*
D37*
%TO.P,J7,2,Pin_2*%
%TO.N,Net-(J7-Pad2)*%
X233200000Y-82460000D03*
%TO.P,J7,3,Pin_3*%
%TO.N,GND*%
X233200000Y-79920000D03*
%TD*%
D15*
%TO.P,FID3,*%
%TO.N,*%
X138400000Y-41400000D03*
%TD*%
D33*
%TO.P,C25,1*%
%TO.N,VCC*%
X152602651Y-99712500D03*
%TO.P,C25,2*%
%TO.N,GND*%
X152602651Y-96637500D03*
%TD*%
D39*
%TO.P,C53,1*%
%TO.N,GND*%
X203065151Y-66175000D03*
%TO.P,C53,2*%
%TO.N,-12VA*%
X206140151Y-66175000D03*
%TD*%
D12*
%TO.P,C6,1*%
%TO.N,Net-(C6-Pad1)*%
X147500000Y-52800000D03*
D13*
%TO.P,C6,2*%
%TO.N,GND*%
X142500000Y-52800000D03*
%TD*%
D12*
%TO.P,C45,1*%
%TO.N,VCC*%
X155802651Y-112375000D03*
D13*
%TO.P,C45,2*%
%TO.N,GND*%
X155802651Y-117375000D03*
%TD*%
D52*
%TO.P,SHIELD1,1,GND*%
%TO.N,GND*%
X150750000Y-93000000D03*
D53*
X150750000Y-73700000D03*
D54*
X157700000Y-93000000D03*
X175700000Y-93000000D03*
D52*
X188650000Y-93000000D03*
D55*
X188650000Y-44250000D03*
D53*
X150750000Y-61700000D03*
D54*
X157700000Y-42400000D03*
D52*
X188650000Y-42400000D03*
D56*
X152425000Y-42400000D03*
D55*
X188650000Y-91150000D03*
D54*
X163700000Y-42400000D03*
D53*
X188650000Y-67700000D03*
X150750000Y-55700000D03*
D54*
X175700000Y-42400000D03*
D53*
X150750000Y-67700000D03*
D55*
X150750000Y-44250000D03*
D56*
X152425000Y-93000000D03*
X186975000Y-42400000D03*
D53*
X188650000Y-79700000D03*
X188650000Y-49700000D03*
X150750000Y-79700000D03*
D56*
X186975000Y-93000000D03*
D53*
X150750000Y-85700000D03*
X188650000Y-61700000D03*
X188650000Y-73700000D03*
D54*
X181700000Y-93000000D03*
X169700000Y-93000000D03*
X169700000Y-42400000D03*
X163700000Y-93000000D03*
X181700000Y-42400000D03*
D52*
X150750000Y-42400000D03*
D55*
X150750000Y-91150000D03*
D53*
X188650000Y-85700000D03*
X150750000Y-49700000D03*
X188650000Y-55700000D03*
%TD*%
D57*
%TO.P,R14,1*%
%TO.N,Net-(R14-Pad1)*%
X215025000Y-78000000D03*
%TO.P,R14,2*%
%TO.N,+5V*%
X213375000Y-78000000D03*
%TD*%
D11*
%TO.P,R19,1*%
%TO.N,MOSI_WM*%
X214002651Y-66000000D03*
%TO.P,R19,2*%
%TO.N,+3.3VA*%
X214002651Y-64350000D03*
%TD*%
D23*
%TO.P,C2,1*%
%TO.N,Net-(C2-Pad1)*%
X163002651Y-85000000D03*
%TO.P,C2,2*%
%TO.N,GND*%
X163002651Y-86550000D03*
%TD*%
D28*
%TO.P,R6,1*%
%TO.N,Net-(C12-Pad1)*%
X166177651Y-79775000D03*
%TO.P,R6,2*%
%TO.N,Net-(C12-Pad2)*%
X167827651Y-79775000D03*
%TD*%
D58*
%TO.P,L1,1,1*%
%TO.N,VCC*%
X155577650Y-104175000D03*
%TO.P,L1,2,2*%
%TO.N,Net-(C27-Pad1)*%
X158827652Y-104175000D03*
%TD*%
D14*
%TO.P,C47,1*%
%TO.N,+12VA*%
X198202651Y-54637500D03*
%TO.P,C47,2*%
%TO.N,GND*%
X198202651Y-57712500D03*
%TD*%
D10*
%TO.P,C60,1*%
%TO.N,GND*%
X219002651Y-74350000D03*
%TO.P,C60,2*%
%TO.N,Net-(C60-Pad2)*%
X219002651Y-72800000D03*
%TD*%
D17*
%TO.P,C14,1*%
%TO.N,Net-(C12-Pad2)*%
X169840151Y-75575000D03*
%TO.P,C14,2*%
%TO.N,Net-(C14-Pad2)*%
X172965151Y-75575000D03*
%TD*%
D14*
%TO.P,C46,1*%
%TO.N,VCC*%
X164602651Y-111837500D03*
%TO.P,C46,2*%
%TO.N,GND*%
X164602651Y-114912500D03*
%TD*%
D10*
%TO.P,C58,1*%
%TO.N,GND*%
X216002651Y-56175000D03*
%TO.P,C58,2*%
%TO.N,Net-(C58-Pad2)*%
X216002651Y-54625000D03*
%TD*%
D39*
%TO.P,C61,1*%
%TO.N,Net-(C61-Pad1)*%
X228465151Y-59575000D03*
%TO.P,C61,2*%
%TO.N,GND*%
X231540151Y-59575000D03*
%TD*%
D29*
%TO.P,C1,1*%
%TO.N,GND*%
X221575000Y-105200000D03*
%TO.P,C1,2*%
%TO.N,Net-(C1-Pad2)*%
X220025000Y-105200000D03*
%TD*%
D28*
%TO.P,R9,1*%
%TO.N,Net-(C13-Pad2)*%
X169577651Y-49975000D03*
%TO.P,R9,2*%
%TO.N,Net-(C15-Pad2)*%
X171227651Y-49975000D03*
%TD*%
D29*
%TO.P,C24,1*%
%TO.N,GND*%
X216775000Y-107400000D03*
%TO.P,C24,2*%
%TO.N,+3V3*%
X215225000Y-107400000D03*
%TD*%
D27*
%TO.P,C71,1*%
%TO.N,+3.3VA*%
X230027651Y-66575000D03*
%TO.P,C71,2*%
%TO.N,GND*%
X231577651Y-66575000D03*
%TD*%
D28*
%TO.P,R12,1*%
%TO.N,PHONO_OUT_L*%
X192577651Y-58175000D03*
%TO.P,R12,2*%
%TO.N,GND*%
X194227651Y-58175000D03*
%TD*%
D29*
%TO.P,C29,1*%
%TO.N,Net-(C27-Pad1)*%
X165377651Y-107175000D03*
%TO.P,C29,2*%
%TO.N,GND*%
X163827651Y-107175000D03*
%TD*%
D27*
%TO.P,C21,1*%
%TO.N,GND*%
X216825000Y-96200000D03*
%TO.P,C21,2*%
%TO.N,+3V3*%
X218375000Y-96200000D03*
%TD*%
D59*
%TO.P,J6,1,Pin_1*%
%TO.N,GND*%
X141300000Y-103740000D03*
D60*
%TO.P,J6,2,Pin_2*%
%TO.N,VCC*%
X141300000Y-98660000D03*
%TD*%
D10*
%TO.P,C65,1*%
%TO.N,GND*%
X227002651Y-74350000D03*
%TO.P,C65,2*%
%TO.N,Net-(C65-Pad2)*%
X227002651Y-72800000D03*
%TD*%
D61*
%TO.P,U13,1,~{SD}*%
%TO.N,Net-(R27-Pad1)*%
X206142051Y-75397600D03*
%TO.P,U13,2,VIN*%
%TO.N,+5V*%
X207640651Y-75397600D03*
%TO.P,U13,3,VOUT*%
%TO.N,+3.3VA*%
X209164651Y-75397600D03*
%TO.P,U13,4,~{ERROR}*%
%TO.N,GND*%
X210663251Y-75397600D03*
D62*
%TO.P,U13,5,GND*%
X208402651Y-69352400D03*
%TD*%
D27*
%TO.P,C38,1*%
%TO.N,+12VA*%
X175427651Y-64575000D03*
%TO.P,C38,2*%
%TO.N,GND*%
X176977651Y-64575000D03*
%TD*%
%TO.P,C67,1*%
%TO.N,Net-(C63-Pad1)*%
X228427651Y-52375000D03*
%TO.P,C67,2*%
%TO.N,GND*%
X229977651Y-52375000D03*
%TD*%
D63*
%TO.P,U9,1*%
%TO.N,Net-(C54-Pad1)*%
X203427651Y-60500000D03*
%TO.P,U9,2,-*%
X204077651Y-60500000D03*
%TO.P,U9,3,+*%
%TO.N,PHONO_OUT_L*%
X204727651Y-60500000D03*
%TO.P,U9,4,V-*%
%TO.N,-12VA*%
X205377651Y-60500000D03*
%TO.P,U9,5,+*%
%TO.N,PHONO_OUT_R*%
X205377651Y-54775000D03*
%TO.P,U9,6,-*%
%TO.N,Net-(C55-Pad1)*%
X204727651Y-54775000D03*
%TO.P,U9,7*%
X204077651Y-54775000D03*
%TO.P,U9,8,V+*%
%TO.N,+12VA*%
X203427651Y-54775000D03*
%TD*%
D10*
%TO.P,C44,1*%
%TO.N,+15V*%
X187802651Y-100150000D03*
%TO.P,C44,2*%
%TO.N,GND*%
X187802651Y-98600000D03*
%TD*%
D20*
%TO.P,R2,1*%
%TO.N,Net-(C3-Pad1)*%
X160202651Y-55150000D03*
%TO.P,R2,2*%
%TO.N,GND*%
X160202651Y-56800000D03*
%TD*%
D10*
%TO.P,C40,1*%
%TO.N,Net-(C37-Pad2)*%
X181802651Y-103950000D03*
%TO.P,C40,2*%
%TO.N,GND*%
X181802651Y-102400000D03*
%TD*%
D23*
%TO.P,C41,1*%
%TO.N,Net-(C39-Pad1)*%
X181802651Y-98600000D03*
%TO.P,C41,2*%
%TO.N,GND*%
X181802651Y-100150000D03*
%TD*%
D29*
%TO.P,C10,1*%
%TO.N,-12VA*%
X167177651Y-88375000D03*
%TO.P,C10,2*%
%TO.N,GND*%
X165627651Y-88375000D03*
%TD*%
D64*
%TO.P,U6,1,OUT*%
%TO.N,+12VA*%
X175690151Y-66600000D03*
%TO.P,U6,2,ADJ*%
%TO.N,Net-(R17-Pad2)*%
X175690151Y-67250000D03*
%TO.P,U6,3,BYP*%
%TO.N,Net-(C36-Pad2)*%
X175690151Y-67900000D03*
%TO.P,U6,4,GND*%
%TO.N,GND*%
X175690151Y-68550000D03*
%TO.P,U6,5,~{SHDN}*%
%TO.N,+15V*%
X179915151Y-68550000D03*
%TO.P,U6,6,NC*%
%TO.N,unconnected-(U6-Pad6)*%
X179915151Y-67900000D03*
%TO.P,U6,7,NC*%
%TO.N,unconnected-(U6-Pad7)*%
X179915151Y-67250000D03*
%TO.P,U6,8,IN*%
%TO.N,+15V*%
X179915151Y-66600000D03*
%TD*%
D28*
%TO.P,R7,1*%
%TO.N,Net-(C13-Pad1)*%
X165977651Y-49975000D03*
%TO.P,R7,2*%
%TO.N,Net-(C13-Pad2)*%
X167627651Y-49975000D03*
%TD*%
D57*
%TO.P,R5,1*%
%TO.N,+3V3*%
X234525000Y-100600000D03*
%TO.P,R5,2*%
%TO.N,/NRST*%
X232875000Y-100600000D03*
%TD*%
D23*
%TO.P,C30,1*%
%TO.N,+15V*%
X182402651Y-67000000D03*
%TO.P,C30,2*%
%TO.N,GND*%
X182402651Y-68550000D03*
%TD*%
D15*
%TO.P,FID1,*%
%TO.N,*%
X235400000Y-41600000D03*
%TD*%
D33*
%TO.P,C33,1*%
%TO.N,+5V*%
X206400000Y-83537500D03*
%TO.P,C33,2*%
%TO.N,GND*%
X206400000Y-80462500D03*
%TD*%
D16*
%TO.P,C70,1*%
%TO.N,+3.3VA*%
X227000000Y-46975000D03*
%TO.P,C70,2*%
%TO.N,GND*%
X223925000Y-46975000D03*
%TD*%
D23*
%TO.P,C76,1*%
%TO.N,+3.3VA*%
X212802651Y-72200000D03*
%TO.P,C76,2*%
%TO.N,GND*%
X212802651Y-73750000D03*
%TD*%
D15*
%TO.P,FID2,*%
%TO.N,*%
X138800000Y-118600000D03*
%TD*%
D11*
%TO.P,R23,1*%
%TO.N,Net-(C55-Pad2)*%
X213802651Y-56200000D03*
%TO.P,R23,2*%
%TO.N,Net-(C58-Pad2)*%
X213802651Y-54550000D03*
%TD*%
D14*
%TO.P,C39,1*%
%TO.N,Net-(C39-Pad1)*%
X177402651Y-96837500D03*
%TO.P,C39,2*%
%TO.N,GND*%
X177402651Y-99912500D03*
%TD*%
D39*
%TO.P,C69,1*%
%TO.N,+3.3VA*%
X230065151Y-63775000D03*
%TO.P,C69,2*%
%TO.N,GND*%
X233140151Y-63775000D03*
%TD*%
D65*
%TO.N,Net-(C5-Pad1)*%
X163800000Y-81800000D03*
%TO.N,GND*%
X188400000Y-113200000D03*
X225400000Y-102400000D03*
X169800000Y-118600000D03*
X150702651Y-67775000D03*
X201802651Y-66175000D03*
X158600000Y-42400000D03*
X164600000Y-116400000D03*
X193302651Y-82275000D03*
X197402651Y-87975000D03*
X188650000Y-81350000D03*
X213900000Y-103800000D03*
X228002651Y-74375000D03*
X193302651Y-81275000D03*
X220602651Y-68975000D03*
X214600000Y-100000000D03*
X188650000Y-46350000D03*
X160402651Y-87975000D03*
X188650000Y-61350000D03*
X216100000Y-82900000D03*
X166000000Y-93000000D03*
X158200000Y-94800000D03*
X205700000Y-87500000D03*
X151000000Y-93000000D03*
X226050000Y-105025000D03*
X194302651Y-84275000D03*
X156600000Y-42400000D03*
X188650000Y-85350000D03*
X152425000Y-42400000D03*
X220402651Y-59175000D03*
X164600000Y-42400000D03*
X209600000Y-86300000D03*
X173802651Y-50775000D03*
X228000000Y-95200000D03*
X162802651Y-57975000D03*
X233002651Y-59575000D03*
X227800000Y-100600000D03*
X224202651Y-51199500D03*
X160202651Y-57975000D03*
X188650000Y-75350000D03*
X184600000Y-42400000D03*
X188650000Y-55350000D03*
X178000000Y-93000000D03*
X162600000Y-42400000D03*
X189200000Y-98600000D03*
X223400000Y-44400000D03*
X209402651Y-68975000D03*
X216602651Y-70975000D03*
X165402651Y-59775000D03*
X228602651Y-65975000D03*
X212600000Y-94800000D03*
X174002651Y-80375000D03*
X188650000Y-51350000D03*
X188650000Y-77350000D03*
X220400000Y-99600000D03*
X210400000Y-98400000D03*
X225802651Y-58975000D03*
X177402651Y-101175000D03*
X218402651Y-58975000D03*
X213800000Y-75700000D03*
X188650000Y-73350000D03*
X188650000Y-57350000D03*
X204002651Y-71175000D03*
X150750000Y-59250000D03*
X168802651Y-64575000D03*
X188650000Y-69350000D03*
X212802651Y-74775000D03*
X196252651Y-77425000D03*
X203402651Y-63575000D03*
X174000000Y-93000000D03*
X219002651Y-75575000D03*
X204200000Y-80300000D03*
X194302651Y-82275000D03*
X186600000Y-42400000D03*
X182600000Y-42400000D03*
X194202651Y-55575000D03*
X218750000Y-110750000D03*
X215200000Y-82900000D03*
X191400000Y-112400000D03*
X150750000Y-89250000D03*
X216002651Y-57375000D03*
X198402651Y-59175000D03*
X154600000Y-42400000D03*
X193302651Y-83275000D03*
X188650000Y-91350000D03*
X150750000Y-45250000D03*
X194202651Y-56975000D03*
X159202651Y-68575000D03*
X184000000Y-93000000D03*
X150750000Y-79700000D03*
X168600000Y-42400000D03*
X196002651Y-91175000D03*
X177202651Y-78375000D03*
X218100000Y-107400000D03*
X223600000Y-78800000D03*
X221800000Y-95900000D03*
X207402651Y-68975000D03*
X168000000Y-93000000D03*
X161000000Y-93000000D03*
X163000000Y-93000000D03*
X208402651Y-68975000D03*
X150750000Y-85250000D03*
X231202651Y-50375000D03*
X178600000Y-42400000D03*
X150702651Y-70297349D03*
X201202651Y-57175000D03*
X206000000Y-106900000D03*
X188650000Y-83350000D03*
X177202651Y-48775000D03*
X232602651Y-66575000D03*
X150702651Y-73297349D03*
X181802651Y-101175000D03*
X165602651Y-89775000D03*
X209700000Y-103400000D03*
X150750000Y-91250000D03*
X198202651Y-82775000D03*
X188650000Y-53350000D03*
X228000000Y-98500000D03*
X150750000Y-56250000D03*
X233002651Y-55375000D03*
X212100000Y-75700000D03*
X188650000Y-71350000D03*
X202800000Y-109200000D03*
X177202651Y-68575000D03*
X215200000Y-81900000D03*
X176600000Y-42400000D03*
X222202651Y-59175000D03*
X187800000Y-105200000D03*
X162602651Y-107175000D03*
X165602651Y-71775000D03*
X170600000Y-42400000D03*
X188650000Y-88350000D03*
X226600000Y-110775000D03*
X188650000Y-44350000D03*
X201002651Y-69575000D03*
X168600000Y-117000000D03*
X171402651Y-64575000D03*
X163002651Y-87975000D03*
X150750000Y-47250000D03*
X208402651Y-69975000D03*
X227202651Y-53375000D03*
X216100000Y-83900000D03*
X188650000Y-42400000D03*
X224200000Y-73200000D03*
X231402651Y-52375000D03*
X216002651Y-49975000D03*
X154000000Y-93000000D03*
X183800000Y-68400000D03*
X234602651Y-63775000D03*
X173802651Y-59375000D03*
X150800000Y-42600000D03*
X150750000Y-87250000D03*
X166600000Y-42400000D03*
X216700000Y-94800000D03*
X152600000Y-94800000D03*
X150750000Y-49700000D03*
X157000000Y-93000000D03*
X193302651Y-84275000D03*
X172600000Y-42400000D03*
X215200000Y-83900000D03*
X194302651Y-81275000D03*
X209400000Y-79100000D03*
X221600000Y-106400000D03*
X178202651Y-64575000D03*
X180600000Y-42400000D03*
X188650000Y-63350000D03*
X176000000Y-93000000D03*
X167000000Y-69800000D03*
X188650000Y-79350000D03*
X150750000Y-81250000D03*
X174802651Y-89375000D03*
X160600000Y-42400000D03*
X174600000Y-42400000D03*
X209402651Y-69975000D03*
X207402651Y-69975000D03*
X150750000Y-61700000D03*
X194302651Y-83275000D03*
X216100000Y-81900000D03*
X171000000Y-93000000D03*
%TO.N,-12VA*%
X167800000Y-62000000D03*
X167200000Y-86200000D03*
X163000000Y-70600000D03*
X169400000Y-57400000D03*
X167000000Y-59600000D03*
X169600000Y-87200000D03*
X162400000Y-69400000D03*
X166400000Y-62600000D03*
X163600000Y-68600000D03*
X167200000Y-89400000D03*
X205600000Y-61800000D03*
X206200000Y-66800000D03*
X169800000Y-62000000D03*
X165400000Y-63600000D03*
X167000000Y-56600000D03*
X206200000Y-65400000D03*
X206400000Y-62800000D03*
%TO.N,+12VA*%
X174400000Y-66400000D03*
X176602651Y-53575000D03*
X202800000Y-54800000D03*
X173600000Y-65000000D03*
X172460000Y-83740000D03*
X200202651Y-54575000D03*
X201202651Y-54600000D03*
X177602651Y-53575000D03*
X174202651Y-64175000D03*
X175002651Y-82575000D03*
X174802651Y-53575000D03*
X175002651Y-83575000D03*
X198202651Y-54637500D03*
X172200000Y-70800000D03*
X172400000Y-53800000D03*
%TO.N,Net-(C22-Pad1)*%
X186802651Y-68602651D03*
%TO.N,PHONO_OUT_L*%
X203602651Y-57175000D03*
%TO.N,Net-(C23-Pad1)*%
X186202651Y-51375000D03*
%TO.N,+3V3*%
X216650000Y-105975000D03*
X207962500Y-85162500D03*
X208347389Y-84022389D03*
X234600000Y-101700000D03*
X218375000Y-98025000D03*
X207600000Y-106900000D03*
X227800000Y-93200000D03*
X210575000Y-93500000D03*
%TO.N,+15V*%
X186402651Y-99975000D03*
X187802651Y-99975000D03*
X178438826Y-66938826D03*
X178513826Y-68486174D03*
X181200000Y-66600000D03*
X181200000Y-68500000D03*
X184802651Y-99975000D03*
%TO.N,-15V*%
X167525000Y-67775000D03*
X186602651Y-102575000D03*
X184802651Y-102575000D03*
X188202651Y-102575000D03*
X168626325Y-67726325D03*
%TO.N,+3.3VA*%
X228427651Y-47872349D03*
X216902651Y-62875000D03*
X228427651Y-48872349D03*
X213802651Y-72175000D03*
X224602651Y-64375000D03*
X228427651Y-49772349D03*
%TO.N,+5V*%
X202852011Y-73897989D03*
X201950000Y-80925000D03*
X217850000Y-47450000D03*
X200350000Y-79225000D03*
X201975000Y-75200000D03*
X200400000Y-77200000D03*
X217800000Y-46450000D03*
X202300000Y-78000000D03*
X212300000Y-78000000D03*
X201775000Y-76450000D03*
X205002011Y-73897989D03*
X201100000Y-77900000D03*
X199400000Y-73975000D03*
X199775000Y-75350000D03*
X204200000Y-75250000D03*
X207125640Y-73897989D03*
X209062000Y-82138000D03*
X206002011Y-73897989D03*
%TO.N,SWDIO*%
X206200000Y-102800000D03*
X233700000Y-91700000D03*
%TO.N,SWCLK*%
X211825000Y-107200000D03*
X235475000Y-94475000D03*
%TO.N,/NRST*%
X213700000Y-101175000D03*
X225875000Y-100750000D03*
%TO.N,VBUS*%
X220300000Y-110800000D03*
X225150000Y-110250000D03*
%TO.N,USB_D_ESD+*%
X228075000Y-108975000D03*
X222725000Y-113750000D03*
%TO.N,MOSI_WM*%
X217372475Y-66272475D03*
X215037500Y-86337500D03*
%TO.N,RST_WM*%
X209000000Y-65900000D03*
X211000000Y-88225000D03*
%TO.N,Net-(R24-Pad2)*%
X218208288Y-52167374D03*
X218402651Y-54975000D03*
%TO.N,SS_WM*%
X220700000Y-67600000D03*
X208225000Y-97200000D03*
%TO.N,SCLK_WM*%
X210275000Y-99700000D03*
X221500000Y-64400000D03*
%TO.N,MISO_WM*%
X220500000Y-83425000D03*
X221100000Y-65700000D03*
%TO.N,USB_DM*%
X226800000Y-103400000D03*
X210375000Y-101950000D03*
%TO.N,USB_DP*%
X212500000Y-102825000D03*
X223625000Y-105450000D03*
%TO.N,DOUT_ADC*%
X218002651Y-50575000D03*
X224602651Y-69775000D03*
%TO.N,BCK_ADC*%
X224202651Y-68575000D03*
X221402651Y-49975000D03*
%TO.N,Net-(C63-Pad1)*%
X227752651Y-52425000D03*
X222000000Y-47000000D03*
%TD*%
D66*
%TO.N,Net-(C5-Pad1)*%
X163800000Y-81800000D02*
X163800000Y-80402651D01*
X163800000Y-80402651D02*
X163802651Y-80400000D01*
%TO.N,GND*%
X209525000Y-78975000D02*
X209400000Y-79100000D01*
D67*
X229850000Y-98240000D02*
X228260000Y-98240000D01*
D68*
X168600000Y-42400000D02*
X170600000Y-42400000D01*
X161000000Y-93000000D02*
X157000000Y-93000000D01*
X176000000Y-93000000D02*
X174000000Y-93000000D01*
X166000000Y-93000000D02*
X163000000Y-93000000D01*
D69*
X219250000Y-111930000D02*
X219250000Y-111250000D01*
D67*
X221575000Y-105200000D02*
X221575000Y-106375000D01*
D68*
X184000000Y-93000000D02*
X181000000Y-93000000D01*
X197765151Y-77375000D02*
X196302651Y-77375000D01*
D66*
X201002651Y-70837500D02*
X201002651Y-69575000D01*
D68*
X172600000Y-42400000D02*
X174600000Y-42400000D01*
X150750000Y-59250000D02*
X150750000Y-61700000D01*
X171000000Y-93000000D02*
X168000000Y-93000000D01*
D66*
X177177651Y-68550000D02*
X177202651Y-68575000D01*
D69*
X218402651Y-57800000D02*
X218402651Y-58975000D01*
D66*
X210965651Y-75700000D02*
X210663251Y-75397600D01*
D69*
X208237500Y-103450000D02*
X209650000Y-103450000D01*
D66*
X194227651Y-58175000D02*
X194227651Y-57000000D01*
D69*
X216562500Y-100450000D02*
X214850000Y-100450000D01*
X223250000Y-102350000D02*
X225350000Y-102350000D01*
D68*
X174000000Y-93000000D02*
X171000000Y-93000000D01*
D69*
X214650000Y-104150000D02*
X214300000Y-103800000D01*
D66*
X165577651Y-71750000D02*
X165602651Y-71775000D01*
D68*
X160600000Y-42400000D02*
X162600000Y-42400000D01*
D69*
X225672651Y-51125000D02*
X224277151Y-51125000D01*
D66*
X165427651Y-58575000D02*
X165427651Y-59750000D01*
D68*
X186600000Y-42400000D02*
X188650000Y-42400000D01*
D66*
X209525000Y-78000000D02*
X209525000Y-78975000D01*
D68*
X188650000Y-63350000D02*
X188650000Y-69350000D01*
D66*
X171402651Y-65750000D02*
X171402651Y-64575000D01*
D68*
X150750000Y-49700000D02*
X150750000Y-47250000D01*
D70*
X181802651Y-100150000D02*
X181802651Y-101175000D01*
D67*
X204462500Y-109200000D02*
X202800000Y-109200000D01*
D66*
X166740151Y-68725000D02*
X166740151Y-69540151D01*
D69*
X211400000Y-94800000D02*
X212600000Y-94800000D01*
D66*
X231540151Y-55375000D02*
X233002651Y-55375000D01*
D68*
X188650000Y-75350000D02*
X188650000Y-77350000D01*
D66*
X212100000Y-75700000D02*
X210965651Y-75700000D01*
X205725000Y-87475000D02*
X205700000Y-87500000D01*
D68*
X181000000Y-93000000D02*
X178000000Y-93000000D01*
X188650000Y-44350000D02*
X188650000Y-46350000D01*
D71*
X163002651Y-86550000D02*
X163002651Y-87975000D01*
D66*
X229977651Y-52375000D02*
X231402651Y-52375000D01*
X229977651Y-50375000D02*
X231202651Y-50375000D01*
D69*
X220577653Y-68999998D02*
X220602651Y-68975000D01*
D66*
X173802651Y-52000000D02*
X173802651Y-50775000D01*
X204827651Y-63375000D02*
X203602651Y-63375000D01*
D68*
X152600000Y-96634849D02*
X152602651Y-96637500D01*
X188650000Y-91350000D02*
X188650000Y-93000000D01*
D66*
X177202651Y-50237500D02*
X177202651Y-48775000D01*
X216200000Y-75575000D02*
X213925000Y-75575000D01*
D69*
X213600000Y-103800000D02*
X213150000Y-104250000D01*
X222200000Y-78800000D02*
X221850000Y-78450000D01*
D71*
X173802651Y-80575000D02*
X174002651Y-80375000D01*
D69*
X224277151Y-51125000D02*
X224202651Y-51199500D01*
D68*
X151000000Y-93000000D02*
X150750000Y-93000000D01*
X188650000Y-93000000D02*
X186000000Y-93000000D01*
X150750000Y-55700000D02*
X150750000Y-56250000D01*
D69*
X210150000Y-97037500D02*
X210150000Y-98150000D01*
X210150000Y-98150000D02*
X210400000Y-98400000D01*
D68*
X188402651Y-113197349D02*
X188400000Y-113200000D01*
D69*
X226902651Y-53075000D02*
X227202651Y-53375000D01*
D66*
X206400000Y-80462500D02*
X204362500Y-80462500D01*
D68*
X150750000Y-93000000D02*
X150750000Y-91250000D01*
D69*
X213150000Y-104250000D02*
X213150000Y-105362500D01*
D66*
X227002651Y-74350000D02*
X227977651Y-74350000D01*
D68*
X170600000Y-42400000D02*
X172600000Y-42400000D01*
X166600000Y-42400000D02*
X168600000Y-42400000D01*
D67*
X229025000Y-100600000D02*
X227800000Y-100600000D01*
D68*
X174600000Y-42400000D02*
X176600000Y-42400000D01*
D69*
X226000000Y-106462500D02*
X226000000Y-105075000D01*
D67*
X221775000Y-95925000D02*
X221800000Y-95900000D01*
D71*
X163827651Y-107175000D02*
X162602651Y-107175000D01*
D69*
X218970451Y-68999998D02*
X220577653Y-68999998D01*
D68*
X188650000Y-59350000D02*
X188650000Y-61350000D01*
D66*
X198202651Y-57712500D02*
X198202651Y-58975000D01*
D68*
X188650000Y-69350000D02*
X188650000Y-71350000D01*
D66*
X160202651Y-68600000D02*
X159227651Y-68600000D01*
D68*
X180600000Y-42400000D02*
X182600000Y-42400000D01*
D69*
X209650000Y-103450000D02*
X209700000Y-103400000D01*
D68*
X157000000Y-93000000D02*
X154000000Y-93000000D01*
D69*
X226000000Y-105075000D02*
X226050000Y-105025000D01*
D66*
X207200000Y-87475000D02*
X205725000Y-87475000D01*
X216202651Y-70575000D02*
X216602651Y-70975000D01*
X204362500Y-80462500D02*
X204200000Y-80300000D01*
X169002651Y-65800000D02*
X169002651Y-64775000D01*
D67*
X216775000Y-107400000D02*
X218100000Y-107400000D01*
D66*
X169002651Y-64775000D02*
X168802651Y-64575000D01*
D68*
X188650000Y-61350000D02*
X188650000Y-63350000D01*
D66*
X198202651Y-58975000D02*
X198402651Y-59175000D01*
D68*
X150702651Y-67775000D02*
X150702651Y-70297349D01*
D66*
X162802651Y-56750000D02*
X162802651Y-57975000D01*
D68*
X150750000Y-85250000D02*
X150750000Y-81250000D01*
X164602651Y-116397349D02*
X164600000Y-116400000D01*
D69*
X225950000Y-111930000D02*
X225950000Y-111425000D01*
D66*
X165577651Y-70575000D02*
X165577651Y-71750000D01*
D69*
X218845000Y-111930000D02*
X218280000Y-112495000D01*
X221575000Y-106375000D02*
X221600000Y-106400000D01*
D68*
X188650000Y-85350000D02*
X188650000Y-88350000D01*
X164602651Y-114912500D02*
X164602651Y-116397349D01*
X182402651Y-68550000D02*
X183650000Y-68550000D01*
D69*
X226234851Y-65750002D02*
X228377653Y-65750002D01*
D66*
X166740151Y-69540151D02*
X167000000Y-69800000D01*
D68*
X188650000Y-55350000D02*
X188650000Y-57350000D01*
X200090151Y-82775000D02*
X198202651Y-82775000D01*
D71*
X172740151Y-89375000D02*
X174802651Y-89375000D01*
D68*
X152425000Y-42400000D02*
X154600000Y-42400000D01*
X150702651Y-70297349D02*
X150702651Y-73297349D01*
D66*
X233140151Y-63775000D02*
X234602651Y-63775000D01*
D71*
X165627651Y-89750000D02*
X165602651Y-89775000D01*
D68*
X188650000Y-42400000D02*
X188650000Y-44350000D01*
D71*
X160202651Y-56800000D02*
X160202651Y-57975000D01*
D68*
X162600000Y-42400000D02*
X164600000Y-42400000D01*
D66*
X194227651Y-55550000D02*
X194202651Y-55575000D01*
D67*
X221775000Y-97100000D02*
X221775000Y-95925000D01*
D71*
X165627651Y-88375000D02*
X165627651Y-89750000D01*
D68*
X178600000Y-42400000D02*
X180600000Y-42400000D01*
X188650000Y-88350000D02*
X188650000Y-91350000D01*
D69*
X216002651Y-56175000D02*
X216002651Y-57375000D01*
D68*
X182600000Y-42400000D02*
X184600000Y-42400000D01*
D69*
X206025000Y-106875000D02*
X206000000Y-106900000D01*
D71*
X177202651Y-80037500D02*
X177202651Y-78375000D01*
D68*
X188650000Y-46350000D02*
X188650000Y-51350000D01*
X171027651Y-117975000D02*
X170425000Y-117975000D01*
X188650000Y-77350000D02*
X188650000Y-79350000D01*
X188650000Y-81350000D02*
X188650000Y-83350000D01*
X191402651Y-110950000D02*
X191402651Y-112397349D01*
X187802651Y-98600000D02*
X189200000Y-98600000D01*
X170425000Y-117975000D02*
X169800000Y-118600000D01*
X199165151Y-87975000D02*
X197402651Y-87975000D01*
D67*
X216825000Y-96200000D02*
X216825000Y-94925000D01*
D68*
X150702651Y-73297349D02*
X150702651Y-73775000D01*
X164600000Y-42400000D02*
X166600000Y-42400000D01*
D69*
X222402651Y-58975000D02*
X222202651Y-59175000D01*
D68*
X188650000Y-57350000D02*
X188650000Y-59350000D01*
D66*
X231577651Y-66575000D02*
X232602651Y-66575000D01*
D68*
X223925000Y-46975000D02*
X223925000Y-44925000D01*
D70*
X177402651Y-99912500D02*
X177402651Y-101175000D01*
D71*
X160402651Y-86600000D02*
X160402651Y-87975000D01*
D68*
X168000000Y-93000000D02*
X166000000Y-93000000D01*
D67*
X228260000Y-98240000D02*
X228000000Y-98500000D01*
D68*
X154600000Y-42400000D02*
X156600000Y-42400000D01*
X187802651Y-103950000D02*
X187802651Y-105197349D01*
D67*
X229850000Y-94430000D02*
X229850000Y-95700000D01*
D68*
X154000000Y-93000000D02*
X151000000Y-93000000D01*
X196302651Y-77375000D02*
X196252651Y-77425000D01*
X188650000Y-51350000D02*
X188650000Y-53350000D01*
D69*
X220402651Y-57800000D02*
X220402651Y-59175000D01*
D67*
X229850000Y-95050000D02*
X228150000Y-95050000D01*
D68*
X188650000Y-71350000D02*
X188650000Y-73350000D01*
X188650000Y-73350000D02*
X188650000Y-75350000D01*
D69*
X213900000Y-103800000D02*
X213600000Y-103800000D01*
D66*
X231540151Y-59575000D02*
X233002651Y-59575000D01*
D68*
X150750000Y-87250000D02*
X150750000Y-85250000D01*
X191402651Y-112397349D02*
X191400000Y-112400000D01*
D69*
X214650000Y-105362500D02*
X214650000Y-104150000D01*
X226355000Y-111930000D02*
X226920000Y-112495000D01*
D66*
X219002651Y-74350000D02*
X219002651Y-75575000D01*
X159227651Y-68600000D02*
X159202651Y-68575000D01*
X203602651Y-63375000D02*
X203402651Y-63575000D01*
D69*
X221850000Y-78450000D02*
X221850000Y-76450000D01*
D68*
X156600000Y-42400000D02*
X158600000Y-42400000D01*
X168465151Y-116865151D02*
X168600000Y-117000000D01*
X183650000Y-68550000D02*
X183800000Y-68400000D01*
D67*
X229850000Y-94430000D02*
X229850000Y-95050000D01*
D69*
X225650000Y-111930000D02*
X226355000Y-111930000D01*
D66*
X172540151Y-59375000D02*
X173802651Y-59375000D01*
D69*
X216825000Y-94925000D02*
X216700000Y-94800000D01*
D68*
X168465151Y-114775000D02*
X168465151Y-116865151D01*
D67*
X228150000Y-95050000D02*
X228000000Y-95200000D01*
D68*
X197465151Y-91175000D02*
X196002651Y-91175000D01*
X188650000Y-53350000D02*
X188650000Y-55350000D01*
X158600000Y-42400000D02*
X160600000Y-42400000D01*
D69*
X219250000Y-111930000D02*
X218845000Y-111930000D01*
D66*
X201202651Y-56150000D02*
X201202651Y-57175000D01*
D69*
X225802651Y-57750000D02*
X225802651Y-58975000D01*
D66*
X175690151Y-68550000D02*
X177177651Y-68550000D01*
X216202651Y-69950000D02*
X216202651Y-70575000D01*
X212802651Y-73750000D02*
X212802651Y-74775000D01*
D68*
X188650000Y-79350000D02*
X188650000Y-81350000D01*
X178000000Y-93000000D02*
X176000000Y-93000000D01*
X223925000Y-44925000D02*
X223400000Y-44400000D01*
D66*
X194227651Y-54375000D02*
X194227651Y-55550000D01*
D68*
X184600000Y-42400000D02*
X186600000Y-42400000D01*
D66*
X209577400Y-85160600D02*
X209577400Y-86277400D01*
D68*
X176600000Y-42400000D02*
X178600000Y-42400000D01*
X150750000Y-47250000D02*
X150750000Y-45250000D01*
D69*
X214300000Y-103800000D02*
X213900000Y-103800000D01*
D70*
X181802651Y-101175000D02*
X181802651Y-102400000D01*
D66*
X213925000Y-75575000D02*
X213800000Y-75700000D01*
D70*
X177402651Y-101175000D02*
X177402651Y-102637500D01*
D69*
X216002651Y-51200000D02*
X216002651Y-49975000D01*
D68*
X186000000Y-93000000D02*
X184000000Y-93000000D01*
D67*
X229850000Y-95050000D02*
X229850000Y-95700000D01*
D69*
X228377653Y-65750002D02*
X228602651Y-65975000D01*
D68*
X188650000Y-83350000D02*
X188650000Y-85350000D01*
D66*
X203065151Y-66175000D02*
X201802651Y-66175000D01*
D68*
X150750000Y-81250000D02*
X150750000Y-79700000D01*
X150750000Y-91250000D02*
X150750000Y-89250000D01*
D69*
X222402651Y-57800000D02*
X222402651Y-58975000D01*
X225350000Y-102350000D02*
X225400000Y-102400000D01*
D68*
X150750000Y-45250000D02*
X150750000Y-44250000D01*
D66*
X176977651Y-64575000D02*
X178202651Y-64575000D01*
D69*
X219250000Y-111250000D02*
X218750000Y-110750000D01*
D66*
X204002651Y-72400000D02*
X204002651Y-71175000D01*
D68*
X158200000Y-94800000D02*
X158200000Y-96634849D01*
D69*
X225672651Y-53075000D02*
X226902651Y-53075000D01*
D71*
X173802651Y-81800000D02*
X173802651Y-80575000D01*
D66*
X227977651Y-74350000D02*
X228002651Y-74375000D01*
D69*
X225950000Y-111425000D02*
X226600000Y-110775000D01*
X223600000Y-78800000D02*
X222200000Y-78800000D01*
D66*
X165427651Y-59750000D02*
X165402651Y-59775000D01*
D68*
X163000000Y-93000000D02*
X161000000Y-93000000D01*
D69*
X214850000Y-100450000D02*
X214800000Y-100400000D01*
D68*
X188402651Y-111712500D02*
X188402651Y-113197349D01*
D67*
X206025000Y-105600000D02*
X206025000Y-106875000D01*
D68*
X187802651Y-105197349D02*
X187800000Y-105200000D01*
D66*
X209577400Y-86277400D02*
X209600000Y-86300000D01*
D68*
X150750000Y-56250000D02*
X150750000Y-59250000D01*
D66*
X194227651Y-57000000D02*
X194202651Y-56975000D01*
D68*
X158200000Y-96634849D02*
X158202651Y-96637500D01*
X150750000Y-89250000D02*
X150750000Y-87250000D01*
X152600000Y-94800000D02*
X152600000Y-96634849D01*
D66*
%TO.N,Net-(C6-Pad1)*%
X162600000Y-52800000D02*
X163602651Y-51797349D01*
X147500000Y-52800000D02*
X162600000Y-52800000D01*
X163602651Y-51797349D02*
X163602651Y-50600000D01*
D67*
%TO.N,-12VA*%
X206377651Y-63375000D02*
X206377651Y-62822349D01*
D66*
X163025000Y-70575000D02*
X163000000Y-70600000D01*
X162202651Y-68600000D02*
X162202651Y-69202651D01*
D67*
X206140151Y-66175000D02*
X206140151Y-65459849D01*
D66*
X164827651Y-64172349D02*
X165400000Y-63600000D01*
X169665151Y-87265151D02*
X169600000Y-87200000D01*
D67*
X206140151Y-65459849D02*
X206200000Y-65400000D01*
D66*
X164827651Y-64775000D02*
X164827651Y-64172349D01*
X169465151Y-59375000D02*
X169465151Y-57465151D01*
X167177651Y-89377651D02*
X167200000Y-89400000D01*
D67*
X206377651Y-62822349D02*
X206400000Y-62800000D01*
D66*
X164027651Y-70575000D02*
X163025000Y-70575000D01*
X166977651Y-59577651D02*
X167000000Y-59600000D01*
X165678501Y-56480000D02*
X166880000Y-56480000D01*
X166880000Y-56480000D02*
X167000000Y-56600000D01*
X163725000Y-68725000D02*
X163600000Y-68600000D01*
D67*
X205377651Y-61577651D02*
X205600000Y-61800000D01*
D66*
X162202651Y-69202651D02*
X162400000Y-69400000D01*
X167120000Y-86280000D02*
X167200000Y-86200000D01*
X164465151Y-68725000D02*
X163725000Y-68725000D01*
X166977651Y-58575000D02*
X166977651Y-59577651D01*
X169465151Y-57465151D02*
X169400000Y-57400000D01*
X165878501Y-86280000D02*
X167120000Y-86280000D01*
X167177651Y-88375000D02*
X167177651Y-89377651D01*
X169665151Y-89175000D02*
X169665151Y-87265151D01*
D67*
X205377651Y-60500000D02*
X205377651Y-61577651D01*
D71*
%TO.N,Net-(C12-Pad1)*%
X165878501Y-83740000D02*
X167437651Y-83740000D01*
X164040151Y-78512500D02*
X163802651Y-78750000D01*
X165040151Y-77612500D02*
X164040151Y-77612500D01*
X166177651Y-78750000D02*
X165040151Y-77612500D01*
X166177651Y-79775000D02*
X166177651Y-78750000D01*
X166177651Y-79775000D02*
X166177651Y-80750000D01*
X168002651Y-83175000D02*
X168002651Y-81775000D01*
X167202651Y-80975000D02*
X166402651Y-80975000D01*
X166177651Y-80750000D02*
X166402651Y-80975000D01*
X164040151Y-77612500D02*
X164040151Y-78512500D01*
X168002651Y-81775000D02*
X167202651Y-80975000D01*
X167437651Y-83740000D02*
X168002651Y-83175000D01*
X164040151Y-75575000D02*
X164040151Y-77612500D01*
%TO.N,Net-(C12-Pad2)*%
X169840151Y-75575000D02*
X169840151Y-79712500D01*
X169840151Y-79712500D02*
X169777651Y-79775000D01*
X169840151Y-75575000D02*
X167165151Y-75575000D01*
X169777651Y-79775000D02*
X167827651Y-79775000D01*
%TO.N,Net-(C13-Pad1)*%
X163840151Y-48712500D02*
X163602651Y-48950000D01*
X167202651Y-53375000D02*
X166637651Y-53940000D01*
X165977651Y-50950000D02*
X167202651Y-52175000D01*
X166637651Y-53940000D02*
X165678501Y-53940000D01*
X165977651Y-49975000D02*
X165977651Y-50950000D01*
X163840151Y-45775000D02*
X163840151Y-48712500D01*
X167202651Y-52175000D02*
X167202651Y-53375000D01*
X165977651Y-49975000D02*
X165977651Y-48950000D01*
X165977651Y-48950000D02*
X163602651Y-48950000D01*
%TO.N,Net-(C13-Pad2)*%
X169577651Y-45837500D02*
X169640151Y-45775000D01*
X167627651Y-49975000D02*
X169577651Y-49975000D01*
X169577651Y-49975000D02*
X169577651Y-45837500D01*
X166965151Y-45775000D02*
X169640151Y-45775000D01*
%TO.N,Net-(C14-Pad2)*%
X171427651Y-80750000D02*
X171002651Y-81175000D01*
X172402651Y-79775000D02*
X171427651Y-79775000D01*
X169402651Y-82175000D02*
X170402651Y-81175000D01*
X169402651Y-84375000D02*
X169402651Y-82175000D01*
X171326801Y-85010000D02*
X170037651Y-85010000D01*
X170037651Y-85010000D02*
X169402651Y-84375000D01*
X170402651Y-81175000D02*
X171002651Y-81175000D01*
X172965151Y-79212500D02*
X172402651Y-79775000D01*
X173437651Y-85010000D02*
X173777651Y-85350000D01*
X171326801Y-85010000D02*
X173437651Y-85010000D01*
X172965151Y-75575000D02*
X172965151Y-79212500D01*
X171427651Y-79775000D02*
X171427651Y-80750000D01*
X173777651Y-85350000D02*
X173777651Y-85975000D01*
%TO.N,Net-(C15-Pad2)*%
X169837651Y-55210000D02*
X171126801Y-55210000D01*
X172202651Y-49975000D02*
X172765151Y-49412500D01*
X169202651Y-54575000D02*
X169837651Y-55210000D01*
X172765151Y-49412500D02*
X172765151Y-45775000D01*
X169202651Y-52375000D02*
X169202651Y-54575000D01*
X170402651Y-51575000D02*
X170002651Y-51575000D01*
X171126801Y-55210000D02*
X173237651Y-55210000D01*
X171227651Y-49975000D02*
X172202651Y-49975000D01*
X170002651Y-51575000D02*
X169202651Y-52375000D01*
X173237651Y-55210000D02*
X173777651Y-55750000D01*
X173777651Y-55750000D02*
X173777651Y-56175000D01*
X171227651Y-50750000D02*
X170402651Y-51575000D01*
X171227651Y-49975000D02*
X171227651Y-50750000D01*
D66*
%TO.N,+12VA*%
X175540151Y-83112500D02*
X175002651Y-82575000D01*
D71*
X171627651Y-70227651D02*
X172200000Y-70800000D01*
D66*
X171126801Y-53940000D02*
X172260000Y-53940000D01*
X177202651Y-83112500D02*
X175540151Y-83112500D01*
D71*
X171326801Y-83740000D02*
X172460000Y-83740000D01*
D66*
X172625000Y-53575000D02*
X172400000Y-53800000D01*
X173402651Y-65197349D02*
X173600000Y-65000000D01*
D71*
X174777651Y-83350000D02*
X175002651Y-83575000D01*
D67*
X203427651Y-54775000D02*
X202825000Y-54775000D01*
D66*
X175427651Y-64575000D02*
X174602651Y-64575000D01*
D67*
X174600000Y-66600000D02*
X174400000Y-66400000D01*
X202825000Y-54775000D02*
X202800000Y-54800000D01*
D70*
X198240151Y-54600000D02*
X198202651Y-54637500D01*
D67*
X175690151Y-66600000D02*
X174600000Y-66600000D01*
D66*
X172260000Y-53940000D02*
X172400000Y-53800000D01*
X174602651Y-64575000D02*
X174202651Y-64175000D01*
X173402651Y-65750000D02*
X173402651Y-65197349D01*
D71*
X173802651Y-83350000D02*
X174777651Y-83350000D01*
X173412651Y-83740000D02*
X173802651Y-83350000D01*
D66*
X177602651Y-53575000D02*
X172625000Y-53575000D01*
D71*
X172460000Y-83740000D02*
X173412651Y-83740000D01*
D70*
X201202651Y-54600000D02*
X198240151Y-54600000D01*
D71*
X171627651Y-69375000D02*
X171627651Y-70227651D01*
D68*
%TO.N,Net-(C22-Pad1)*%
X181200000Y-74000000D02*
X181200000Y-84000000D01*
X186802651Y-68602651D02*
X186597349Y-68602651D01*
X175427651Y-85975000D02*
X178802651Y-85975000D01*
X186597349Y-68602651D02*
X181200000Y-74000000D01*
X181200000Y-84000000D02*
X179225000Y-85975000D01*
X179225000Y-85975000D02*
X178802651Y-85975000D01*
%TO.N,PHONO_OUT_L*%
X196002651Y-61975000D02*
X193602651Y-61975000D01*
X193602651Y-61975000D02*
X192577651Y-60950000D01*
X192577651Y-60950000D02*
X192577651Y-58175000D01*
D69*
X204202651Y-62375000D02*
X200802651Y-62375000D01*
D68*
X197800000Y-65775000D02*
X197800000Y-63772349D01*
D69*
X200802651Y-59975000D02*
X203602651Y-57175000D01*
X200802651Y-62375000D02*
X200802651Y-60175000D01*
X200802651Y-62375000D02*
X198202651Y-62375000D01*
D68*
X197302651Y-63275000D02*
X196002651Y-61975000D01*
D69*
X198202651Y-62375000D02*
X197302651Y-63275000D01*
D68*
X197800000Y-63772349D02*
X197302651Y-63275000D01*
D69*
X200802651Y-60175000D02*
X200802651Y-59975000D01*
X204727651Y-61850000D02*
X204202651Y-62375000D01*
X204727651Y-60500000D02*
X204727651Y-61850000D01*
D68*
%TO.N,Net-(C23-Pad1)*%
X181002651Y-56175000D02*
X181402651Y-56175000D01*
X181402651Y-56175000D02*
X186202651Y-51375000D01*
X175427651Y-56175000D02*
X181002651Y-56175000D01*
D67*
%TO.N,PHONO_OUT_R*%
X205377651Y-50150000D02*
X205063825Y-49836175D01*
X205377651Y-54775000D02*
X205377651Y-50150000D01*
X205063825Y-49836175D02*
X204302651Y-49075000D01*
D66*
X205320000Y-47480000D02*
X204013826Y-48786174D01*
X205320000Y-43800000D02*
X205320000Y-47480000D01*
D68*
X194202651Y-50575000D02*
X196602651Y-50575000D01*
D67*
X204302651Y-49075000D02*
X204013826Y-48786174D01*
D68*
X197800000Y-49377651D02*
X196602651Y-50575000D01*
D66*
X204013826Y-48786174D02*
X203202651Y-47975000D01*
D68*
X197800000Y-47975000D02*
X197800000Y-49377651D01*
D66*
X203202651Y-47975000D02*
X197800000Y-47975000D01*
D68*
X192577651Y-54375000D02*
X192577651Y-52200000D01*
X192577651Y-52200000D02*
X194202651Y-50575000D01*
D70*
%TO.N,VCC*%
X145660000Y-98660000D02*
X141300000Y-98660000D01*
X146712500Y-99712500D02*
X145660000Y-98660000D01*
X152602651Y-99712500D02*
X146712500Y-99712500D01*
D69*
%TO.N,+3V3*%
X208237500Y-104937500D02*
X207575000Y-105600000D01*
D67*
X215150000Y-106525000D02*
X216100000Y-106525000D01*
D69*
X215400000Y-98309994D02*
X216109994Y-97600000D01*
X209650000Y-97037500D02*
X209650000Y-95000000D01*
D67*
X218375000Y-98025000D02*
X218375000Y-96200000D01*
X234525000Y-101625000D02*
X234600000Y-101700000D01*
D71*
X207200000Y-85925000D02*
X207962500Y-85162500D01*
D67*
X207537500Y-109200000D02*
X207537500Y-106962500D01*
X207575000Y-105600000D02*
X207575000Y-106875000D01*
D69*
X207537500Y-106962500D02*
X207600000Y-106900000D01*
X208237500Y-103950000D02*
X208237500Y-104937500D01*
X216109994Y-97600000D02*
X217950000Y-97600000D01*
D67*
X209850000Y-94800000D02*
X209850000Y-94225000D01*
X229850000Y-93160000D02*
X227840000Y-93160000D01*
X216100000Y-106525000D02*
X216650000Y-105975000D01*
D69*
X215400000Y-99590006D02*
X215400000Y-98309994D01*
X215759994Y-99950000D02*
X215400000Y-99590006D01*
X215150000Y-105362500D02*
X215150000Y-106525000D01*
D67*
X209650000Y-95000000D02*
X209850000Y-94800000D01*
D71*
X208347389Y-84022389D02*
X208707778Y-83662000D01*
D69*
X216562500Y-99950000D02*
X215759994Y-99950000D01*
D67*
X215150000Y-106525000D02*
X215150000Y-107325000D01*
X209850000Y-94225000D02*
X210575000Y-93500000D01*
D69*
X207575000Y-106875000D02*
X207600000Y-106900000D01*
X217950000Y-97600000D02*
X218375000Y-98025000D01*
D67*
X234525000Y-100600000D02*
X234525000Y-101625000D01*
X215150000Y-107325000D02*
X215225000Y-107400000D01*
X227840000Y-93160000D02*
X227800000Y-93200000D01*
D71*
X208707778Y-83662000D02*
X209577400Y-83662000D01*
D66*
%TO.N,+15V*%
X181627651Y-66600000D02*
X181200000Y-66600000D01*
X182402651Y-67000000D02*
X182027651Y-67000000D01*
X178577651Y-68550000D02*
X178513826Y-68486174D01*
X178202651Y-68175000D02*
X178202651Y-67175000D01*
X178202651Y-67175000D02*
X178438826Y-66938826D01*
X178777651Y-66600000D02*
X179915151Y-66600000D01*
X178438826Y-66938826D02*
X178777651Y-66600000D01*
X181150000Y-68550000D02*
X181200000Y-68500000D01*
X179915151Y-68550000D02*
X181150000Y-68550000D01*
X182027651Y-67000000D02*
X181627651Y-66600000D01*
X178513826Y-68486174D02*
X178202651Y-68175000D01*
X181200000Y-66600000D02*
X179915151Y-66600000D01*
X179915151Y-68550000D02*
X178577651Y-68550000D01*
D71*
%TO.N,-15V*%
X166740151Y-67775000D02*
X167525000Y-67775000D01*
X168626325Y-67726325D02*
X169002651Y-67350000D01*
D67*
%TO.N,+3.3VA*%
X228427651Y-47872349D02*
X228427651Y-47227651D01*
X224927652Y-65100001D02*
X224602651Y-64775000D01*
X218970451Y-68349999D02*
X217777650Y-68349999D01*
X228427651Y-47227651D02*
X228175000Y-46975000D01*
D71*
X213802651Y-72175000D02*
X215875000Y-72175000D01*
D67*
X228175000Y-46975000D02*
X227000000Y-46975000D01*
X226234851Y-65100001D02*
X229977652Y-65100001D01*
X227602651Y-50375000D02*
X228427651Y-50375000D01*
D66*
X214002651Y-64350000D02*
X214002651Y-63175000D01*
D68*
X209164651Y-73613000D02*
X209164651Y-75397600D01*
X213802651Y-72175000D02*
X212827651Y-72175000D01*
D66*
X230027651Y-66575000D02*
X230027651Y-65150000D01*
X214002651Y-63175000D02*
X214302651Y-62875000D01*
X230027651Y-63812500D02*
X230065151Y-63775000D01*
X216202651Y-64350000D02*
X211802651Y-64350000D01*
D67*
X229977652Y-65100001D02*
X230027651Y-65150000D01*
D66*
X216227651Y-68375000D02*
X216202651Y-68400000D01*
X228465151Y-50337500D02*
X228427651Y-50375000D01*
D71*
X215875000Y-72175000D02*
X216200000Y-72500000D01*
D67*
X227202651Y-50775000D02*
X227602651Y-50375000D01*
X228427651Y-50375000D02*
X228427651Y-49772349D01*
X226602651Y-51775000D02*
X227202651Y-51175000D01*
D71*
X213802651Y-69175000D02*
X214577651Y-68400000D01*
D66*
X214302651Y-62875000D02*
X216902651Y-62875000D01*
D68*
X212802651Y-72200000D02*
X210577651Y-72200000D01*
D67*
X226234851Y-65100001D02*
X224927652Y-65100001D01*
D71*
X213802651Y-69175000D02*
X213802651Y-72175000D01*
D67*
X227202651Y-51175000D02*
X227202651Y-50775000D01*
D66*
X230027651Y-65150000D02*
X230027651Y-63812500D01*
D67*
X224602651Y-64775000D02*
X224602651Y-64375000D01*
X225672651Y-51775000D02*
X226602651Y-51775000D01*
X216202651Y-68400000D02*
X216252652Y-68349999D01*
X216252652Y-68349999D02*
X218027652Y-68349999D01*
D66*
X212827651Y-72175000D02*
X212802651Y-72200000D01*
D67*
X228427651Y-49772349D02*
X228427651Y-48872349D01*
D71*
X214577651Y-68400000D02*
X216202651Y-68400000D01*
D68*
X210577651Y-72200000D02*
X209164651Y-73613000D01*
D67*
X228427651Y-48872349D02*
X228427651Y-47872349D01*
D68*
%TO.N,+5V*%
X206400000Y-83100000D02*
X206400000Y-83537500D01*
X207640651Y-74413000D02*
X207640651Y-75397600D01*
X207362000Y-82138000D02*
X206400000Y-83100000D01*
X207640651Y-75397600D02*
X207640651Y-77962000D01*
X212300000Y-78000000D02*
X213375000Y-78000000D01*
X209577400Y-82138000D02*
X209062000Y-82138000D01*
X202852011Y-73897989D02*
X205002011Y-73897989D01*
X205002011Y-73897989D02*
X206002011Y-73897989D01*
X207125640Y-73897989D02*
X207640651Y-74413000D01*
X201002651Y-73912500D02*
X201017162Y-73897989D01*
X201017162Y-73897989D02*
X202852011Y-73897989D01*
X207640651Y-77962000D02*
X207627651Y-77975000D01*
X209062000Y-82138000D02*
X207362000Y-82138000D01*
X211075000Y-78000000D02*
X212300000Y-78000000D01*
X206002011Y-73897989D02*
X207125640Y-73897989D01*
D71*
%TO.N,Net-(C34-Pad1)*%
X166377651Y-64775000D02*
X166377651Y-65350000D01*
X166740151Y-66825000D02*
X166740151Y-65712500D01*
X166740151Y-65712500D02*
X166377651Y-65350000D01*
D66*
%TO.N,Net-(C55-Pad2)*%
X211190151Y-56200000D02*
X210965151Y-55975000D01*
X213802651Y-56200000D02*
X211190151Y-56200000D01*
%TO.N,Net-(C2-Pad1)*%
X161800000Y-79600000D02*
X161800000Y-85000000D01*
X149200000Y-76800000D02*
X159000000Y-76800000D01*
D71*
X163002651Y-85000000D02*
X165868501Y-85000000D01*
D66*
X159000000Y-76800000D02*
X161800000Y-79600000D01*
D71*
X160452651Y-85000000D02*
X160402651Y-84950000D01*
X165868501Y-85000000D02*
X165878501Y-85010000D01*
D66*
X146170000Y-73770000D02*
X149200000Y-76800000D01*
D71*
X161800000Y-85000000D02*
X160452651Y-85000000D01*
X163002651Y-85000000D02*
X161800000Y-85000000D01*
D66*
X141000000Y-73770000D02*
X146170000Y-73770000D01*
%TO.N,Net-(C3-Pad1)*%
X160202651Y-55150000D02*
X160650000Y-55150000D01*
X153530000Y-64470000D02*
X157200000Y-60800000D01*
X157200000Y-56400000D02*
X158450000Y-55150000D01*
X160650000Y-55150000D02*
X162752651Y-55150000D01*
X158450000Y-55150000D02*
X160650000Y-55150000D01*
X140800000Y-64470000D02*
X153530000Y-64470000D01*
X157200000Y-60800000D02*
X157200000Y-56400000D01*
X165678501Y-55210000D02*
X162812651Y-55210000D01*
X162812651Y-55210000D02*
X162802651Y-55200000D01*
X162752651Y-55150000D02*
X162802651Y-55200000D01*
D69*
%TO.N,SWDIO*%
X206350000Y-102950000D02*
X206200000Y-102800000D01*
X233700000Y-91700000D02*
X233700000Y-93110000D01*
X208237500Y-102950000D02*
X206350000Y-102950000D01*
X233700000Y-93110000D02*
X233750000Y-93160000D01*
%TO.N,SWCLK*%
X210684994Y-107200000D02*
X211825000Y-107200000D01*
X233750000Y-94430000D02*
X235430000Y-94430000D01*
X209650000Y-105362500D02*
X209650000Y-106165006D01*
X209650000Y-106165006D02*
X210684994Y-107200000D01*
X235430000Y-94430000D02*
X235475000Y-94475000D01*
%TO.N,/NRST*%
X216562500Y-100950000D02*
X215274614Y-100950000D01*
X215049614Y-101175000D02*
X213700000Y-101175000D01*
D67*
X231700000Y-99300000D02*
X231700000Y-100600000D01*
X231700000Y-100600000D02*
X230575000Y-100600000D01*
D69*
X215274614Y-100950000D02*
X215049614Y-101175000D01*
D67*
X227325000Y-99300000D02*
X225875000Y-100750000D01*
X232760000Y-98240000D02*
X231700000Y-99300000D01*
X233750000Y-98240000D02*
X232760000Y-98240000D01*
X232875000Y-100600000D02*
X231700000Y-100600000D01*
X231700000Y-99300000D02*
X227325000Y-99300000D01*
D69*
%TO.N,VBUS*%
X226000000Y-109400000D02*
X225150000Y-110250000D01*
X220350000Y-110850000D02*
X220300000Y-110800000D01*
X226000000Y-108737500D02*
X226000000Y-109400000D01*
X225150000Y-110250000D02*
X225150000Y-111930000D01*
X220350000Y-111930000D02*
X220350000Y-110850000D01*
%TO.N,USB_D_ESD+*%
X227837500Y-108737500D02*
X228075000Y-108975000D01*
X226950000Y-108737500D02*
X227837500Y-108737500D01*
X222350000Y-111930000D02*
X222350000Y-113050000D01*
X222725000Y-113750000D02*
X222675000Y-113700000D01*
X222675000Y-113700000D02*
X222675000Y-113200000D01*
X223350000Y-112850000D02*
X223350000Y-111930000D01*
X222500000Y-113200000D02*
X222675000Y-113200000D01*
X223000000Y-113200000D02*
X223350000Y-112850000D01*
X222675000Y-113200000D02*
X223000000Y-113200000D01*
X222350000Y-113050000D02*
X222500000Y-113200000D01*
%TO.N,USB_D_ESD-*%
X222850000Y-111930000D02*
X222850000Y-110875000D01*
X221850000Y-110675000D02*
X221850000Y-111930000D01*
X222850000Y-110875000D02*
X222650000Y-110675000D01*
X225050000Y-108737500D02*
X223262500Y-108737500D01*
X221850000Y-110150000D02*
X221850000Y-110675000D01*
X223262500Y-108737500D02*
X221850000Y-110150000D01*
X222650000Y-110675000D02*
X221850000Y-110675000D01*
D67*
%TO.N,Net-(J7-Pad2)*%
X230300000Y-68803029D02*
X230300000Y-81950000D01*
X230300000Y-81950000D02*
X230810000Y-82460000D01*
X230810000Y-82460000D02*
X233200000Y-82460000D01*
X226234851Y-66400001D02*
X227896972Y-66400001D01*
X227896972Y-66400001D02*
X230300000Y-68803029D01*
D69*
%TO.N,MOSI_WM*%
X205500000Y-99000000D02*
X206450000Y-99950000D01*
X214827651Y-66000000D02*
X214002651Y-66000000D01*
X216869950Y-66775000D02*
X215602651Y-66775000D01*
X217372475Y-66272475D02*
X216869950Y-66775000D01*
X218970451Y-65749999D02*
X217894951Y-65749999D01*
X211750000Y-89625000D02*
X209925000Y-89625000D01*
X205500000Y-94050000D02*
X205500000Y-99000000D01*
X217894951Y-65749999D02*
X217372475Y-66272475D01*
X215602651Y-66775000D02*
X214827651Y-66000000D01*
X209925000Y-89625000D02*
X205500000Y-94050000D01*
X215037500Y-86337500D02*
X211750000Y-89625000D01*
X206450000Y-99950000D02*
X208237500Y-99950000D01*
%TO.N,RST_WM*%
X211702651Y-65900000D02*
X209000000Y-65900000D01*
X217527649Y-67699998D02*
X217202651Y-67375000D01*
X211802651Y-66775000D02*
X211802651Y-66000000D01*
X211802651Y-66000000D02*
X211702651Y-65900000D01*
X204400000Y-99575000D02*
X205275000Y-100450000D01*
X217202651Y-67375000D02*
X212402651Y-67375000D01*
X205275000Y-100450000D02*
X208237500Y-100450000D01*
X209025000Y-88225000D02*
X204400000Y-92850000D01*
X218970451Y-67699998D02*
X217527649Y-67699998D01*
X204400000Y-92850000D02*
X204400000Y-99575000D01*
X211000000Y-88225000D02*
X209025000Y-88225000D01*
X212402651Y-67375000D02*
X211802651Y-66775000D01*
%TO.N,Net-(R21-Pad1)*%
X216677650Y-65100001D02*
X218970451Y-65100001D01*
X216202651Y-66000000D02*
X216202651Y-65575000D01*
X216202651Y-65575000D02*
X216677650Y-65100001D01*
%TO.N,Net-(R24-Pad2)*%
X219932651Y-52425000D02*
X218465914Y-52425000D01*
X218465914Y-52425000D02*
X218208288Y-52167374D01*
X218402651Y-54975000D02*
X218402651Y-56150000D01*
%TO.N,Net-(R25-Pad2)*%
X219932651Y-51125000D02*
X220988369Y-51125000D01*
X221852171Y-51988803D02*
X221852171Y-54725480D01*
X220988369Y-51125000D02*
X221852171Y-51988803D01*
X222402651Y-55275960D02*
X222402651Y-56150000D01*
X221852171Y-54725480D02*
X222402651Y-55275960D01*
%TO.N,Net-(R26-Pad2)*%
X221402651Y-54175000D02*
X220402651Y-55175000D01*
X219932651Y-51775000D02*
X221002651Y-51775000D01*
X220402651Y-55175000D02*
X220402651Y-56150000D01*
X221002651Y-51775000D02*
X221402651Y-52175000D01*
X221402651Y-52175000D02*
X221402651Y-54175000D01*
D68*
%TO.N,Net-(R27-Pad1)*%
X205977651Y-75562000D02*
X206142051Y-75397600D01*
X205977651Y-77975000D02*
X205977651Y-75562000D01*
D67*
%TO.N,Net-(C1-Pad2)*%
X220450000Y-102650000D02*
X220450000Y-104775000D01*
X220450000Y-104775000D02*
X220025000Y-105200000D01*
D69*
X218150000Y-101950000D02*
X218850000Y-102650000D01*
X216562500Y-101950000D02*
X218150000Y-101950000D01*
X218850000Y-102650000D02*
X220450000Y-102650000D01*
%TO.N,Net-(C4-Pad2)*%
X219000978Y-98799022D02*
X219625000Y-98175000D01*
X223250000Y-100050000D02*
X223250000Y-98650000D01*
X219000978Y-98800000D02*
X219000978Y-98799022D01*
X222775000Y-98175000D02*
X220225000Y-98175000D01*
X223250000Y-98650000D02*
X222775000Y-98175000D01*
X219000978Y-98800000D02*
X218200000Y-99600978D01*
X219625000Y-98175000D02*
X220225000Y-98175000D01*
X217750000Y-101450000D02*
X216562500Y-101450000D01*
X218200000Y-99600978D02*
X218200000Y-101000000D01*
X220225000Y-97100000D02*
X220225000Y-98175000D01*
X218200000Y-101000000D02*
X217750000Y-101450000D01*
%TO.N,SS_WM*%
X220149999Y-67049999D02*
X220700000Y-67600000D01*
X208225000Y-98437500D02*
X208237500Y-98450000D01*
X218970451Y-67049999D02*
X220149999Y-67049999D01*
X208225000Y-97200000D02*
X208225000Y-98437500D01*
%TO.N,SCLK_WM*%
X208237500Y-98950000D02*
X209525000Y-98950000D01*
X221450000Y-64450000D02*
X221500000Y-64400000D01*
X218970451Y-64450000D02*
X221150000Y-64450000D01*
X210175000Y-99600000D02*
X210275000Y-99700000D01*
X209525000Y-98950000D02*
X210175000Y-99600000D01*
X221150000Y-64450000D02*
X221450000Y-64450000D01*
%TO.N,MISO_WM*%
X220500000Y-83825000D02*
X220500000Y-83425000D01*
X218970451Y-66400001D02*
X220399999Y-66400001D01*
X206850000Y-99450000D02*
X206475000Y-99075000D01*
X213125000Y-91200000D02*
X220500000Y-83825000D01*
X208237500Y-99450000D02*
X206850000Y-99450000D01*
X220399999Y-66400001D02*
X221100000Y-65700000D01*
X206475000Y-99075000D02*
X206475000Y-95100000D01*
X210375000Y-91200000D02*
X213125000Y-91200000D01*
X206475000Y-95100000D02*
X210375000Y-91200000D01*
%TO.N,USB_DM*%
X210349520Y-101975480D02*
X208262980Y-101975480D01*
X226950000Y-106462500D02*
X226950000Y-103550000D01*
X210375000Y-101950000D02*
X210349520Y-101975480D01*
X208262980Y-101975480D02*
X208237500Y-101950000D01*
X226950000Y-103550000D02*
X226800000Y-103400000D01*
%TO.N,USB_DP*%
X212500000Y-102825000D02*
X210225386Y-102825000D01*
X225050000Y-106462500D02*
X224637500Y-106462500D01*
X209850386Y-102450000D02*
X208237500Y-102450000D01*
X224637500Y-106462500D02*
X223625000Y-105450000D01*
X210225386Y-102825000D02*
X209850386Y-102450000D01*
%TO.N,DOUT_ADC*%
X226234851Y-69000001D02*
X225377650Y-69000001D01*
X225377650Y-69000001D02*
X224602651Y-69775000D01*
X218102651Y-50475000D02*
X218002651Y-50575000D01*
X219932651Y-50475000D02*
X218102651Y-50475000D01*
%TO.N,BCK_ADC*%
X219932651Y-49825000D02*
X221252651Y-49825000D01*
X226234851Y-68350002D02*
X224427649Y-68350002D01*
X221252651Y-49825000D02*
X221402651Y-49975000D01*
X224427649Y-68350002D02*
X224202651Y-68575000D01*
%TO.N,LRCK_ADC*%
X223202651Y-52375000D02*
X222602651Y-51775000D01*
X224727652Y-67700001D02*
X222402651Y-65375000D01*
X223202651Y-55375000D02*
X223202651Y-52375000D01*
X223602651Y-59375000D02*
X223602651Y-55775000D01*
X222402651Y-65375000D02*
X222402651Y-60575000D01*
X222402651Y-60575000D02*
X223602651Y-59375000D01*
X222602651Y-51775000D02*
X222602651Y-50375000D01*
X222602651Y-50375000D02*
X223152651Y-49825000D01*
X223602651Y-55775000D02*
X223202651Y-55375000D01*
X223152651Y-49825000D02*
X225672651Y-49825000D01*
X226234851Y-67700001D02*
X224727652Y-67700001D01*
%TO.N,SCKI_ADC*%
X223202651Y-50775000D02*
X223502651Y-50475000D01*
X223202651Y-51375000D02*
X223202651Y-50775000D01*
X225077653Y-67050002D02*
X223402651Y-65375000D01*
X223502651Y-50475000D02*
X225672651Y-50475000D01*
X223402651Y-65375000D02*
X223402651Y-61175000D01*
X224002651Y-54975000D02*
X224002651Y-52175000D01*
X224602651Y-59975000D02*
X224602651Y-55575000D01*
X223402651Y-61175000D02*
X224602651Y-59975000D01*
X226234851Y-67050002D02*
X225077653Y-67050002D01*
X224002651Y-52175000D02*
X223202651Y-51375000D01*
X224602651Y-55575000D02*
X224002651Y-54975000D01*
%TO.N,Net-(C36-Pad2)*%
X174677651Y-67900000D02*
X174202651Y-68375000D01*
X174002651Y-69375000D02*
X173177651Y-69375000D01*
X174202651Y-68375000D02*
X174202651Y-69175000D01*
X174202651Y-69175000D02*
X174002651Y-69375000D01*
X175690151Y-67900000D02*
X174677651Y-67900000D01*
%TO.N,Net-(C55-Pad1)*%
X204727651Y-55700000D02*
X205002651Y-55975000D01*
X204727651Y-54775000D02*
X204727651Y-55700000D01*
X204077651Y-54775000D02*
X204727651Y-54775000D01*
X205002651Y-55975000D02*
X207840151Y-55975000D01*
%TO.N,Net-(C54-Pad1)*%
X204002651Y-58975000D02*
X206640151Y-58975000D01*
X203727651Y-60500000D02*
X203427651Y-60500000D01*
X203727651Y-59250000D02*
X204002651Y-58975000D01*
X203727651Y-60500000D02*
X203727651Y-59250000D01*
X206640151Y-58975000D02*
X207840151Y-60175000D01*
X204077651Y-60500000D02*
X203727651Y-60500000D01*
%TO.N,Net-(C58-Pad2)*%
X219932651Y-53725000D02*
X218052651Y-53725000D01*
D66*
X216002651Y-54625000D02*
X213877651Y-54625000D01*
X213877651Y-54625000D02*
X213802651Y-54550000D01*
D69*
X218052651Y-53725000D02*
X217152651Y-54625000D01*
X217152651Y-54625000D02*
X216002651Y-54625000D01*
D66*
%TO.N,Net-(C54-Pad2)*%
X209402651Y-58975000D02*
X209402651Y-54175000D01*
X209402651Y-54175000D02*
X210777651Y-52800000D01*
X210777651Y-52800000D02*
X213802651Y-52800000D01*
X210602651Y-60175000D02*
X209402651Y-58975000D01*
X210965151Y-60175000D02*
X210602651Y-60175000D01*
D69*
%TO.N,Net-(C57-Pad2)*%
X215577651Y-52750000D02*
X215202651Y-52375000D01*
X219932651Y-53075000D02*
X218102651Y-53075000D01*
X213802651Y-51150000D02*
X214577651Y-51150000D01*
X216002651Y-52750000D02*
X215577651Y-52750000D01*
X215202651Y-51775000D02*
X215202651Y-52375000D01*
X214802651Y-51375000D02*
X215202651Y-51775000D01*
X217777651Y-52750000D02*
X216002651Y-52750000D01*
X214577651Y-51150000D02*
X214802651Y-51375000D01*
X218102651Y-53075000D02*
X217777651Y-52750000D01*
D70*
%TO.N,Net-(C59-Pad1)*%
X200540151Y-91175000D02*
X200540151Y-94634849D01*
X193975000Y-96650000D02*
X191402651Y-99222349D01*
X200540151Y-94634849D02*
X198525000Y-96650000D01*
X198525000Y-96650000D02*
X193975000Y-96650000D01*
X191402651Y-99222349D02*
X191402651Y-109400000D01*
D69*
%TO.N,Net-(C60-Pad2)*%
X218970451Y-70299998D02*
X218970451Y-71607200D01*
X218970451Y-71607200D02*
X221034851Y-71607200D01*
X221552651Y-72125000D02*
X221552651Y-73225000D01*
X218970451Y-72767800D02*
X219002651Y-72800000D01*
X221034851Y-71607200D02*
X221552651Y-72125000D01*
X218970451Y-71607200D02*
X218970451Y-72767800D01*
D66*
%TO.N,Net-(C61-Pad1)*%
X227602651Y-59575000D02*
X228465151Y-59575000D01*
X225802651Y-56200000D02*
X226427651Y-56200000D01*
X226427651Y-56200000D02*
X227202651Y-56975000D01*
D69*
X225802651Y-53855000D02*
X225672651Y-53725000D01*
X225802651Y-56200000D02*
X225802651Y-53855000D01*
D66*
X227202651Y-56975000D02*
X227202651Y-59175000D01*
X227202651Y-59175000D02*
X227602651Y-59575000D01*
D69*
%TO.N,Net-(C63-Pad1)*%
X228402651Y-52425000D02*
X228427651Y-52400000D01*
D66*
X220600000Y-47000000D02*
X222000000Y-47000000D01*
D67*
X227752651Y-52425000D02*
X228402651Y-52425000D01*
D66*
X228402651Y-52425000D02*
X228402651Y-55312500D01*
D67*
X225672651Y-52425000D02*
X227752651Y-52425000D01*
D66*
X228402651Y-55312500D02*
X228465151Y-55375000D01*
D68*
%TO.N,Net-(R14-Pad1)*%
X215025000Y-79675000D02*
X214060600Y-80639400D01*
X215025000Y-78000000D02*
X215025000Y-79675000D01*
X214060600Y-80639400D02*
X209577400Y-80639400D01*
D71*
%TO.N,Net-(R15-Pad2)*%
X160202651Y-66950000D02*
X164340151Y-66950000D01*
X164340151Y-66950000D02*
X164465151Y-66825000D01*
D66*
%TO.N,Net-(R17-Pad2)*%
X175690151Y-67250000D02*
X174127651Y-67250000D01*
D71*
X171402651Y-67400000D02*
X173402651Y-67400000D01*
D66*
X174127651Y-67250000D02*
X173977651Y-67400000D01*
X173977651Y-67400000D02*
X173402651Y-67400000D01*
D69*
%TO.N,Net-(C65-Pad2)*%
X225350000Y-76450000D02*
X225800000Y-76000000D01*
X225800000Y-76000000D02*
X225800000Y-73200000D01*
X226234851Y-70300000D02*
X226234851Y-71207200D01*
X224150000Y-76450000D02*
X225350000Y-76450000D01*
X225800000Y-73200000D02*
X226200000Y-72800000D01*
X226200000Y-72800000D02*
X227002651Y-72800000D01*
X227002651Y-71975000D02*
X227002651Y-72800000D01*
X226502651Y-71475000D02*
X227002651Y-71975000D01*
X226234851Y-71207200D02*
X226502651Y-71475000D01*
%TD*%
%TA.AperFunction,Conductor*%
%TO.N,Net-(C39-Pad1)*%
G36*
X186744772Y-95595002D02*
G01*
X186791265Y-95648658D01*
X186802651Y-95701000D01*
X186802651Y-97941289D01*
X186782649Y-98009410D01*
X186728993Y-98055903D01*
X186672611Y-98066075D01*
X186672611Y-98067000D01*
X186374457Y-98067000D01*
X186306336Y-98046998D01*
X186259843Y-97993342D01*
X186249739Y-97923068D01*
X186273631Y-97865434D01*
X186320671Y-97802670D01*
X186329201Y-97787088D01*
X186374157Y-97667168D01*
X186377782Y-97651923D01*
X186383282Y-97601292D01*
X186383651Y-97594478D01*
X186383651Y-97543115D01*
X186379176Y-97527876D01*
X186377786Y-97526671D01*
X186370103Y-97525000D01*
X183239767Y-97525000D01*
X183224528Y-97529475D01*
X183223323Y-97530865D01*
X183221652Y-97538548D01*
X183221652Y-97594475D01*
X183222022Y-97601296D01*
X183227520Y-97651916D01*
X183231147Y-97667173D01*
X183276101Y-97787088D01*
X183284631Y-97802670D01*
X183331671Y-97865434D01*
X183356519Y-97931941D01*
X183341466Y-98001323D01*
X183291292Y-98051554D01*
X183230845Y-98067000D01*
X183128651Y-98067000D01*
X183020671Y-98078609D01*
X183017387Y-98079323D01*
X183017383Y-98079324D01*
X182992312Y-98084778D01*
X182968329Y-98089995D01*
X182865279Y-98124293D01*
X182743641Y-98202465D01*
X182740246Y-98205407D01*
X182740243Y-98205409D01*
X182697926Y-98242077D01*
X182633345Y-98271570D01*
X182563071Y-98261465D01*
X182509416Y-98214972D01*
X182497431Y-98191080D01*
X182482045Y-98150036D01*
X182473515Y-98134455D01*
X182401648Y-98038564D01*
X182389087Y-98026003D01*
X182293196Y-97954136D01*
X182277611Y-97945604D01*
X182164397Y-97903163D01*
X182164001Y-97903068D01*
X182156070Y-97904489D01*
X182152651Y-97916924D01*
X182152651Y-98779849D01*
X182132649Y-98847970D01*
X182078993Y-98894463D01*
X182008719Y-98904567D01*
X181997238Y-98902368D01*
X181993713Y-98901522D01*
X181987240Y-98899968D01*
X181891760Y-98894463D01*
X181768568Y-98887360D01*
X181768565Y-98887360D01*
X181762961Y-98887037D01*
X181539936Y-98914025D01*
X181474347Y-98934203D01*
X181441103Y-98944430D01*
X181404054Y-98950000D01*
X181103897Y-98950000D01*
X181090366Y-98953973D01*
X181089508Y-98959939D01*
X181100672Y-98989719D01*
X181105854Y-99060526D01*
X181071932Y-99122895D01*
X181059393Y-99133909D01*
X180951810Y-99216460D01*
X180951799Y-99216470D01*
X180947359Y-99219877D01*
X180943593Y-99224016D01*
X180943583Y-99224025D01*
X180843696Y-99333800D01*
X180783056Y-99370722D01*
X180750503Y-99375000D01*
X180128651Y-99375000D01*
X180060530Y-99354998D01*
X180014037Y-99301342D01*
X180002651Y-99249000D01*
X180002651Y-98775000D01*
X178571593Y-98775000D01*
X178531927Y-98768593D01*
X178482512Y-98752203D01*
X178475676Y-98751503D01*
X178475673Y-98751502D01*
X178432620Y-98747091D01*
X178378051Y-98741500D01*
X177892690Y-98741500D01*
X177842044Y-98730873D01*
X177810826Y-98717169D01*
X177810824Y-98717168D01*
X177805684Y-98714912D01*
X177652664Y-98678175D01*
X177592697Y-98663778D01*
X177592696Y-98663778D01*
X177587240Y-98662468D01*
X177503176Y-98657621D01*
X177368568Y-98649860D01*
X177368565Y-98649860D01*
X177362961Y-98649537D01*
X177139936Y-98676525D01*
X177019416Y-98713602D01*
X176946838Y-98735930D01*
X176909789Y-98741500D01*
X176427251Y-98741500D01*
X176424005Y-98741837D01*
X176424001Y-98741837D01*
X176394068Y-98744943D01*
X176321485Y-98752474D01*
X176273380Y-98768523D01*
X176233504Y-98775000D01*
X175202651Y-98775000D01*
X175202651Y-101249000D01*
X175182649Y-101317121D01*
X175128993Y-101363614D01*
X175076651Y-101375000D01*
X171579195Y-101375000D01*
X171511074Y-101354998D01*
X171475982Y-101321271D01*
X171426059Y-101249973D01*
X171426057Y-101249970D01*
X171422900Y-101245462D01*
X171267189Y-101089751D01*
X171086805Y-100963444D01*
X170999185Y-100922586D01*
X170892210Y-100872703D01*
X170892204Y-100872701D01*
X170887227Y-100870380D01*
X170881919Y-100868958D01*
X170881917Y-100868957D01*
X170839847Y-100857684D01*
X170763875Y-100837327D01*
X170707392Y-100804716D01*
X170467963Y-100565287D01*
X170454019Y-100557673D01*
X170452186Y-100557804D01*
X170445571Y-100562055D01*
X170202910Y-100804716D01*
X170146427Y-100837327D01*
X170070455Y-100857684D01*
X170028385Y-100868957D01*
X170028383Y-100868958D01*
X170023075Y-100870380D01*
X170018094Y-100872703D01*
X170018093Y-100872703D01*
X169828485Y-100961118D01*
X169828480Y-100961121D01*
X169823498Y-100963444D01*
X169818991Y-100966600D01*
X169818989Y-100966601D01*
X169647624Y-101086592D01*
X169647621Y-101086594D01*
X169643113Y-101089751D01*
X169487402Y-101245462D01*
X169484245Y-101249970D01*
X169484243Y-101249973D01*
X169434320Y-101321271D01*
X169378863Y-101365599D01*
X169331107Y-101375000D01*
X168528651Y-101375000D01*
X168460530Y-101354998D01*
X168414037Y-101301342D01*
X168402651Y-101249000D01*
X168402651Y-100049530D01*
X169444898Y-100049530D01*
X169460375Y-100233842D01*
X169462588Y-100245901D01*
X169513572Y-100423702D01*
X169518087Y-100435107D01*
X169531696Y-100461586D01*
X169541415Y-100471805D01*
X169548215Y-100469461D01*
X169947364Y-100070312D01*
X169953742Y-100058632D01*
X170955324Y-100058632D01*
X170955455Y-100060465D01*
X170959706Y-100067080D01*
X171359530Y-100466904D01*
X171371910Y-100473664D01*
X171377651Y-100469366D01*
X171380569Y-100462813D01*
X171438951Y-100287308D01*
X171441671Y-100275336D01*
X171465182Y-100089228D01*
X171465674Y-100082201D01*
X171465970Y-100061023D01*
X171465675Y-100053995D01*
X171447368Y-99867289D01*
X171444985Y-99855251D01*
X171391528Y-99678192D01*
X171386851Y-99666845D01*
X171379363Y-99652763D01*
X171369503Y-99642682D01*
X171362375Y-99645251D01*
X170962938Y-100044688D01*
X170955324Y-100058632D01*
X169953742Y-100058632D01*
X169954978Y-100056368D01*
X169954847Y-100054535D01*
X169950596Y-100047920D01*
X169551583Y-99648907D01*
X169539203Y-99642147D01*
X169532814Y-99646930D01*
X169528997Y-99653873D01*
X169524162Y-99665154D01*
X169468236Y-99841456D01*
X169465686Y-99853450D01*
X169445069Y-100037261D01*
X169444898Y-100049530D01*
X168402651Y-100049530D01*
X168402651Y-99143473D01*
X170040607Y-99143473D01*
X170043062Y-99150436D01*
X170442339Y-99549713D01*
X170456283Y-99557327D01*
X170458116Y-99557196D01*
X170464731Y-99552945D01*
X170863390Y-99154286D01*
X170870150Y-99141906D01*
X170865491Y-99135682D01*
X170852301Y-99128550D01*
X170840987Y-99123795D01*
X170664301Y-99069101D01*
X170652288Y-99066635D01*
X170468336Y-99047301D01*
X170456068Y-99047216D01*
X170271874Y-99063978D01*
X170259818Y-99066278D01*
X170082396Y-99118497D01*
X170071003Y-99123100D01*
X170050756Y-99133684D01*
X170040607Y-99143473D01*
X168402651Y-99143473D01*
X168402651Y-98247102D01*
X181091112Y-98247102D01*
X181096399Y-98250000D01*
X181434536Y-98250000D01*
X181449775Y-98245525D01*
X181450980Y-98244135D01*
X181452651Y-98236452D01*
X181452651Y-97918033D01*
X181448474Y-97903807D01*
X181442356Y-97902819D01*
X181440899Y-97903165D01*
X181327691Y-97945604D01*
X181312106Y-97954136D01*
X181216215Y-98026003D01*
X181203654Y-98038564D01*
X181131787Y-98134455D01*
X181123255Y-98150041D01*
X181092142Y-98233036D01*
X181091112Y-98247102D01*
X168402651Y-98247102D01*
X168402651Y-97294475D01*
X175971652Y-97294475D01*
X175972022Y-97301296D01*
X175977520Y-97351916D01*
X175981147Y-97367173D01*
X176026101Y-97487088D01*
X176034633Y-97502674D01*
X176110794Y-97604294D01*
X176123357Y-97616857D01*
X176224977Y-97693018D01*
X176240563Y-97701550D01*
X176360483Y-97746506D01*
X176375728Y-97750131D01*
X176426359Y-97755631D01*
X176433173Y-97756000D01*
X177034536Y-97756000D01*
X177049775Y-97751525D01*
X177050980Y-97750135D01*
X177052651Y-97742452D01*
X177052651Y-97737884D01*
X177752651Y-97737884D01*
X177757126Y-97753123D01*
X177758516Y-97754328D01*
X177766199Y-97755999D01*
X178372126Y-97755999D01*
X178378947Y-97755629D01*
X178429567Y-97750131D01*
X178444824Y-97746504D01*
X178564739Y-97701550D01*
X178580325Y-97693018D01*
X178681945Y-97616857D01*
X178694508Y-97604294D01*
X178770669Y-97502674D01*
X178779201Y-97487088D01*
X178824157Y-97367168D01*
X178827782Y-97351923D01*
X178833282Y-97301292D01*
X178833651Y-97294478D01*
X178833651Y-97205615D01*
X178829176Y-97190376D01*
X178827786Y-97189171D01*
X178820103Y-97187500D01*
X177770766Y-97187500D01*
X177755527Y-97191975D01*
X177754322Y-97193365D01*
X177752651Y-97201048D01*
X177752651Y-97737884D01*
X177052651Y-97737884D01*
X177052651Y-97205615D01*
X177048176Y-97190376D01*
X177046786Y-97189171D01*
X177039103Y-97187500D01*
X175989767Y-97187500D01*
X175974528Y-97191975D01*
X175973323Y-97193365D01*
X175971652Y-97201048D01*
X175971652Y-97294475D01*
X168402651Y-97294475D01*
X168402651Y-96806885D01*
X183221651Y-96806885D01*
X183226126Y-96822124D01*
X183227516Y-96823329D01*
X183235199Y-96825000D01*
X184434536Y-96825000D01*
X184449775Y-96820525D01*
X184450980Y-96819135D01*
X184452651Y-96811452D01*
X184452651Y-96806885D01*
X185152651Y-96806885D01*
X185157126Y-96822124D01*
X185158516Y-96823329D01*
X185166199Y-96825000D01*
X186365535Y-96825000D01*
X186380774Y-96820525D01*
X186381979Y-96819135D01*
X186383650Y-96811452D01*
X186383650Y-96755525D01*
X186383280Y-96748704D01*
X186377782Y-96698084D01*
X186374155Y-96682827D01*
X186329201Y-96562912D01*
X186320669Y-96547326D01*
X186244508Y-96445706D01*
X186231945Y-96433143D01*
X186130325Y-96356982D01*
X186114739Y-96348450D01*
X185994819Y-96303494D01*
X185979574Y-96299869D01*
X185928943Y-96294369D01*
X185922129Y-96294000D01*
X185170766Y-96294000D01*
X185155527Y-96298475D01*
X185154322Y-96299865D01*
X185152651Y-96307548D01*
X185152651Y-96806885D01*
X184452651Y-96806885D01*
X184452651Y-96312116D01*
X184448176Y-96296877D01*
X184446786Y-96295672D01*
X184439103Y-96294001D01*
X183683176Y-96294001D01*
X183676355Y-96294371D01*
X183625735Y-96299869D01*
X183610478Y-96303496D01*
X183490563Y-96348450D01*
X183474977Y-96356982D01*
X183373357Y-96433143D01*
X183360794Y-96445706D01*
X183284633Y-96547326D01*
X183276101Y-96562912D01*
X183231145Y-96682832D01*
X183227520Y-96698077D01*
X183222020Y-96748708D01*
X183221651Y-96755522D01*
X183221651Y-96806885D01*
X168402651Y-96806885D01*
X168402651Y-96469385D01*
X175971651Y-96469385D01*
X175976126Y-96484624D01*
X175977516Y-96485829D01*
X175985199Y-96487500D01*
X177034536Y-96487500D01*
X177049775Y-96483025D01*
X177050980Y-96481635D01*
X177052651Y-96473952D01*
X177052651Y-96469385D01*
X177752651Y-96469385D01*
X177757126Y-96484624D01*
X177758516Y-96485829D01*
X177766199Y-96487500D01*
X178815535Y-96487500D01*
X178830774Y-96483025D01*
X178831979Y-96481635D01*
X178833650Y-96473952D01*
X178833650Y-96380525D01*
X178833280Y-96373704D01*
X178827782Y-96323084D01*
X178824155Y-96307827D01*
X178779201Y-96187912D01*
X178770669Y-96172326D01*
X178694508Y-96070706D01*
X178681945Y-96058143D01*
X178580325Y-95981982D01*
X178564739Y-95973450D01*
X178444819Y-95928494D01*
X178429574Y-95924869D01*
X178378943Y-95919369D01*
X178372129Y-95919000D01*
X177770766Y-95919000D01*
X177755527Y-95923475D01*
X177754322Y-95924865D01*
X177752651Y-95932548D01*
X177752651Y-96469385D01*
X177052651Y-96469385D01*
X177052651Y-95937116D01*
X177048176Y-95921877D01*
X177046786Y-95920672D01*
X177039103Y-95919001D01*
X176433176Y-95919001D01*
X176426355Y-95919371D01*
X176375735Y-95924869D01*
X176360478Y-95928496D01*
X176240563Y-95973450D01*
X176224977Y-95981982D01*
X176123357Y-96058143D01*
X176110794Y-96070706D01*
X176034633Y-96172326D01*
X176026101Y-96187912D01*
X175981145Y-96307832D01*
X175977520Y-96323077D01*
X175972020Y-96373708D01*
X175971651Y-96380522D01*
X175971651Y-96469385D01*
X168402651Y-96469385D01*
X168402651Y-95701000D01*
X168422653Y-95632879D01*
X168476309Y-95586386D01*
X168528651Y-95575000D01*
X186676651Y-95575000D01*
X186744772Y-95595002D01*
G37*
%TD.AperFunction*%
%TD*%
%TA.AperFunction,Conductor*%
%TO.N,Net-(C59-Pad1)*%
G36*
X192744772Y-107395002D02*
G01*
X192791265Y-107448658D01*
X192802651Y-107501000D01*
X192802651Y-110049000D01*
X192782649Y-110117121D01*
X192728993Y-110163614D01*
X192676651Y-110175000D01*
X192190159Y-110175000D01*
X192122038Y-110154998D01*
X192114607Y-110149694D01*
X192110353Y-110145448D01*
X192059130Y-110113873D01*
X192011638Y-110061104D01*
X192000214Y-109991032D01*
X192024421Y-109931050D01*
X192073515Y-109865545D01*
X192082047Y-109849959D01*
X192113160Y-109766964D01*
X192114190Y-109752898D01*
X192108903Y-109750000D01*
X190703897Y-109750000D01*
X190690366Y-109753973D01*
X190689508Y-109759940D01*
X190723255Y-109849959D01*
X190731787Y-109865545D01*
X190780907Y-109931085D01*
X190805755Y-109997592D01*
X190790702Y-110066974D01*
X190746385Y-110113793D01*
X190693938Y-110146248D01*
X190691785Y-110148404D01*
X190627602Y-110174383D01*
X190615149Y-110175000D01*
X186602651Y-110175000D01*
X186602651Y-112849000D01*
X186582649Y-112917121D01*
X186528993Y-112963614D01*
X186476651Y-112975000D01*
X180928651Y-112975000D01*
X180860530Y-112954998D01*
X180814037Y-112901342D01*
X180802651Y-112849000D01*
X180802651Y-111622736D01*
X181983010Y-111622736D01*
X181986521Y-111627425D01*
X182046093Y-111653949D01*
X182058589Y-111658009D01*
X182237922Y-111696128D01*
X182250982Y-111697500D01*
X182434320Y-111697500D01*
X182447380Y-111696128D01*
X182626713Y-111658009D01*
X182639209Y-111653949D01*
X182691793Y-111630537D01*
X182702539Y-111621403D01*
X182700942Y-111615766D01*
X182355463Y-111270287D01*
X182341519Y-111262673D01*
X182339686Y-111262804D01*
X182333071Y-111267055D01*
X181989770Y-111610356D01*
X181983010Y-111622736D01*
X180802651Y-111622736D01*
X180802651Y-111440231D01*
X180818716Y-111378665D01*
X180889314Y-111252602D01*
X180892133Y-111247569D01*
X180921658Y-111160594D01*
X180960429Y-111046378D01*
X180960429Y-111046376D01*
X180962287Y-111040904D01*
X180975604Y-110949062D01*
X180993071Y-110828589D01*
X180993604Y-110824915D01*
X180995066Y-110769065D01*
X181403191Y-110769065D01*
X181422356Y-110951404D01*
X181425086Y-110964247D01*
X181473647Y-111113703D01*
X181481607Y-111125344D01*
X181484949Y-111124766D01*
X181486576Y-111123601D01*
X181834868Y-110775308D01*
X181841245Y-110763630D01*
X182842823Y-110763630D01*
X182842955Y-110765466D01*
X182847204Y-110772078D01*
X183193246Y-111118121D01*
X183205625Y-111124880D01*
X183208338Y-111122849D01*
X183209262Y-111121067D01*
X183260216Y-110964247D01*
X183262946Y-110951404D01*
X183282111Y-110769065D01*
X183282111Y-110755935D01*
X183262946Y-110573596D01*
X183260216Y-110560753D01*
X183211655Y-110411297D01*
X183203695Y-110399656D01*
X183200353Y-110400234D01*
X183198726Y-110401399D01*
X182850434Y-110749692D01*
X182842823Y-110763630D01*
X181841245Y-110763630D01*
X181842479Y-110761370D01*
X181842347Y-110759534D01*
X181838098Y-110752922D01*
X181492056Y-110406879D01*
X181479677Y-110400120D01*
X181476964Y-110402151D01*
X181476040Y-110403933D01*
X181425086Y-110560753D01*
X181422356Y-110573596D01*
X181403191Y-110755935D01*
X181403191Y-110769065D01*
X180995066Y-110769065D01*
X180995238Y-110762500D01*
X180975268Y-110545168D01*
X180916027Y-110335115D01*
X180819499Y-110139375D01*
X180820063Y-110139097D01*
X180802651Y-110077358D01*
X180802651Y-109903597D01*
X181982763Y-109903597D01*
X181984360Y-109909234D01*
X182329839Y-110254713D01*
X182343783Y-110262327D01*
X182345616Y-110262196D01*
X182352231Y-110257945D01*
X182695532Y-109914644D01*
X182702292Y-109902264D01*
X182698781Y-109897575D01*
X182639209Y-109871051D01*
X182626713Y-109866991D01*
X182447380Y-109828872D01*
X182434320Y-109827500D01*
X182250982Y-109827500D01*
X182237922Y-109828872D01*
X182058589Y-109866991D01*
X182046093Y-109871051D01*
X181993509Y-109894463D01*
X181982763Y-109903597D01*
X180802651Y-109903597D01*
X180802651Y-109094475D01*
X186971652Y-109094475D01*
X186972022Y-109101296D01*
X186977520Y-109151916D01*
X186981147Y-109167173D01*
X187026101Y-109287088D01*
X187034633Y-109302674D01*
X187110794Y-109404294D01*
X187123357Y-109416857D01*
X187224977Y-109493018D01*
X187240563Y-109501550D01*
X187360483Y-109546506D01*
X187375728Y-109550131D01*
X187426359Y-109555631D01*
X187433173Y-109556000D01*
X188034536Y-109556000D01*
X188049775Y-109551525D01*
X188050980Y-109550135D01*
X188052651Y-109542452D01*
X188052651Y-109537884D01*
X188752651Y-109537884D01*
X188757126Y-109553123D01*
X188758516Y-109554328D01*
X188766199Y-109555999D01*
X189372126Y-109555999D01*
X189378947Y-109555629D01*
X189429567Y-109550131D01*
X189444824Y-109546504D01*
X189564739Y-109501550D01*
X189580325Y-109493018D01*
X189681945Y-109416857D01*
X189694508Y-109404294D01*
X189770669Y-109302674D01*
X189779201Y-109287088D01*
X189824157Y-109167168D01*
X189827782Y-109151923D01*
X189833282Y-109101292D01*
X189833651Y-109094478D01*
X189833651Y-109047102D01*
X190691112Y-109047102D01*
X190696399Y-109050000D01*
X191034536Y-109050000D01*
X191049775Y-109045525D01*
X191050980Y-109044135D01*
X191052651Y-109036452D01*
X191052651Y-109031885D01*
X191752651Y-109031885D01*
X191757126Y-109047124D01*
X191758516Y-109048329D01*
X191766199Y-109050000D01*
X192101405Y-109050000D01*
X192114936Y-109046027D01*
X192115794Y-109040060D01*
X192082047Y-108950041D01*
X192073515Y-108934455D01*
X192001648Y-108838564D01*
X191989087Y-108826003D01*
X191893196Y-108754136D01*
X191877611Y-108745604D01*
X191764397Y-108703163D01*
X191764001Y-108703068D01*
X191756070Y-108704489D01*
X191752651Y-108716924D01*
X191752651Y-109031885D01*
X191052651Y-109031885D01*
X191052651Y-108718033D01*
X191048474Y-108703807D01*
X191042356Y-108702819D01*
X191040899Y-108703165D01*
X190927691Y-108745604D01*
X190912106Y-108754136D01*
X190816215Y-108826003D01*
X190803654Y-108838564D01*
X190731787Y-108934455D01*
X190723255Y-108950041D01*
X190692142Y-109033036D01*
X190691112Y-109047102D01*
X189833651Y-109047102D01*
X189833651Y-109005615D01*
X189829176Y-108990376D01*
X189827786Y-108989171D01*
X189820103Y-108987500D01*
X188770766Y-108987500D01*
X188755527Y-108991975D01*
X188754322Y-108993365D01*
X188752651Y-109001048D01*
X188752651Y-109537884D01*
X188052651Y-109537884D01*
X188052651Y-109005615D01*
X188048176Y-108990376D01*
X188046786Y-108989171D01*
X188039103Y-108987500D01*
X186989767Y-108987500D01*
X186974528Y-108991975D01*
X186973323Y-108993365D01*
X186971652Y-109001048D01*
X186971652Y-109094475D01*
X180802651Y-109094475D01*
X180802651Y-108269385D01*
X186971651Y-108269385D01*
X186976126Y-108284624D01*
X186977516Y-108285829D01*
X186985199Y-108287500D01*
X188034536Y-108287500D01*
X188049775Y-108283025D01*
X188050980Y-108281635D01*
X188052651Y-108273952D01*
X188052651Y-108269385D01*
X188752651Y-108269385D01*
X188757126Y-108284624D01*
X188758516Y-108285829D01*
X188766199Y-108287500D01*
X189815535Y-108287500D01*
X189830774Y-108283025D01*
X189831979Y-108281635D01*
X189833650Y-108273952D01*
X189833650Y-108180525D01*
X189833280Y-108173704D01*
X189827782Y-108123084D01*
X189824155Y-108107827D01*
X189779201Y-107987912D01*
X189770669Y-107972326D01*
X189694508Y-107870706D01*
X189681945Y-107858143D01*
X189580325Y-107781982D01*
X189564739Y-107773450D01*
X189444819Y-107728494D01*
X189429574Y-107724869D01*
X189378943Y-107719369D01*
X189372129Y-107719000D01*
X188770766Y-107719000D01*
X188755527Y-107723475D01*
X188754322Y-107724865D01*
X188752651Y-107732548D01*
X188752651Y-108269385D01*
X188052651Y-108269385D01*
X188052651Y-107737116D01*
X188048176Y-107721877D01*
X188046786Y-107720672D01*
X188039103Y-107719001D01*
X187433176Y-107719001D01*
X187426355Y-107719371D01*
X187375735Y-107724869D01*
X187360478Y-107728496D01*
X187240563Y-107773450D01*
X187224977Y-107781982D01*
X187123357Y-107858143D01*
X187110794Y-107870706D01*
X187034633Y-107972326D01*
X187026101Y-107987912D01*
X186981145Y-108107832D01*
X186977520Y-108123077D01*
X186972020Y-108173708D01*
X186971651Y-108180522D01*
X186971651Y-108269385D01*
X180802651Y-108269385D01*
X180802651Y-107501000D01*
X180822653Y-107432879D01*
X180876309Y-107386386D01*
X180928651Y-107375000D01*
X192676651Y-107375000D01*
X192744772Y-107395002D01*
G37*
%TD.AperFunction*%
%TD*%
%TA.AperFunction,Conductor*%
%TO.N,Net-(C27-Pad1)*%
G36*
X164057289Y-97995002D02*
G01*
X164103782Y-98048658D01*
X164114689Y-98090019D01*
X164131036Y-98276871D01*
X164188031Y-98489576D01*
X164190356Y-98494561D01*
X164278769Y-98684166D01*
X164278772Y-98684171D01*
X164281095Y-98689153D01*
X164284251Y-98693660D01*
X164284252Y-98693662D01*
X164367195Y-98812116D01*
X164407402Y-98869538D01*
X164563113Y-99025249D01*
X164743497Y-99151556D01*
X164943075Y-99244620D01*
X165155780Y-99301615D01*
X165375151Y-99320807D01*
X165594522Y-99301615D01*
X165807227Y-99244620D01*
X166006805Y-99151556D01*
X166187189Y-99025249D01*
X166342900Y-98869538D01*
X166383108Y-98812116D01*
X166466050Y-98693662D01*
X166466051Y-98693660D01*
X166469207Y-98689153D01*
X166471530Y-98684171D01*
X166471533Y-98684166D01*
X166559946Y-98494561D01*
X166562271Y-98489576D01*
X166619266Y-98276871D01*
X166635613Y-98090019D01*
X166661476Y-98023900D01*
X166718980Y-97982261D01*
X166761134Y-97975000D01*
X166876651Y-97975000D01*
X166944772Y-97995002D01*
X166991265Y-98048658D01*
X167002651Y-98101000D01*
X167002651Y-107959633D01*
X166982649Y-108027754D01*
X166928993Y-108074247D01*
X166858720Y-108084351D01*
X166742484Y-108067639D01*
X166742477Y-108067638D01*
X166738036Y-108067000D01*
X165926352Y-108067000D01*
X165858231Y-108046998D01*
X165811738Y-107993342D01*
X165801634Y-107923068D01*
X165831128Y-107858488D01*
X165850787Y-107840174D01*
X165939087Y-107773997D01*
X165951648Y-107761436D01*
X166023515Y-107665545D01*
X166032047Y-107649960D01*
X166074488Y-107536746D01*
X166074583Y-107536350D01*
X166073162Y-107528419D01*
X166060727Y-107525000D01*
X165153651Y-107525000D01*
X165085530Y-107504998D01*
X165039037Y-107451342D01*
X165027651Y-107399000D01*
X165027651Y-106806885D01*
X165727651Y-106806885D01*
X165732126Y-106822124D01*
X165733516Y-106823329D01*
X165741199Y-106825000D01*
X166059618Y-106825000D01*
X166073844Y-106820823D01*
X166074832Y-106814705D01*
X166074486Y-106813248D01*
X166032047Y-106700040D01*
X166023515Y-106684455D01*
X165951648Y-106588564D01*
X165939087Y-106576003D01*
X165843196Y-106504136D01*
X165827610Y-106495604D01*
X165744615Y-106464491D01*
X165730549Y-106463461D01*
X165727651Y-106468748D01*
X165727651Y-106806885D01*
X165027651Y-106806885D01*
X165027651Y-106476246D01*
X165023678Y-106462715D01*
X165017711Y-106461857D01*
X164927692Y-106495604D01*
X164912106Y-106504136D01*
X164846566Y-106553256D01*
X164780059Y-106578104D01*
X164710677Y-106563051D01*
X164663858Y-106518734D01*
X164631403Y-106466287D01*
X164629247Y-106464134D01*
X164603268Y-106399951D01*
X164602651Y-106387498D01*
X164602651Y-106175000D01*
X161602651Y-106175000D01*
X161602651Y-107941000D01*
X161582649Y-108009121D01*
X161528993Y-108055614D01*
X161476651Y-108067000D01*
X157836651Y-108067000D01*
X157768530Y-108046998D01*
X157722037Y-107993342D01*
X157710651Y-107941000D01*
X157710651Y-106789568D01*
X157730653Y-106721447D01*
X157784309Y-106674954D01*
X157861233Y-106665989D01*
X157920073Y-106677693D01*
X157932327Y-106678900D01*
X158459537Y-106678900D01*
X158474776Y-106674425D01*
X158475981Y-106673035D01*
X158477652Y-106665352D01*
X158477652Y-106660785D01*
X159177652Y-106660785D01*
X159182127Y-106676024D01*
X159183517Y-106677229D01*
X159191200Y-106678900D01*
X159722977Y-106678900D01*
X159735231Y-106677693D01*
X159791669Y-106666467D01*
X159814155Y-106657153D01*
X159878201Y-106614358D01*
X159895410Y-106597149D01*
X159938205Y-106533103D01*
X159947519Y-106510617D01*
X159958745Y-106454179D01*
X159959952Y-106441925D01*
X159959952Y-104826525D01*
X164369151Y-104826525D01*
X164370358Y-104838779D01*
X164381584Y-104895217D01*
X164390898Y-104917703D01*
X164433693Y-104981749D01*
X164450902Y-104998958D01*
X164514948Y-105041753D01*
X164537434Y-105051067D01*
X164593872Y-105062293D01*
X164606126Y-105063500D01*
X165007036Y-105063500D01*
X165022275Y-105059025D01*
X165023480Y-105057635D01*
X165025151Y-105049952D01*
X165025151Y-105045385D01*
X165725151Y-105045385D01*
X165729626Y-105060624D01*
X165731016Y-105061829D01*
X165738699Y-105063500D01*
X166144176Y-105063500D01*
X166156430Y-105062293D01*
X166212868Y-105051067D01*
X166235354Y-105041753D01*
X166299400Y-104998958D01*
X166316609Y-104981749D01*
X166359404Y-104917703D01*
X166368718Y-104895217D01*
X166379944Y-104838779D01*
X166381151Y-104826525D01*
X166381151Y-104425615D01*
X166376676Y-104410376D01*
X166375286Y-104409171D01*
X166367603Y-104407500D01*
X165743266Y-104407500D01*
X165728027Y-104411975D01*
X165726822Y-104413365D01*
X165725151Y-104421048D01*
X165725151Y-105045385D01*
X165025151Y-105045385D01*
X165025151Y-104425615D01*
X165020676Y-104410376D01*
X165019286Y-104409171D01*
X165011603Y-104407500D01*
X164387266Y-104407500D01*
X164372027Y-104411975D01*
X164370822Y-104413365D01*
X164369151Y-104421048D01*
X164369151Y-104826525D01*
X159959952Y-104826525D01*
X159959952Y-104543115D01*
X159955477Y-104527876D01*
X159954087Y-104526671D01*
X159946404Y-104525000D01*
X159195767Y-104525000D01*
X159180528Y-104529475D01*
X159179323Y-104530865D01*
X159177652Y-104538548D01*
X159177652Y-106660785D01*
X158477652Y-106660785D01*
X158477652Y-103806885D01*
X159177652Y-103806885D01*
X159182127Y-103822124D01*
X159183517Y-103823329D01*
X159191200Y-103825000D01*
X159941837Y-103825000D01*
X159957076Y-103820525D01*
X159958281Y-103819135D01*
X159959952Y-103811452D01*
X159959952Y-102057500D01*
X164111844Y-102057500D01*
X164131036Y-102276871D01*
X164188031Y-102489576D01*
X164190356Y-102494561D01*
X164278769Y-102684166D01*
X164278772Y-102684171D01*
X164281095Y-102689153D01*
X164407402Y-102869538D01*
X164464031Y-102926167D01*
X164498057Y-102988479D01*
X164492992Y-103059294D01*
X164457087Y-103104673D01*
X164459679Y-103107265D01*
X164433693Y-103133251D01*
X164390898Y-103197297D01*
X164381584Y-103219783D01*
X164370358Y-103276221D01*
X164369151Y-103288475D01*
X164369151Y-103689385D01*
X164373626Y-103704624D01*
X164375016Y-103705829D01*
X164382699Y-103707500D01*
X166363036Y-103707500D01*
X166378275Y-103703025D01*
X166379480Y-103701635D01*
X166381151Y-103693952D01*
X166381151Y-103288475D01*
X166379944Y-103276221D01*
X166368718Y-103219783D01*
X166359404Y-103197297D01*
X166316609Y-103133251D01*
X166290623Y-103107265D01*
X166292843Y-103105045D01*
X166259836Y-103065549D01*
X166250989Y-102995105D01*
X166286271Y-102926167D01*
X166342900Y-102869538D01*
X166469207Y-102689153D01*
X166471530Y-102684171D01*
X166471533Y-102684166D01*
X166559946Y-102494561D01*
X166562271Y-102489576D01*
X166619266Y-102276871D01*
X166638458Y-102057500D01*
X166619266Y-101838129D01*
X166562271Y-101625424D01*
X166518736Y-101532062D01*
X166471533Y-101430834D01*
X166471530Y-101430829D01*
X166469207Y-101425847D01*
X166342900Y-101245462D01*
X166187189Y-101089751D01*
X166006805Y-100963444D01*
X165807227Y-100870380D01*
X165594522Y-100813385D01*
X165375151Y-100794193D01*
X165155780Y-100813385D01*
X164943075Y-100870380D01*
X164849713Y-100913915D01*
X164748485Y-100961118D01*
X164748480Y-100961121D01*
X164743498Y-100963444D01*
X164738991Y-100966600D01*
X164738989Y-100966601D01*
X164567624Y-101086592D01*
X164567621Y-101086594D01*
X164563113Y-101089751D01*
X164407402Y-101245462D01*
X164281095Y-101425847D01*
X164278772Y-101430829D01*
X164278769Y-101430834D01*
X164231566Y-101532062D01*
X164188031Y-101625424D01*
X164131036Y-101838129D01*
X164111844Y-102057500D01*
X159959952Y-102057500D01*
X159959952Y-101908075D01*
X159958745Y-101895821D01*
X159947519Y-101839383D01*
X159938205Y-101816897D01*
X159895410Y-101752851D01*
X159878201Y-101735642D01*
X159814155Y-101692847D01*
X159791669Y-101683533D01*
X159735231Y-101672307D01*
X159722977Y-101671100D01*
X159195767Y-101671100D01*
X159180528Y-101675575D01*
X159179323Y-101676965D01*
X159177652Y-101684648D01*
X159177652Y-103806885D01*
X158477652Y-103806885D01*
X158477652Y-101689215D01*
X158473177Y-101673976D01*
X158471787Y-101672771D01*
X158464104Y-101671100D01*
X157932327Y-101671100D01*
X157920073Y-101672307D01*
X157861233Y-101684011D01*
X157790519Y-101677683D01*
X157734451Y-101634129D01*
X157710651Y-101560432D01*
X157710651Y-101301000D01*
X157699042Y-101193020D01*
X157687656Y-101140678D01*
X157653358Y-101037628D01*
X157622653Y-100989850D01*
X157602651Y-100921729D01*
X157602651Y-100775000D01*
X157602469Y-100775000D01*
X157602470Y-100721500D01*
X157640855Y-100661774D01*
X157705436Y-100632282D01*
X157723366Y-100631000D01*
X157834536Y-100631000D01*
X157849775Y-100626525D01*
X157850980Y-100625135D01*
X157852651Y-100617452D01*
X157852651Y-100612884D01*
X158552651Y-100612884D01*
X158557126Y-100628123D01*
X158558516Y-100629328D01*
X158566199Y-100630999D01*
X159172126Y-100630999D01*
X159178947Y-100630629D01*
X159229567Y-100625131D01*
X159244824Y-100621504D01*
X159364739Y-100576550D01*
X159380325Y-100568018D01*
X159481945Y-100491857D01*
X159494508Y-100479294D01*
X159570669Y-100377674D01*
X159579201Y-100362088D01*
X159624157Y-100242168D01*
X159627782Y-100226923D01*
X159633282Y-100176292D01*
X159633651Y-100169478D01*
X159633651Y-100080615D01*
X159629176Y-100065376D01*
X159627786Y-100064171D01*
X159620103Y-100062500D01*
X158570766Y-100062500D01*
X158555527Y-100066975D01*
X158554322Y-100068365D01*
X158552651Y-100076048D01*
X158552651Y-100612884D01*
X157852651Y-100612884D01*
X157852651Y-100080615D01*
X157848176Y-100065376D01*
X157846786Y-100064171D01*
X157839103Y-100062500D01*
X156789767Y-100062500D01*
X156774528Y-100066975D01*
X156773323Y-100068365D01*
X156771652Y-100076048D01*
X156771652Y-100169475D01*
X156772022Y-100176296D01*
X156777520Y-100226916D01*
X156781147Y-100242173D01*
X156826101Y-100362088D01*
X156834633Y-100377674D01*
X156900407Y-100465435D01*
X156925255Y-100531941D01*
X156910202Y-100601324D01*
X156860028Y-100651554D01*
X156799581Y-100667000D01*
X155836651Y-100667000D01*
X155768530Y-100646998D01*
X155722037Y-100593342D01*
X155710651Y-100541000D01*
X155710651Y-99344385D01*
X156771651Y-99344385D01*
X156776126Y-99359624D01*
X156777516Y-99360829D01*
X156785199Y-99362500D01*
X157834536Y-99362500D01*
X157849775Y-99358025D01*
X157850980Y-99356635D01*
X157852651Y-99348952D01*
X157852651Y-99344385D01*
X158552651Y-99344385D01*
X158557126Y-99359624D01*
X158558516Y-99360829D01*
X158566199Y-99362500D01*
X159615535Y-99362500D01*
X159630774Y-99358025D01*
X159631979Y-99356635D01*
X159633650Y-99348952D01*
X159633650Y-99255525D01*
X159633280Y-99248704D01*
X159627782Y-99198084D01*
X159624155Y-99182827D01*
X159579201Y-99062912D01*
X159570669Y-99047326D01*
X159494508Y-98945706D01*
X159481945Y-98933143D01*
X159380325Y-98856982D01*
X159364739Y-98848450D01*
X159244819Y-98803494D01*
X159229574Y-98799869D01*
X159178943Y-98794369D01*
X159172129Y-98794000D01*
X158570766Y-98794000D01*
X158555527Y-98798475D01*
X158554322Y-98799865D01*
X158552651Y-98807548D01*
X158552651Y-99344385D01*
X157852651Y-99344385D01*
X157852651Y-98812116D01*
X157848176Y-98796877D01*
X157846786Y-98795672D01*
X157839103Y-98794001D01*
X157233176Y-98794001D01*
X157226355Y-98794371D01*
X157175735Y-98799869D01*
X157160478Y-98803496D01*
X157040563Y-98848450D01*
X157024977Y-98856982D01*
X156923357Y-98933143D01*
X156910794Y-98945706D01*
X156834633Y-99047326D01*
X156826101Y-99062912D01*
X156781145Y-99182832D01*
X156777520Y-99198077D01*
X156772020Y-99248708D01*
X156771651Y-99255522D01*
X156771651Y-99344385D01*
X155710651Y-99344385D01*
X155710651Y-98101000D01*
X155730653Y-98032879D01*
X155784309Y-97986386D01*
X155836651Y-97975000D01*
X163989168Y-97975000D01*
X164057289Y-97995002D01*
G37*
%TD.AperFunction*%
%TD*%
%TA.AperFunction,Conductor*%
%TO.N,-15V*%
G36*
X189144772Y-101395002D02*
G01*
X189191265Y-101448658D01*
X189202651Y-101501000D01*
X189202651Y-103649000D01*
X189182649Y-103717121D01*
X189128993Y-103763614D01*
X189076651Y-103775000D01*
X188909998Y-103775000D01*
X188841877Y-103754998D01*
X188795384Y-103701342D01*
X188784671Y-103662004D01*
X188777987Y-103597588D01*
X188775538Y-103573981D01*
X188736053Y-103455631D01*
X188723724Y-103418676D01*
X188723723Y-103418674D01*
X188721407Y-103411732D01*
X188709827Y-103393018D01*
X188635257Y-103272515D01*
X188631403Y-103266287D01*
X188510353Y-103145448D01*
X188459130Y-103113873D01*
X188411638Y-103061104D01*
X188400214Y-102991032D01*
X188424421Y-102931050D01*
X188473515Y-102865545D01*
X188482047Y-102849959D01*
X188513160Y-102766964D01*
X188514190Y-102752898D01*
X188508903Y-102750000D01*
X187103897Y-102750000D01*
X187090366Y-102753973D01*
X187089508Y-102759940D01*
X187123255Y-102849959D01*
X187131787Y-102865545D01*
X187180907Y-102931085D01*
X187205755Y-102997592D01*
X187190702Y-103066974D01*
X187146385Y-103113793D01*
X187093938Y-103146248D01*
X186973099Y-103267298D01*
X186969259Y-103273528D01*
X186969258Y-103273529D01*
X186887906Y-103405507D01*
X186883349Y-103412899D01*
X186829502Y-103575243D01*
X186828802Y-103582080D01*
X186828801Y-103582082D01*
X186820629Y-103661843D01*
X186793788Y-103727570D01*
X186735673Y-103768352D01*
X186695285Y-103775000D01*
X183128651Y-103775000D01*
X183060530Y-103754998D01*
X183014037Y-103701342D01*
X183002651Y-103649000D01*
X183002651Y-103152711D01*
X183022653Y-103084590D01*
X183076309Y-103038097D01*
X183146583Y-103027993D01*
X183211163Y-103057487D01*
X183246633Y-103108482D01*
X183276101Y-103187089D01*
X183284633Y-103202674D01*
X183360794Y-103304294D01*
X183373357Y-103316857D01*
X183474977Y-103393018D01*
X183490563Y-103401550D01*
X183610483Y-103446506D01*
X183625728Y-103450131D01*
X183676359Y-103455631D01*
X183683173Y-103456000D01*
X184434536Y-103456000D01*
X184449775Y-103451525D01*
X184450980Y-103450135D01*
X184452651Y-103442452D01*
X184452651Y-103437884D01*
X185152651Y-103437884D01*
X185157126Y-103453123D01*
X185158516Y-103454328D01*
X185166199Y-103455999D01*
X185922126Y-103455999D01*
X185928947Y-103455629D01*
X185979567Y-103450131D01*
X185994824Y-103446504D01*
X186114739Y-103401550D01*
X186130325Y-103393018D01*
X186231945Y-103316857D01*
X186244508Y-103304294D01*
X186320669Y-103202674D01*
X186329201Y-103187088D01*
X186374157Y-103067168D01*
X186377782Y-103051923D01*
X186383282Y-103001292D01*
X186383651Y-102994478D01*
X186383651Y-102943115D01*
X186379176Y-102927876D01*
X186377786Y-102926671D01*
X186370103Y-102925000D01*
X185170766Y-102925000D01*
X185155527Y-102929475D01*
X185154322Y-102930865D01*
X185152651Y-102938548D01*
X185152651Y-103437884D01*
X184452651Y-103437884D01*
X184452651Y-102206885D01*
X185152651Y-102206885D01*
X185157126Y-102222124D01*
X185158516Y-102223329D01*
X185166199Y-102225000D01*
X186365535Y-102225000D01*
X186380774Y-102220525D01*
X186381979Y-102219135D01*
X186383650Y-102211452D01*
X186383650Y-102155525D01*
X186383280Y-102148704D01*
X186377782Y-102098084D01*
X186374155Y-102082827D01*
X186360762Y-102047102D01*
X187091112Y-102047102D01*
X187096399Y-102050000D01*
X187434536Y-102050000D01*
X187449775Y-102045525D01*
X187450980Y-102044135D01*
X187452651Y-102036452D01*
X187452651Y-102031885D01*
X188152651Y-102031885D01*
X188157126Y-102047124D01*
X188158516Y-102048329D01*
X188166199Y-102050000D01*
X188501405Y-102050000D01*
X188514936Y-102046027D01*
X188515794Y-102040060D01*
X188482047Y-101950041D01*
X188473515Y-101934455D01*
X188401648Y-101838564D01*
X188389087Y-101826003D01*
X188293196Y-101754136D01*
X188277611Y-101745604D01*
X188164397Y-101703163D01*
X188164001Y-101703068D01*
X188156070Y-101704489D01*
X188152651Y-101716924D01*
X188152651Y-102031885D01*
X187452651Y-102031885D01*
X187452651Y-101718033D01*
X187448474Y-101703807D01*
X187442356Y-101702819D01*
X187440899Y-101703165D01*
X187327691Y-101745604D01*
X187312106Y-101754136D01*
X187216215Y-101826003D01*
X187203654Y-101838564D01*
X187131787Y-101934455D01*
X187123255Y-101950041D01*
X187092142Y-102033036D01*
X187091112Y-102047102D01*
X186360762Y-102047102D01*
X186329201Y-101962912D01*
X186320669Y-101947326D01*
X186244508Y-101845706D01*
X186231945Y-101833143D01*
X186130325Y-101756982D01*
X186114739Y-101748450D01*
X185994819Y-101703494D01*
X185979574Y-101699869D01*
X185928943Y-101694369D01*
X185922129Y-101694000D01*
X185170766Y-101694000D01*
X185155527Y-101698475D01*
X185154322Y-101699865D01*
X185152651Y-101707548D01*
X185152651Y-102206885D01*
X184452651Y-102206885D01*
X184452651Y-101712116D01*
X184448176Y-101696877D01*
X184446786Y-101695672D01*
X184439103Y-101694001D01*
X183683176Y-101694001D01*
X183676355Y-101694371D01*
X183625735Y-101699869D01*
X183610478Y-101703496D01*
X183490563Y-101748450D01*
X183474977Y-101756982D01*
X183373357Y-101833143D01*
X183360794Y-101845706D01*
X183287977Y-101942865D01*
X183231117Y-101985380D01*
X183160299Y-101990406D01*
X183098006Y-101956346D01*
X183064016Y-101894014D01*
X183061151Y-101867300D01*
X183061151Y-101501000D01*
X183081153Y-101432879D01*
X183134809Y-101386386D01*
X183187151Y-101375000D01*
X189076651Y-101375000D01*
X189144772Y-101395002D01*
G37*
%TD.AperFunction*%
%TD*%
%TA.AperFunction,Conductor*%
%TO.N,VCC*%
G36*
X155144772Y-97995002D02*
G01*
X155191265Y-98048658D01*
X155202651Y-98101000D01*
X155202651Y-101175000D01*
X157076651Y-101175000D01*
X157144772Y-101195002D01*
X157191265Y-101248658D01*
X157202651Y-101301000D01*
X157202651Y-114175000D01*
X149528651Y-114175000D01*
X149460530Y-114154998D01*
X149414037Y-114101342D01*
X149402651Y-114049000D01*
X149402651Y-113194025D01*
X154746651Y-113194025D01*
X154747858Y-113206279D01*
X154759084Y-113262717D01*
X154768398Y-113285203D01*
X154811193Y-113349249D01*
X154828402Y-113366458D01*
X154892448Y-113409253D01*
X154914934Y-113418567D01*
X154971372Y-113429793D01*
X154983626Y-113431000D01*
X155434536Y-113431000D01*
X155449775Y-113426525D01*
X155450980Y-113425135D01*
X155452651Y-113417452D01*
X155452651Y-113412885D01*
X156152651Y-113412885D01*
X156157126Y-113428124D01*
X156158516Y-113429329D01*
X156166199Y-113431000D01*
X156621676Y-113431000D01*
X156633930Y-113429793D01*
X156690368Y-113418567D01*
X156712854Y-113409253D01*
X156776900Y-113366458D01*
X156794109Y-113349249D01*
X156836904Y-113285203D01*
X156846218Y-113262717D01*
X156857444Y-113206279D01*
X156858651Y-113194025D01*
X156858651Y-112743115D01*
X156854176Y-112727876D01*
X156852786Y-112726671D01*
X156845103Y-112725000D01*
X156170766Y-112725000D01*
X156155527Y-112729475D01*
X156154322Y-112730865D01*
X156152651Y-112738548D01*
X156152651Y-113412885D01*
X155452651Y-113412885D01*
X155452651Y-112743115D01*
X155448176Y-112727876D01*
X155446786Y-112726671D01*
X155439103Y-112725000D01*
X154764766Y-112725000D01*
X154749527Y-112729475D01*
X154748322Y-112730865D01*
X154746651Y-112738548D01*
X154746651Y-113194025D01*
X149402651Y-113194025D01*
X149402651Y-112006885D01*
X154746651Y-112006885D01*
X154751126Y-112022124D01*
X154752516Y-112023329D01*
X154760199Y-112025000D01*
X155434536Y-112025000D01*
X155449775Y-112020525D01*
X155450980Y-112019135D01*
X155452651Y-112011452D01*
X155452651Y-112006885D01*
X156152651Y-112006885D01*
X156157126Y-112022124D01*
X156158516Y-112023329D01*
X156166199Y-112025000D01*
X156840536Y-112025000D01*
X156855775Y-112020525D01*
X156856980Y-112019135D01*
X156858651Y-112011452D01*
X156858651Y-111555975D01*
X156857444Y-111543721D01*
X156846218Y-111487283D01*
X156836904Y-111464797D01*
X156794109Y-111400751D01*
X156776900Y-111383542D01*
X156712854Y-111340747D01*
X156690368Y-111331433D01*
X156633930Y-111320207D01*
X156621676Y-111319000D01*
X156170766Y-111319000D01*
X156155527Y-111323475D01*
X156154322Y-111324865D01*
X156152651Y-111332548D01*
X156152651Y-112006885D01*
X155452651Y-112006885D01*
X155452651Y-111337115D01*
X155448176Y-111321876D01*
X155446786Y-111320671D01*
X155439103Y-111319000D01*
X154983626Y-111319000D01*
X154971372Y-111320207D01*
X154914934Y-111331433D01*
X154892448Y-111340747D01*
X154828402Y-111383542D01*
X154811193Y-111400751D01*
X154768398Y-111464797D01*
X154759084Y-111487283D01*
X154747858Y-111543721D01*
X154746651Y-111555975D01*
X154746651Y-112006885D01*
X149402651Y-112006885D01*
X149402651Y-106441925D01*
X154445350Y-106441925D01*
X154446557Y-106454179D01*
X154457783Y-106510617D01*
X154467097Y-106533103D01*
X154509892Y-106597149D01*
X154527101Y-106614358D01*
X154591147Y-106657153D01*
X154613633Y-106666467D01*
X154670071Y-106677693D01*
X154682325Y-106678900D01*
X155209535Y-106678900D01*
X155224774Y-106674425D01*
X155225979Y-106673035D01*
X155227650Y-106665352D01*
X155227650Y-106660785D01*
X155927650Y-106660785D01*
X155932125Y-106676024D01*
X155933515Y-106677229D01*
X155941198Y-106678900D01*
X156472975Y-106678900D01*
X156485229Y-106677693D01*
X156541667Y-106666467D01*
X156564153Y-106657153D01*
X156628199Y-106614358D01*
X156645408Y-106597149D01*
X156688203Y-106533103D01*
X156697517Y-106510617D01*
X156708743Y-106454179D01*
X156709950Y-106441925D01*
X156709950Y-104543115D01*
X156705475Y-104527876D01*
X156704085Y-104526671D01*
X156696402Y-104525000D01*
X155945765Y-104525000D01*
X155930526Y-104529475D01*
X155929321Y-104530865D01*
X155927650Y-104538548D01*
X155927650Y-106660785D01*
X155227650Y-106660785D01*
X155227650Y-104543115D01*
X155223175Y-104527876D01*
X155221785Y-104526671D01*
X155214102Y-104525000D01*
X154463465Y-104525000D01*
X154448226Y-104529475D01*
X154447021Y-104530865D01*
X154445350Y-104538548D01*
X154445350Y-106441925D01*
X149402651Y-106441925D01*
X149402651Y-103806885D01*
X154445350Y-103806885D01*
X154449825Y-103822124D01*
X154451215Y-103823329D01*
X154458898Y-103825000D01*
X155209535Y-103825000D01*
X155224774Y-103820525D01*
X155225979Y-103819135D01*
X155227650Y-103811452D01*
X155227650Y-103806885D01*
X155927650Y-103806885D01*
X155932125Y-103822124D01*
X155933515Y-103823329D01*
X155941198Y-103825000D01*
X156691835Y-103825000D01*
X156707074Y-103820525D01*
X156708279Y-103819135D01*
X156709950Y-103811452D01*
X156709950Y-101908075D01*
X156708743Y-101895821D01*
X156697517Y-101839383D01*
X156688203Y-101816897D01*
X156645408Y-101752851D01*
X156628199Y-101735642D01*
X156564153Y-101692847D01*
X156541667Y-101683533D01*
X156485229Y-101672307D01*
X156472975Y-101671100D01*
X155945765Y-101671100D01*
X155930526Y-101675575D01*
X155929321Y-101676965D01*
X155927650Y-101684648D01*
X155927650Y-103806885D01*
X155227650Y-103806885D01*
X155227650Y-101689215D01*
X155223175Y-101673976D01*
X155221785Y-101672771D01*
X155214102Y-101671100D01*
X154682325Y-101671100D01*
X154670071Y-101672307D01*
X154613633Y-101683533D01*
X154591147Y-101692847D01*
X154527101Y-101735642D01*
X154509892Y-101752851D01*
X154467097Y-101816897D01*
X154457783Y-101839383D01*
X154446557Y-101895821D01*
X154445350Y-101908075D01*
X154445350Y-103806885D01*
X149402651Y-103806885D01*
X149402651Y-100169475D01*
X151171652Y-100169475D01*
X151172022Y-100176296D01*
X151177520Y-100226916D01*
X151181147Y-100242173D01*
X151226101Y-100362088D01*
X151234633Y-100377674D01*
X151310794Y-100479294D01*
X151323357Y-100491857D01*
X151424977Y-100568018D01*
X151440563Y-100576550D01*
X151560483Y-100621506D01*
X151575728Y-100625131D01*
X151626359Y-100630631D01*
X151633173Y-100631000D01*
X152234536Y-100631000D01*
X152249775Y-100626525D01*
X152250980Y-100625135D01*
X152252651Y-100617452D01*
X152252651Y-100612884D01*
X152952651Y-100612884D01*
X152957126Y-100628123D01*
X152958516Y-100629328D01*
X152966199Y-100630999D01*
X153572126Y-100630999D01*
X153578947Y-100630629D01*
X153629567Y-100625131D01*
X153644824Y-100621504D01*
X153764739Y-100576550D01*
X153780325Y-100568018D01*
X153881945Y-100491857D01*
X153894508Y-100479294D01*
X153970669Y-100377674D01*
X153979201Y-100362088D01*
X154024157Y-100242168D01*
X154027782Y-100226923D01*
X154033282Y-100176292D01*
X154033651Y-100169478D01*
X154033651Y-100080615D01*
X154029176Y-100065376D01*
X154027786Y-100064171D01*
X154020103Y-100062500D01*
X152970766Y-100062500D01*
X152955527Y-100066975D01*
X152954322Y-100068365D01*
X152952651Y-100076048D01*
X152952651Y-100612884D01*
X152252651Y-100612884D01*
X152252651Y-100080615D01*
X152248176Y-100065376D01*
X152246786Y-100064171D01*
X152239103Y-100062500D01*
X151189767Y-100062500D01*
X151174528Y-100066975D01*
X151173323Y-100068365D01*
X151171652Y-100076048D01*
X151171652Y-100169475D01*
X149402651Y-100169475D01*
X149402651Y-99344385D01*
X151171651Y-99344385D01*
X151176126Y-99359624D01*
X151177516Y-99360829D01*
X151185199Y-99362500D01*
X152234536Y-99362500D01*
X152249775Y-99358025D01*
X152250980Y-99356635D01*
X152252651Y-99348952D01*
X152252651Y-99344385D01*
X152952651Y-99344385D01*
X152957126Y-99359624D01*
X152958516Y-99360829D01*
X152966199Y-99362500D01*
X154015535Y-99362500D01*
X154030774Y-99358025D01*
X154031979Y-99356635D01*
X154033650Y-99348952D01*
X154033650Y-99255525D01*
X154033280Y-99248704D01*
X154027782Y-99198084D01*
X154024155Y-99182827D01*
X153979201Y-99062912D01*
X153970669Y-99047326D01*
X153894508Y-98945706D01*
X153881945Y-98933143D01*
X153780325Y-98856982D01*
X153764739Y-98848450D01*
X153644819Y-98803494D01*
X153629574Y-98799869D01*
X153578943Y-98794369D01*
X153572129Y-98794000D01*
X152970766Y-98794000D01*
X152955527Y-98798475D01*
X152954322Y-98799865D01*
X152952651Y-98807548D01*
X152952651Y-99344385D01*
X152252651Y-99344385D01*
X152252651Y-98812116D01*
X152248176Y-98796877D01*
X152246786Y-98795672D01*
X152239103Y-98794001D01*
X151633176Y-98794001D01*
X151626355Y-98794371D01*
X151575735Y-98799869D01*
X151560478Y-98803496D01*
X151440563Y-98848450D01*
X151424977Y-98856982D01*
X151323357Y-98933143D01*
X151310794Y-98945706D01*
X151234633Y-99047326D01*
X151226101Y-99062912D01*
X151181145Y-99182832D01*
X151177520Y-99198077D01*
X151172020Y-99248708D01*
X151171651Y-99255522D01*
X151171651Y-99344385D01*
X149402651Y-99344385D01*
X149402651Y-98101000D01*
X149422653Y-98032879D01*
X149476309Y-97986386D01*
X149528651Y-97975000D01*
X155076651Y-97975000D01*
X155144772Y-97995002D01*
G37*
%TD.AperFunction*%
%TD*%
%TA.AperFunction,Conductor*%
%TO.N,Net-(C51-Pad1)*%
G36*
X170865051Y-108395002D02*
G01*
X170911544Y-108448658D01*
X170921648Y-108518932D01*
X170892154Y-108583512D01*
X170866932Y-108605765D01*
X170829102Y-108631042D01*
X170811893Y-108648251D01*
X170769098Y-108712297D01*
X170759784Y-108734783D01*
X170748558Y-108791221D01*
X170747351Y-108803475D01*
X170747351Y-109406885D01*
X170751826Y-109422124D01*
X170753216Y-109423329D01*
X170760899Y-109425000D01*
X172739836Y-109425000D01*
X172755075Y-109420525D01*
X172756280Y-109419135D01*
X172757951Y-109411452D01*
X172757951Y-108803475D01*
X172756744Y-108791221D01*
X172745518Y-108734783D01*
X172736204Y-108712297D01*
X172693409Y-108648251D01*
X172676200Y-108631042D01*
X172638370Y-108605765D01*
X172592842Y-108551288D01*
X172583994Y-108480845D01*
X172614635Y-108416801D01*
X172675037Y-108379490D01*
X172708372Y-108375000D01*
X178476651Y-108375000D01*
X178544772Y-108395002D01*
X178591265Y-108448658D01*
X178602651Y-108501000D01*
X178602651Y-112849000D01*
X178582649Y-112917121D01*
X178528993Y-112963614D01*
X178476651Y-112975000D01*
X173802651Y-112975000D01*
X173802651Y-118849000D01*
X173782649Y-118917121D01*
X173728993Y-118963614D01*
X173676651Y-118975000D01*
X171928651Y-118975000D01*
X171860530Y-118954998D01*
X171814037Y-118901342D01*
X171802651Y-118849000D01*
X171802651Y-118762508D01*
X171822653Y-118694387D01*
X171827957Y-118686956D01*
X171832203Y-118682702D01*
X171863778Y-118631479D01*
X171916547Y-118583987D01*
X171986619Y-118572563D01*
X172046601Y-118596770D01*
X172112106Y-118645864D01*
X172127692Y-118654396D01*
X172210687Y-118685509D01*
X172224753Y-118686539D01*
X172227651Y-118681252D01*
X172227651Y-118673754D01*
X172927651Y-118673754D01*
X172931624Y-118687285D01*
X172937591Y-118688143D01*
X173027610Y-118654396D01*
X173043196Y-118645864D01*
X173139087Y-118573997D01*
X173151648Y-118561436D01*
X173223515Y-118465545D01*
X173232047Y-118449960D01*
X173274488Y-118336746D01*
X173274583Y-118336350D01*
X173273162Y-118328419D01*
X173260727Y-118325000D01*
X172945766Y-118325000D01*
X172930527Y-118329475D01*
X172929322Y-118330865D01*
X172927651Y-118338548D01*
X172927651Y-118673754D01*
X172227651Y-118673754D01*
X172227651Y-117606885D01*
X172927651Y-117606885D01*
X172932126Y-117622124D01*
X172933516Y-117623329D01*
X172941199Y-117625000D01*
X173259618Y-117625000D01*
X173273844Y-117620823D01*
X173274832Y-117614705D01*
X173274486Y-117613248D01*
X173232047Y-117500040D01*
X173223515Y-117484455D01*
X173151648Y-117388564D01*
X173139087Y-117376003D01*
X173043196Y-117304136D01*
X173027610Y-117295604D01*
X172944615Y-117264491D01*
X172930549Y-117263461D01*
X172927651Y-117268748D01*
X172927651Y-117606885D01*
X172227651Y-117606885D01*
X172227651Y-117276246D01*
X172223678Y-117262715D01*
X172217711Y-117261857D01*
X172127692Y-117295604D01*
X172112106Y-117304136D01*
X172046566Y-117353256D01*
X171980059Y-117378104D01*
X171910677Y-117363051D01*
X171863858Y-117318734D01*
X171831403Y-117266287D01*
X171829247Y-117264134D01*
X171803268Y-117199951D01*
X171802986Y-117194256D01*
X171802651Y-117193115D01*
X171802651Y-117175000D01*
X171789104Y-117175000D01*
X171775868Y-117172121D01*
X171776137Y-117170883D01*
X171722038Y-117154998D01*
X171714607Y-117149694D01*
X171710353Y-117145448D01*
X171564752Y-117055698D01*
X171402408Y-117001851D01*
X171395571Y-117001151D01*
X171395569Y-117001150D01*
X171354250Y-116996917D01*
X171301383Y-116991500D01*
X171282234Y-116991500D01*
X171250318Y-116986559D01*
X171250244Y-116986909D01*
X171244217Y-116985628D01*
X171238345Y-116983765D01*
X171232228Y-116983079D01*
X171232224Y-116983078D01*
X171159393Y-116974909D01*
X171084424Y-116966500D01*
X170486840Y-116966500D01*
X170473232Y-116965763D01*
X170441736Y-116962341D01*
X170441732Y-116962341D01*
X170435611Y-116961676D01*
X170417611Y-116963251D01*
X170385609Y-116966050D01*
X170380784Y-116966379D01*
X170378308Y-116966500D01*
X170375231Y-116966500D01*
X170372176Y-116966800D01*
X170372147Y-116966801D01*
X170340948Y-116969861D01*
X170271201Y-116956603D01*
X170219693Y-116907741D01*
X170202651Y-116844463D01*
X170202651Y-115744475D01*
X170621652Y-115744475D01*
X170622022Y-115751296D01*
X170627520Y-115801916D01*
X170631147Y-115817173D01*
X170676101Y-115937088D01*
X170684633Y-115952674D01*
X170760794Y-116054294D01*
X170773357Y-116066857D01*
X170874977Y-116143018D01*
X170890563Y-116151550D01*
X171010483Y-116196506D01*
X171025728Y-116200131D01*
X171076359Y-116205631D01*
X171083173Y-116206000D01*
X171172036Y-116206000D01*
X171187275Y-116201525D01*
X171188480Y-116200135D01*
X171190151Y-116192452D01*
X171190151Y-116187884D01*
X171890151Y-116187884D01*
X171894626Y-116203123D01*
X171896016Y-116204328D01*
X171903699Y-116205999D01*
X171997126Y-116205999D01*
X172003947Y-116205629D01*
X172054567Y-116200131D01*
X172069824Y-116196504D01*
X172189739Y-116151550D01*
X172205325Y-116143018D01*
X172306945Y-116066857D01*
X172319508Y-116054294D01*
X172395669Y-115952674D01*
X172404201Y-115937088D01*
X172449157Y-115817168D01*
X172452782Y-115801923D01*
X172458282Y-115751292D01*
X172458651Y-115744478D01*
X172458651Y-115143115D01*
X172454176Y-115127876D01*
X172452786Y-115126671D01*
X172445103Y-115125000D01*
X171908266Y-115125000D01*
X171893027Y-115129475D01*
X171891822Y-115130865D01*
X171890151Y-115138548D01*
X171890151Y-116187884D01*
X171190151Y-116187884D01*
X171190151Y-115143115D01*
X171185676Y-115127876D01*
X171184286Y-115126671D01*
X171176603Y-115125000D01*
X170639767Y-115125000D01*
X170624528Y-115129475D01*
X170623323Y-115130865D01*
X170621652Y-115138548D01*
X170621652Y-115744475D01*
X170202651Y-115744475D01*
X170202651Y-114406885D01*
X170621651Y-114406885D01*
X170626126Y-114422124D01*
X170627516Y-114423329D01*
X170635199Y-114425000D01*
X171172036Y-114425000D01*
X171187275Y-114420525D01*
X171188480Y-114419135D01*
X171190151Y-114411452D01*
X171190151Y-114406885D01*
X171890151Y-114406885D01*
X171894626Y-114422124D01*
X171896016Y-114423329D01*
X171903699Y-114425000D01*
X172440535Y-114425000D01*
X172455774Y-114420525D01*
X172456979Y-114419135D01*
X172458650Y-114411452D01*
X172458650Y-113805525D01*
X172458280Y-113798704D01*
X172452782Y-113748084D01*
X172449155Y-113732827D01*
X172404201Y-113612912D01*
X172395669Y-113597326D01*
X172319508Y-113495706D01*
X172306945Y-113483143D01*
X172205325Y-113406982D01*
X172189739Y-113398450D01*
X172069819Y-113353494D01*
X172054574Y-113349869D01*
X172003943Y-113344369D01*
X171997129Y-113344000D01*
X171908266Y-113344000D01*
X171893027Y-113348475D01*
X171891822Y-113349865D01*
X171890151Y-113357548D01*
X171890151Y-114406885D01*
X171190151Y-114406885D01*
X171190151Y-113362116D01*
X171185676Y-113346877D01*
X171184286Y-113345672D01*
X171176603Y-113344001D01*
X171083176Y-113344001D01*
X171076355Y-113344371D01*
X171025735Y-113349869D01*
X171010478Y-113353496D01*
X170890563Y-113398450D01*
X170874977Y-113406982D01*
X170773357Y-113483143D01*
X170760794Y-113495706D01*
X170684633Y-113597326D01*
X170676101Y-113612912D01*
X170631145Y-113732832D01*
X170627520Y-113748077D01*
X170622020Y-113798708D01*
X170621651Y-113805522D01*
X170621651Y-114406885D01*
X170202651Y-114406885D01*
X170202651Y-111460525D01*
X176327651Y-111460525D01*
X176328858Y-111472779D01*
X176340084Y-111529217D01*
X176349398Y-111551703D01*
X176392193Y-111615749D01*
X176409402Y-111632958D01*
X176473448Y-111675753D01*
X176495934Y-111685067D01*
X176552372Y-111696293D01*
X176564626Y-111697500D01*
X176894536Y-111697500D01*
X176909775Y-111693025D01*
X176910980Y-111691635D01*
X176912651Y-111683952D01*
X176912651Y-111679385D01*
X177612651Y-111679385D01*
X177617126Y-111694624D01*
X177618516Y-111695829D01*
X177626199Y-111697500D01*
X177960676Y-111697500D01*
X177972930Y-111696293D01*
X178029368Y-111685067D01*
X178051854Y-111675753D01*
X178115900Y-111632958D01*
X178133109Y-111615749D01*
X178175904Y-111551703D01*
X178185218Y-111529217D01*
X178196444Y-111472779D01*
X178197651Y-111460525D01*
X178197651Y-111130615D01*
X178193176Y-111115376D01*
X178191786Y-111114171D01*
X178184103Y-111112500D01*
X177630766Y-111112500D01*
X177615527Y-111116975D01*
X177614322Y-111118365D01*
X177612651Y-111126048D01*
X177612651Y-111679385D01*
X176912651Y-111679385D01*
X176912651Y-111130615D01*
X176908176Y-111115376D01*
X176906786Y-111114171D01*
X176899103Y-111112500D01*
X176345766Y-111112500D01*
X176330527Y-111116975D01*
X176329322Y-111118365D01*
X176327651Y-111126048D01*
X176327651Y-111460525D01*
X170202651Y-111460525D01*
X170202651Y-110746525D01*
X170747351Y-110746525D01*
X170748558Y-110758779D01*
X170759784Y-110815217D01*
X170769098Y-110837703D01*
X170811893Y-110901749D01*
X170829102Y-110918958D01*
X170893148Y-110961753D01*
X170915634Y-110971067D01*
X170972072Y-110982293D01*
X170984326Y-110983500D01*
X171384536Y-110983500D01*
X171399775Y-110979025D01*
X171400980Y-110977635D01*
X171402651Y-110969952D01*
X171402651Y-110965385D01*
X172102651Y-110965385D01*
X172107126Y-110980624D01*
X172108516Y-110981829D01*
X172116199Y-110983500D01*
X172520976Y-110983500D01*
X172533230Y-110982293D01*
X172589668Y-110971067D01*
X172612154Y-110961753D01*
X172676200Y-110918958D01*
X172693409Y-110901749D01*
X172736204Y-110837703D01*
X172745518Y-110815217D01*
X172756744Y-110758779D01*
X172757951Y-110746525D01*
X172757951Y-110394385D01*
X176327651Y-110394385D01*
X176332126Y-110409624D01*
X176333516Y-110410829D01*
X176341199Y-110412500D01*
X176894536Y-110412500D01*
X176909775Y-110408025D01*
X176910980Y-110406635D01*
X176912651Y-110398952D01*
X176912651Y-110394385D01*
X177612651Y-110394385D01*
X177617126Y-110409624D01*
X177618516Y-110410829D01*
X177626199Y-110412500D01*
X178179536Y-110412500D01*
X178194775Y-110408025D01*
X178195980Y-110406635D01*
X178197651Y-110398952D01*
X178197651Y-110064475D01*
X178196444Y-110052221D01*
X178185218Y-109995783D01*
X178175904Y-109973297D01*
X178133109Y-109909251D01*
X178115900Y-109892042D01*
X178051854Y-109849247D01*
X178029368Y-109839933D01*
X177972930Y-109828707D01*
X177960676Y-109827500D01*
X177630766Y-109827500D01*
X177615527Y-109831975D01*
X177614322Y-109833365D01*
X177612651Y-109841048D01*
X177612651Y-110394385D01*
X176912651Y-110394385D01*
X176912651Y-109845615D01*
X176908176Y-109830376D01*
X176906786Y-109829171D01*
X176899103Y-109827500D01*
X176564626Y-109827500D01*
X176552372Y-109828707D01*
X176495934Y-109839933D01*
X176473448Y-109849247D01*
X176409402Y-109892042D01*
X176392193Y-109909251D01*
X176349398Y-109973297D01*
X176340084Y-109995783D01*
X176328858Y-110052221D01*
X176327651Y-110064475D01*
X176327651Y-110394385D01*
X172757951Y-110394385D01*
X172757951Y-110143115D01*
X172753476Y-110127876D01*
X172752086Y-110126671D01*
X172744403Y-110125000D01*
X172120766Y-110125000D01*
X172105527Y-110129475D01*
X172104322Y-110130865D01*
X172102651Y-110138548D01*
X172102651Y-110965385D01*
X171402651Y-110965385D01*
X171402651Y-110143115D01*
X171398176Y-110127876D01*
X171396786Y-110126671D01*
X171389103Y-110125000D01*
X170765466Y-110125000D01*
X170750227Y-110129475D01*
X170749022Y-110130865D01*
X170747351Y-110138548D01*
X170747351Y-110746525D01*
X170202651Y-110746525D01*
X170202651Y-108501000D01*
X170222653Y-108432879D01*
X170276309Y-108386386D01*
X170328651Y-108375000D01*
X170796930Y-108375000D01*
X170865051Y-108395002D01*
G37*
%TD.AperFunction*%
%TD*%
%TA.AperFunction,Conductor*%
%TO.N,+15V*%
G36*
X186740732Y-98595002D02*
G01*
X186787225Y-98648658D01*
X186798092Y-98689579D01*
X186802132Y-98733968D01*
X186802651Y-98745389D01*
X186802651Y-99375000D01*
X187015143Y-99375000D01*
X187083264Y-99395002D01*
X187090695Y-99400306D01*
X187094949Y-99404552D01*
X187146172Y-99436127D01*
X187193664Y-99488896D01*
X187205088Y-99558968D01*
X187180881Y-99618950D01*
X187131787Y-99684455D01*
X187123255Y-99700041D01*
X187092142Y-99783036D01*
X187091112Y-99797102D01*
X187096399Y-99800000D01*
X188501405Y-99800000D01*
X188514936Y-99796027D01*
X188515794Y-99790060D01*
X188511546Y-99778729D01*
X188506363Y-99707922D01*
X188540284Y-99645553D01*
X188602540Y-99611424D01*
X188629528Y-99608500D01*
X189076651Y-99608500D01*
X189144772Y-99628502D01*
X189191265Y-99682158D01*
X189202651Y-99734500D01*
X189202651Y-100741000D01*
X189182649Y-100809121D01*
X189128993Y-100855614D01*
X189076651Y-100867000D01*
X188536950Y-100867000D01*
X188468829Y-100846998D01*
X188422336Y-100793342D01*
X188412232Y-100723068D01*
X188436124Y-100665435D01*
X188473515Y-100615545D01*
X188482047Y-100599959D01*
X188513160Y-100516964D01*
X188514190Y-100502898D01*
X188508903Y-100500000D01*
X187103897Y-100500000D01*
X187090366Y-100503973D01*
X187089508Y-100509940D01*
X187123255Y-100599959D01*
X187131787Y-100615545D01*
X187169178Y-100665435D01*
X187194026Y-100731942D01*
X187178973Y-100801324D01*
X187128799Y-100851554D01*
X187068352Y-100867000D01*
X186374457Y-100867000D01*
X186306336Y-100846998D01*
X186259843Y-100793342D01*
X186249739Y-100723068D01*
X186273631Y-100665434D01*
X186320671Y-100602670D01*
X186329201Y-100587088D01*
X186374157Y-100467168D01*
X186377782Y-100451923D01*
X186383282Y-100401292D01*
X186383651Y-100394478D01*
X186383651Y-100343115D01*
X186379176Y-100327876D01*
X186377786Y-100326671D01*
X186370103Y-100325000D01*
X184578651Y-100325000D01*
X184510530Y-100304998D01*
X184464037Y-100251342D01*
X184452651Y-100199000D01*
X184452651Y-99606885D01*
X185152651Y-99606885D01*
X185157126Y-99622124D01*
X185158516Y-99623329D01*
X185166199Y-99625000D01*
X186365535Y-99625000D01*
X186380774Y-99620525D01*
X186381979Y-99619135D01*
X186383650Y-99611452D01*
X186383650Y-99555525D01*
X186383280Y-99548704D01*
X186377782Y-99498084D01*
X186374155Y-99482827D01*
X186329201Y-99362912D01*
X186320669Y-99347326D01*
X186244508Y-99245706D01*
X186231945Y-99233143D01*
X186130325Y-99156982D01*
X186114739Y-99148450D01*
X185994819Y-99103494D01*
X185979574Y-99099869D01*
X185928943Y-99094369D01*
X185922129Y-99094000D01*
X185170766Y-99094000D01*
X185155527Y-99098475D01*
X185154322Y-99099865D01*
X185152651Y-99107548D01*
X185152651Y-99606885D01*
X184452651Y-99606885D01*
X184452651Y-99112116D01*
X184448176Y-99096877D01*
X184446786Y-99095672D01*
X184439103Y-99094001D01*
X183683176Y-99094001D01*
X183676355Y-99094371D01*
X183625735Y-99099869D01*
X183610478Y-99103496D01*
X183490563Y-99148450D01*
X183474977Y-99156982D01*
X183373357Y-99233143D01*
X183360794Y-99245706D01*
X183284633Y-99347326D01*
X183276101Y-99362911D01*
X183246633Y-99441518D01*
X183203992Y-99498283D01*
X183137431Y-99522983D01*
X183068082Y-99507776D01*
X183017963Y-99457490D01*
X183002651Y-99397289D01*
X183002651Y-98701000D01*
X183022653Y-98632879D01*
X183076309Y-98586386D01*
X183128651Y-98575000D01*
X186672611Y-98575000D01*
X186740732Y-98595002D01*
G37*
%TD.AperFunction*%
%TD*%
%TA.AperFunction,Conductor*%
%TO.N,+5V*%
G36*
X199654961Y-72995002D02*
G01*
X199701454Y-73048658D01*
X199711558Y-73118932D01*
X199687666Y-73176565D01*
X199634633Y-73247326D01*
X199626101Y-73262912D01*
X199581145Y-73382832D01*
X199577520Y-73398077D01*
X199572020Y-73448708D01*
X199571651Y-73455522D01*
X199571651Y-73640385D01*
X199576126Y-73655624D01*
X199577516Y-73656829D01*
X199585199Y-73658500D01*
X202415535Y-73658500D01*
X202430774Y-73654025D01*
X202431979Y-73652635D01*
X202433650Y-73644952D01*
X202433650Y-73455525D01*
X202433280Y-73448704D01*
X202427782Y-73398084D01*
X202424155Y-73382827D01*
X202379201Y-73262912D01*
X202370669Y-73247326D01*
X202317636Y-73176565D01*
X202292788Y-73110059D01*
X202307841Y-73040676D01*
X202358015Y-72990446D01*
X202418462Y-72975000D01*
X203002651Y-72975000D01*
X203002651Y-81649000D01*
X202982649Y-81717121D01*
X202928993Y-81763614D01*
X202876651Y-81775000D01*
X201160502Y-81775000D01*
X201135921Y-81772579D01*
X201121482Y-81769707D01*
X201115414Y-81768500D01*
X200090317Y-81768500D01*
X199064889Y-81768501D01*
X199044377Y-81772581D01*
X199019806Y-81775000D01*
X198728651Y-81775000D01*
X198660530Y-81754998D01*
X198614037Y-81701342D01*
X198602651Y-81649000D01*
X198602651Y-81357254D01*
X198622653Y-81289133D01*
X198676309Y-81242640D01*
X198746583Y-81232536D01*
X198811163Y-81262030D01*
X198845059Y-81309035D01*
X198855898Y-81335202D01*
X198898693Y-81399249D01*
X198915902Y-81416458D01*
X198979948Y-81459253D01*
X199002434Y-81468567D01*
X199058872Y-81479793D01*
X199071126Y-81481000D01*
X199818036Y-81481000D01*
X199833275Y-81476525D01*
X199834480Y-81475135D01*
X199836151Y-81467452D01*
X199836151Y-81462885D01*
X200344151Y-81462885D01*
X200348626Y-81478124D01*
X200350016Y-81479329D01*
X200357699Y-81481000D01*
X201109176Y-81481000D01*
X201121430Y-81479793D01*
X201177868Y-81468567D01*
X201200354Y-81459253D01*
X201264400Y-81416458D01*
X201281609Y-81399249D01*
X201324404Y-81335203D01*
X201333718Y-81312717D01*
X201344944Y-81256279D01*
X201346151Y-81244025D01*
X201346151Y-80747115D01*
X201341676Y-80731876D01*
X201340286Y-80730671D01*
X201332603Y-80729000D01*
X200362266Y-80729000D01*
X200347027Y-80733475D01*
X200345822Y-80734865D01*
X200344151Y-80742548D01*
X200344151Y-81462885D01*
X199836151Y-81462885D01*
X199836151Y-80202885D01*
X200344151Y-80202885D01*
X200348626Y-80218124D01*
X200350016Y-80219329D01*
X200357699Y-80221000D01*
X201328036Y-80221000D01*
X201343275Y-80216525D01*
X201344480Y-80215135D01*
X201346151Y-80207452D01*
X201346151Y-79705975D01*
X201344944Y-79693721D01*
X201333718Y-79637283D01*
X201324404Y-79614797D01*
X201281609Y-79550751D01*
X201264400Y-79533542D01*
X201200354Y-79490747D01*
X201177868Y-79481433D01*
X201121430Y-79470207D01*
X201109176Y-79469000D01*
X200362266Y-79469000D01*
X200347027Y-79473475D01*
X200345822Y-79474865D01*
X200344151Y-79482548D01*
X200344151Y-80202885D01*
X199836151Y-80202885D01*
X199836151Y-79487115D01*
X199831676Y-79471876D01*
X199830286Y-79470671D01*
X199822603Y-79469000D01*
X199071126Y-79469000D01*
X199058872Y-79470207D01*
X199002434Y-79481433D01*
X198979948Y-79490747D01*
X198915902Y-79533542D01*
X198898693Y-79550751D01*
X198855898Y-79614798D01*
X198845059Y-79640965D01*
X198800511Y-79696246D01*
X198733147Y-79718666D01*
X198664356Y-79701107D01*
X198615978Y-79649145D01*
X198602651Y-79592746D01*
X198602651Y-78112671D01*
X198622653Y-78044550D01*
X198676309Y-77998057D01*
X198746583Y-77987953D01*
X198804217Y-78011845D01*
X198849610Y-78045866D01*
X198865191Y-78054396D01*
X198978406Y-78096838D01*
X198993651Y-78100463D01*
X199041225Y-78105631D01*
X199043815Y-78105771D01*
X199058275Y-78101525D01*
X199059480Y-78100135D01*
X199061151Y-78092452D01*
X199061151Y-78087884D01*
X199569151Y-78087884D01*
X199573626Y-78103123D01*
X199575016Y-78104328D01*
X199582612Y-78105980D01*
X199589079Y-78105630D01*
X199636643Y-78100463D01*
X199651902Y-78096835D01*
X199765111Y-78054396D01*
X199780696Y-78045864D01*
X199876587Y-77973997D01*
X199889148Y-77961436D01*
X199961015Y-77865545D01*
X199969547Y-77849960D01*
X200011989Y-77736745D01*
X200015614Y-77721500D01*
X200020782Y-77673926D01*
X200021151Y-77667112D01*
X200021151Y-77647115D01*
X200016676Y-77631876D01*
X200015286Y-77630671D01*
X200007603Y-77629000D01*
X199587266Y-77629000D01*
X199572027Y-77633475D01*
X199570822Y-77634865D01*
X199569151Y-77642548D01*
X199569151Y-78087884D01*
X199061151Y-78087884D01*
X199061151Y-77102885D01*
X199569151Y-77102885D01*
X199573626Y-77118124D01*
X199575016Y-77119329D01*
X199582699Y-77121000D01*
X200003035Y-77121000D01*
X200018274Y-77116525D01*
X200019479Y-77115135D01*
X200021150Y-77107452D01*
X200021150Y-77082890D01*
X200020781Y-77076072D01*
X200015614Y-77028508D01*
X200011986Y-77013249D01*
X199969547Y-76900040D01*
X199961015Y-76884455D01*
X199889148Y-76788564D01*
X199876587Y-76776003D01*
X199780696Y-76704136D01*
X199765111Y-76695604D01*
X199651896Y-76653162D01*
X199636651Y-76649537D01*
X199589077Y-76644369D01*
X199586487Y-76644229D01*
X199572027Y-76648475D01*
X199570822Y-76649865D01*
X199569151Y-76657548D01*
X199569151Y-77102885D01*
X199061151Y-77102885D01*
X199061151Y-76662116D01*
X199056676Y-76646877D01*
X199055286Y-76645672D01*
X199047690Y-76644020D01*
X199041223Y-76644370D01*
X198993659Y-76649537D01*
X198978400Y-76653165D01*
X198865191Y-76695604D01*
X198849610Y-76704134D01*
X198804217Y-76738155D01*
X198737710Y-76763003D01*
X198668328Y-76747950D01*
X198618097Y-76697776D01*
X198602651Y-76637329D01*
X198602651Y-74369475D01*
X199571652Y-74369475D01*
X199572022Y-74376296D01*
X199577520Y-74426916D01*
X199581147Y-74442173D01*
X199626101Y-74562088D01*
X199634633Y-74577674D01*
X199710794Y-74679294D01*
X199723357Y-74691857D01*
X199824977Y-74768018D01*
X199840563Y-74776550D01*
X199960483Y-74821506D01*
X199975728Y-74825131D01*
X200026359Y-74830631D01*
X200033173Y-74831000D01*
X200730536Y-74831000D01*
X200745775Y-74826525D01*
X200746980Y-74825135D01*
X200748651Y-74817452D01*
X200748651Y-74812884D01*
X201256651Y-74812884D01*
X201261126Y-74828123D01*
X201262516Y-74829328D01*
X201270199Y-74830999D01*
X201972126Y-74830999D01*
X201978947Y-74830629D01*
X202029567Y-74825131D01*
X202044824Y-74821504D01*
X202164739Y-74776550D01*
X202180325Y-74768018D01*
X202281945Y-74691857D01*
X202294508Y-74679294D01*
X202370669Y-74577674D01*
X202379201Y-74562088D01*
X202424157Y-74442168D01*
X202427782Y-74426923D01*
X202433282Y-74376292D01*
X202433651Y-74369478D01*
X202433651Y-74184615D01*
X202429176Y-74169376D01*
X202427786Y-74168171D01*
X202420103Y-74166500D01*
X201274766Y-74166500D01*
X201259527Y-74170975D01*
X201258322Y-74172365D01*
X201256651Y-74180048D01*
X201256651Y-74812884D01*
X200748651Y-74812884D01*
X200748651Y-74184615D01*
X200744176Y-74169376D01*
X200742786Y-74168171D01*
X200735103Y-74166500D01*
X199589767Y-74166500D01*
X199574528Y-74170975D01*
X199573323Y-74172365D01*
X199571652Y-74180048D01*
X199571652Y-74369475D01*
X198602651Y-74369475D01*
X198602651Y-73101000D01*
X198622653Y-73032879D01*
X198676309Y-72986386D01*
X198728651Y-72975000D01*
X199586840Y-72975000D01*
X199654961Y-72995002D01*
G37*
%TD.AperFunction*%
%TD*%
%TA.AperFunction,Conductor*%
%TO.N,+5V*%
G36*
X203442866Y-72995002D02*
G01*
X203450310Y-73000174D01*
X203511864Y-73046307D01*
X203511867Y-73046309D01*
X203519046Y-73051689D01*
X203533974Y-73057285D01*
X203590739Y-73099927D01*
X203615438Y-73166489D01*
X203600230Y-73235838D01*
X203549944Y-73285956D01*
X203533972Y-73293249D01*
X203527693Y-73295603D01*
X203512106Y-73304136D01*
X203416215Y-73376003D01*
X203403654Y-73388564D01*
X203331787Y-73484455D01*
X203323255Y-73500040D01*
X203280813Y-73613255D01*
X203277188Y-73628500D01*
X203272020Y-73676074D01*
X203271880Y-73678664D01*
X203276126Y-73693124D01*
X203277516Y-73694329D01*
X203285199Y-73696000D01*
X204715535Y-73696000D01*
X204730774Y-73691525D01*
X204731979Y-73690135D01*
X204733631Y-73682539D01*
X204733281Y-73676072D01*
X204728114Y-73628508D01*
X204724486Y-73613249D01*
X204682047Y-73500040D01*
X204673515Y-73484455D01*
X204601648Y-73388564D01*
X204589087Y-73376003D01*
X204493196Y-73304136D01*
X204477609Y-73295603D01*
X204471330Y-73293249D01*
X204414565Y-73250608D01*
X204389864Y-73184047D01*
X204405071Y-73114698D01*
X204455356Y-73064579D01*
X204471328Y-73057285D01*
X204486256Y-73051689D01*
X204493435Y-73046309D01*
X204493438Y-73046307D01*
X204554992Y-73000174D01*
X204621498Y-72975326D01*
X204630557Y-72975000D01*
X205076651Y-72975000D01*
X205144772Y-72995002D01*
X205191265Y-73048658D01*
X205202651Y-73101000D01*
X205202651Y-75849000D01*
X205182649Y-75917121D01*
X205128993Y-75963614D01*
X205076651Y-75975000D01*
X200802651Y-75975000D01*
X200802651Y-74812885D01*
X201256651Y-74812885D01*
X201261126Y-74828124D01*
X201262516Y-74829329D01*
X201270199Y-74831000D01*
X201972126Y-74830999D01*
X201978947Y-74830629D01*
X202029567Y-74825131D01*
X202044824Y-74821504D01*
X202164739Y-74776550D01*
X202180325Y-74768018D01*
X202281945Y-74691857D01*
X202294508Y-74679294D01*
X202370669Y-74577674D01*
X202379201Y-74562088D01*
X202424157Y-74442168D01*
X202427782Y-74426923D01*
X202433282Y-74376292D01*
X202433651Y-74369478D01*
X202433651Y-74217461D01*
X203271671Y-74217461D01*
X203272021Y-74223928D01*
X203277188Y-74271492D01*
X203280816Y-74286751D01*
X203323255Y-74399960D01*
X203331787Y-74415545D01*
X203403654Y-74511436D01*
X203416215Y-74523997D01*
X203512106Y-74595864D01*
X203527691Y-74604396D01*
X203640906Y-74646838D01*
X203656151Y-74650463D01*
X203703725Y-74655631D01*
X203710539Y-74656000D01*
X203730536Y-74656000D01*
X203745775Y-74651525D01*
X203746980Y-74650135D01*
X203748651Y-74642452D01*
X203748651Y-74637884D01*
X204256651Y-74637884D01*
X204261126Y-74653123D01*
X204262516Y-74654328D01*
X204270199Y-74655999D01*
X204294761Y-74655999D01*
X204301579Y-74655630D01*
X204349143Y-74650463D01*
X204364402Y-74646835D01*
X204477611Y-74604396D01*
X204493196Y-74595864D01*
X204589087Y-74523997D01*
X204601648Y-74511436D01*
X204673515Y-74415545D01*
X204682047Y-74399960D01*
X204724489Y-74286745D01*
X204728114Y-74271500D01*
X204733282Y-74223926D01*
X204733422Y-74221336D01*
X204729176Y-74206876D01*
X204727786Y-74205671D01*
X204720103Y-74204000D01*
X204274766Y-74204000D01*
X204259527Y-74208475D01*
X204258322Y-74209865D01*
X204256651Y-74217548D01*
X204256651Y-74637884D01*
X203748651Y-74637884D01*
X203748651Y-74222115D01*
X203744176Y-74206876D01*
X203742786Y-74205671D01*
X203735103Y-74204000D01*
X203289767Y-74204000D01*
X203274528Y-74208475D01*
X203273323Y-74209865D01*
X203271671Y-74217461D01*
X202433651Y-74217461D01*
X202433651Y-74184615D01*
X202429176Y-74169376D01*
X202427786Y-74168171D01*
X202420103Y-74166500D01*
X201274766Y-74166500D01*
X201259527Y-74170975D01*
X201258322Y-74172365D01*
X201256651Y-74180048D01*
X201256651Y-74812885D01*
X200802651Y-74812885D01*
X200802651Y-73686920D01*
X200822309Y-73669886D01*
X200874651Y-73658500D01*
X202415535Y-73658500D01*
X202430774Y-73654025D01*
X202431979Y-73652635D01*
X202433650Y-73644952D01*
X202433650Y-73455525D01*
X202433280Y-73448704D01*
X202427782Y-73398084D01*
X202424155Y-73382827D01*
X202379201Y-73262912D01*
X202370669Y-73247326D01*
X202317636Y-73176565D01*
X202292788Y-73110059D01*
X202307841Y-73040676D01*
X202358015Y-72990446D01*
X202418462Y-72975000D01*
X203374745Y-72975000D01*
X203442866Y-72995002D01*
G37*
%TD.AperFunction*%
%TD*%
%TA.AperFunction,Conductor*%
%TO.N,Net-(C59-Pad1)*%
G36*
X202944772Y-83995002D02*
G01*
X202991265Y-84048658D01*
X203002651Y-84101000D01*
X203002651Y-93249000D01*
X202982649Y-93317121D01*
X202928993Y-93363614D01*
X202876651Y-93375000D01*
X198728651Y-93375000D01*
X198660530Y-93354998D01*
X198614037Y-93301342D01*
X198602651Y-93249000D01*
X198602651Y-92144475D01*
X199621652Y-92144475D01*
X199622022Y-92151296D01*
X199627520Y-92201916D01*
X199631147Y-92217173D01*
X199676101Y-92337088D01*
X199684633Y-92352674D01*
X199760794Y-92454294D01*
X199773357Y-92466857D01*
X199874977Y-92543018D01*
X199890563Y-92551550D01*
X200010483Y-92596506D01*
X200025728Y-92600131D01*
X200076359Y-92605631D01*
X200083173Y-92606000D01*
X200268036Y-92606000D01*
X200283275Y-92601525D01*
X200284480Y-92600135D01*
X200286151Y-92592452D01*
X200286151Y-92587884D01*
X200794151Y-92587884D01*
X200798626Y-92603123D01*
X200800016Y-92604328D01*
X200807699Y-92605999D01*
X200997126Y-92605999D01*
X201003947Y-92605629D01*
X201054567Y-92600131D01*
X201069824Y-92596504D01*
X201189739Y-92551550D01*
X201205325Y-92543018D01*
X201306945Y-92466857D01*
X201319508Y-92454294D01*
X201395669Y-92352674D01*
X201404201Y-92337088D01*
X201449157Y-92217168D01*
X201452782Y-92201923D01*
X201458282Y-92151292D01*
X201458651Y-92144478D01*
X201458651Y-91447115D01*
X201454176Y-91431876D01*
X201452786Y-91430671D01*
X201445103Y-91429000D01*
X200812266Y-91429000D01*
X200797027Y-91433475D01*
X200795822Y-91434865D01*
X200794151Y-91442548D01*
X200794151Y-92587884D01*
X200286151Y-92587884D01*
X200286151Y-91447115D01*
X200281676Y-91431876D01*
X200280286Y-91430671D01*
X200272603Y-91429000D01*
X199639767Y-91429000D01*
X199624528Y-91433475D01*
X199623323Y-91434865D01*
X199621652Y-91442548D01*
X199621652Y-92144475D01*
X198602651Y-92144475D01*
X198602651Y-90902885D01*
X199621651Y-90902885D01*
X199626126Y-90918124D01*
X199627516Y-90919329D01*
X199635199Y-90921000D01*
X200268036Y-90921000D01*
X200283275Y-90916525D01*
X200284480Y-90915135D01*
X200286151Y-90907452D01*
X200286151Y-90902885D01*
X200794151Y-90902885D01*
X200798626Y-90918124D01*
X200800016Y-90919329D01*
X200807699Y-90921000D01*
X201440535Y-90921000D01*
X201455774Y-90916525D01*
X201456979Y-90915135D01*
X201458650Y-90907452D01*
X201458650Y-90205525D01*
X201458280Y-90198704D01*
X201452782Y-90148084D01*
X201449155Y-90132827D01*
X201404201Y-90012912D01*
X201395669Y-89997326D01*
X201319508Y-89895706D01*
X201306945Y-89883143D01*
X201205325Y-89806982D01*
X201189739Y-89798450D01*
X201069819Y-89753494D01*
X201054574Y-89749869D01*
X201003943Y-89744369D01*
X200997129Y-89744000D01*
X200812266Y-89744000D01*
X200797027Y-89748475D01*
X200795822Y-89749865D01*
X200794151Y-89757548D01*
X200794151Y-90902885D01*
X200286151Y-90902885D01*
X200286151Y-89762116D01*
X200281676Y-89746877D01*
X200280286Y-89745672D01*
X200272603Y-89744001D01*
X200083176Y-89744001D01*
X200076355Y-89744371D01*
X200025735Y-89749869D01*
X200010478Y-89753496D01*
X199890563Y-89798450D01*
X199874977Y-89806982D01*
X199773357Y-89883143D01*
X199760794Y-89895706D01*
X199684633Y-89997326D01*
X199676101Y-90012912D01*
X199631145Y-90132832D01*
X199627520Y-90148077D01*
X199622020Y-90198708D01*
X199621651Y-90205522D01*
X199621651Y-90902885D01*
X198602651Y-90902885D01*
X198602651Y-88857500D01*
X198622653Y-88789379D01*
X198676309Y-88742886D01*
X198728651Y-88731500D01*
X199209324Y-88731500D01*
X199301536Y-88720749D01*
X199333096Y-88717070D01*
X199333098Y-88717070D01*
X199340368Y-88716222D01*
X199347248Y-88713725D01*
X199354375Y-88712040D01*
X199354512Y-88712620D01*
X199389313Y-88706500D01*
X199435725Y-88706500D01*
X199440512Y-88705980D01*
X199486758Y-88700956D01*
X199486759Y-88700956D01*
X199494609Y-88700103D01*
X199502003Y-88697331D01*
X199502004Y-88697331D01*
X199615353Y-88654839D01*
X199623756Y-88651689D01*
X199630935Y-88646309D01*
X199630938Y-88646307D01*
X199726944Y-88574354D01*
X199734124Y-88568973D01*
X199749555Y-88548384D01*
X199811458Y-88465787D01*
X199811460Y-88465784D01*
X199816840Y-88458605D01*
X199822436Y-88443677D01*
X199865078Y-88386912D01*
X199931640Y-88362213D01*
X200000989Y-88377421D01*
X200051107Y-88427707D01*
X200058400Y-88443679D01*
X200060754Y-88449958D01*
X200069287Y-88465545D01*
X200141154Y-88561436D01*
X200153715Y-88573997D01*
X200249606Y-88645864D01*
X200265191Y-88654396D01*
X200378406Y-88696838D01*
X200393651Y-88700463D01*
X200441225Y-88705631D01*
X200443815Y-88705771D01*
X200458275Y-88701525D01*
X200459480Y-88700135D01*
X200461151Y-88692452D01*
X200461151Y-88687884D01*
X200969151Y-88687884D01*
X200973626Y-88703123D01*
X200975016Y-88704328D01*
X200982612Y-88705980D01*
X200989079Y-88705630D01*
X201036643Y-88700463D01*
X201051902Y-88696835D01*
X201165111Y-88654396D01*
X201180696Y-88645864D01*
X201276587Y-88573997D01*
X201289148Y-88561436D01*
X201361015Y-88465545D01*
X201369547Y-88449960D01*
X201411989Y-88336745D01*
X201415614Y-88321500D01*
X201420782Y-88273926D01*
X201421151Y-88267112D01*
X201421151Y-88247115D01*
X201416676Y-88231876D01*
X201415286Y-88230671D01*
X201407603Y-88229000D01*
X200987266Y-88229000D01*
X200972027Y-88233475D01*
X200970822Y-88234865D01*
X200969151Y-88242548D01*
X200969151Y-88687884D01*
X200461151Y-88687884D01*
X200461151Y-87702885D01*
X200969151Y-87702885D01*
X200973626Y-87718124D01*
X200975016Y-87719329D01*
X200982699Y-87721000D01*
X201403035Y-87721000D01*
X201418274Y-87716525D01*
X201419479Y-87715135D01*
X201421150Y-87707452D01*
X201421150Y-87682890D01*
X201420781Y-87676072D01*
X201415614Y-87628508D01*
X201411986Y-87613249D01*
X201369547Y-87500040D01*
X201361015Y-87484455D01*
X201289148Y-87388564D01*
X201276587Y-87376003D01*
X201180696Y-87304136D01*
X201165111Y-87295604D01*
X201051896Y-87253162D01*
X201036651Y-87249537D01*
X200989077Y-87244369D01*
X200986487Y-87244229D01*
X200972027Y-87248475D01*
X200970822Y-87249865D01*
X200969151Y-87257548D01*
X200969151Y-87702885D01*
X200461151Y-87702885D01*
X200461151Y-87262116D01*
X200456676Y-87246877D01*
X200455286Y-87245672D01*
X200447690Y-87244020D01*
X200441223Y-87244370D01*
X200393659Y-87249537D01*
X200378400Y-87253165D01*
X200265191Y-87295604D01*
X200249606Y-87304136D01*
X200153715Y-87376003D01*
X200141154Y-87388564D01*
X200069287Y-87484455D01*
X200060754Y-87500042D01*
X200058400Y-87506321D01*
X200015759Y-87563086D01*
X199949198Y-87587787D01*
X199879849Y-87572580D01*
X199829730Y-87522295D01*
X199822436Y-87506323D01*
X199822435Y-87506321D01*
X199816840Y-87491395D01*
X199811460Y-87484216D01*
X199811458Y-87484213D01*
X199739505Y-87388207D01*
X199734124Y-87381027D01*
X199713535Y-87365596D01*
X199630938Y-87303693D01*
X199630935Y-87303691D01*
X199623756Y-87298311D01*
X199527204Y-87262116D01*
X199502004Y-87252669D01*
X199502003Y-87252669D01*
X199494609Y-87249897D01*
X199486759Y-87249044D01*
X199486758Y-87249044D01*
X199439122Y-87243869D01*
X199439121Y-87243869D01*
X199435725Y-87243500D01*
X199373830Y-87243500D01*
X199343881Y-87239889D01*
X199259292Y-87219190D01*
X199251695Y-87218719D01*
X199250110Y-87218620D01*
X199250097Y-87218620D01*
X199248169Y-87218500D01*
X198728651Y-87218500D01*
X198660530Y-87198498D01*
X198614037Y-87144842D01*
X198602651Y-87092500D01*
X198602651Y-85957254D01*
X198622653Y-85889133D01*
X198676309Y-85842640D01*
X198746583Y-85832536D01*
X198811163Y-85862030D01*
X198845059Y-85909035D01*
X198855898Y-85935202D01*
X198898693Y-85999249D01*
X198915902Y-86016458D01*
X198979948Y-86059253D01*
X199002434Y-86068567D01*
X199058872Y-86079793D01*
X199071126Y-86081000D01*
X199818036Y-86081000D01*
X199833275Y-86076525D01*
X199834480Y-86075135D01*
X199836151Y-86067452D01*
X199836151Y-86062885D01*
X200344151Y-86062885D01*
X200348626Y-86078124D01*
X200350016Y-86079329D01*
X200357699Y-86081000D01*
X201109176Y-86081000D01*
X201121430Y-86079793D01*
X201177868Y-86068567D01*
X201200354Y-86059253D01*
X201264400Y-86016458D01*
X201281609Y-85999249D01*
X201324404Y-85935203D01*
X201333718Y-85912717D01*
X201344944Y-85856279D01*
X201346151Y-85844025D01*
X201346151Y-85347115D01*
X201341676Y-85331876D01*
X201340286Y-85330671D01*
X201332603Y-85329000D01*
X200362266Y-85329000D01*
X200347027Y-85333475D01*
X200345822Y-85334865D01*
X200344151Y-85342548D01*
X200344151Y-86062885D01*
X199836151Y-86062885D01*
X199836151Y-84947000D01*
X199856153Y-84878879D01*
X199909809Y-84832386D01*
X199962151Y-84821000D01*
X201328036Y-84821000D01*
X201343275Y-84816525D01*
X201344480Y-84815135D01*
X201346151Y-84807452D01*
X201346151Y-84305975D01*
X201344944Y-84293721D01*
X201333718Y-84237283D01*
X201324405Y-84214800D01*
X201295140Y-84171003D01*
X201273925Y-84103250D01*
X201292708Y-84034783D01*
X201345525Y-83987339D01*
X201399905Y-83975000D01*
X202876651Y-83975000D01*
X202944772Y-83995002D01*
G37*
%TD.AperFunction*%
%TD*%
%TA.AperFunction,Conductor*%
%TO.N,VCC*%
G36*
X166806157Y-108595002D02*
G01*
X166852650Y-108648658D01*
X166861615Y-108725583D01*
X166848558Y-108791223D01*
X166847351Y-108803475D01*
X166847351Y-109406885D01*
X166851826Y-109422124D01*
X166853216Y-109423329D01*
X166860899Y-109425000D01*
X168839836Y-109425000D01*
X168855075Y-109420525D01*
X168856280Y-109419135D01*
X168857951Y-109411452D01*
X168857951Y-108803475D01*
X168856744Y-108791223D01*
X168843687Y-108725583D01*
X168850015Y-108654869D01*
X168893568Y-108598801D01*
X168967266Y-108575000D01*
X169568651Y-108575000D01*
X169636772Y-108595002D01*
X169683265Y-108648658D01*
X169694651Y-108701000D01*
X169694651Y-112449000D01*
X169674649Y-112517121D01*
X169620993Y-112563614D01*
X169568651Y-112575000D01*
X167002651Y-112575000D01*
X167002651Y-114049000D01*
X166982649Y-114117121D01*
X166928993Y-114163614D01*
X166876651Y-114175000D01*
X166288751Y-114175000D01*
X166220630Y-114154998D01*
X166181607Y-114115303D01*
X166129983Y-114031880D01*
X166126129Y-114025652D01*
X166000954Y-113900695D01*
X165994723Y-113896854D01*
X165856619Y-113811725D01*
X165856617Y-113811724D01*
X165850389Y-113807885D01*
X165689905Y-113754655D01*
X165689040Y-113754368D01*
X165689038Y-113754368D01*
X165682512Y-113752203D01*
X165675676Y-113751503D01*
X165675673Y-113751502D01*
X165632620Y-113747091D01*
X165578051Y-113741500D01*
X163627251Y-113741500D01*
X163624005Y-113741837D01*
X163624001Y-113741837D01*
X163528343Y-113751762D01*
X163528339Y-113751763D01*
X163521485Y-113752474D01*
X163514949Y-113754655D01*
X163514947Y-113754655D01*
X163382845Y-113798728D01*
X163353705Y-113808450D01*
X163203303Y-113901522D01*
X163078346Y-114026697D01*
X163074507Y-114032925D01*
X163074503Y-114032930D01*
X163023842Y-114115117D01*
X162971070Y-114162610D01*
X162916583Y-114175000D01*
X156802651Y-114175000D01*
X156802651Y-113336465D01*
X156836904Y-113285203D01*
X156846218Y-113262717D01*
X156857444Y-113206279D01*
X156858651Y-113194025D01*
X156858651Y-112743115D01*
X156854176Y-112727876D01*
X156852786Y-112726671D01*
X156845103Y-112725000D01*
X156802651Y-112725000D01*
X156802651Y-112294475D01*
X163171652Y-112294475D01*
X163172022Y-112301296D01*
X163177520Y-112351916D01*
X163181147Y-112367173D01*
X163226101Y-112487088D01*
X163234633Y-112502674D01*
X163310794Y-112604294D01*
X163323357Y-112616857D01*
X163424977Y-112693018D01*
X163440563Y-112701550D01*
X163560483Y-112746506D01*
X163575728Y-112750131D01*
X163626359Y-112755631D01*
X163633173Y-112756000D01*
X164234536Y-112756000D01*
X164249775Y-112751525D01*
X164250980Y-112750135D01*
X164252651Y-112742452D01*
X164252651Y-112737884D01*
X164952651Y-112737884D01*
X164957126Y-112753123D01*
X164958516Y-112754328D01*
X164966199Y-112755999D01*
X165572126Y-112755999D01*
X165578947Y-112755629D01*
X165629567Y-112750131D01*
X165644824Y-112746504D01*
X165764739Y-112701550D01*
X165780325Y-112693018D01*
X165881945Y-112616857D01*
X165894508Y-112604294D01*
X165970669Y-112502674D01*
X165979201Y-112487088D01*
X166024157Y-112367168D01*
X166027782Y-112351923D01*
X166033282Y-112301292D01*
X166033651Y-112294478D01*
X166033651Y-112205615D01*
X166029176Y-112190376D01*
X166027786Y-112189171D01*
X166020103Y-112187500D01*
X164970766Y-112187500D01*
X164955527Y-112191975D01*
X164954322Y-112193365D01*
X164952651Y-112201048D01*
X164952651Y-112737884D01*
X164252651Y-112737884D01*
X164252651Y-112205615D01*
X164248176Y-112190376D01*
X164246786Y-112189171D01*
X164239103Y-112187500D01*
X163189767Y-112187500D01*
X163174528Y-112191975D01*
X163173323Y-112193365D01*
X163171652Y-112201048D01*
X163171652Y-112294475D01*
X156802651Y-112294475D01*
X156802651Y-112025000D01*
X156840536Y-112025000D01*
X156855775Y-112020525D01*
X156856980Y-112019135D01*
X156858651Y-112011452D01*
X156858651Y-111555975D01*
X156857444Y-111543721D01*
X156846218Y-111487283D01*
X156838804Y-111469385D01*
X163171651Y-111469385D01*
X163176126Y-111484624D01*
X163177516Y-111485829D01*
X163185199Y-111487500D01*
X164234536Y-111487500D01*
X164249775Y-111483025D01*
X164250980Y-111481635D01*
X164252651Y-111473952D01*
X164252651Y-111469385D01*
X164952651Y-111469385D01*
X164957126Y-111484624D01*
X164958516Y-111485829D01*
X164966199Y-111487500D01*
X166015535Y-111487500D01*
X166030774Y-111483025D01*
X166031979Y-111481635D01*
X166033650Y-111473952D01*
X166033650Y-111380525D01*
X166033280Y-111373704D01*
X166027782Y-111323084D01*
X166024155Y-111307827D01*
X165979201Y-111187912D01*
X165970669Y-111172326D01*
X165894508Y-111070706D01*
X165881945Y-111058143D01*
X165780325Y-110981982D01*
X165764739Y-110973450D01*
X165644819Y-110928494D01*
X165629574Y-110924869D01*
X165578943Y-110919369D01*
X165572129Y-110919000D01*
X164970766Y-110919000D01*
X164955527Y-110923475D01*
X164954322Y-110924865D01*
X164952651Y-110932548D01*
X164952651Y-111469385D01*
X164252651Y-111469385D01*
X164252651Y-110937116D01*
X164248176Y-110921877D01*
X164246786Y-110920672D01*
X164239103Y-110919001D01*
X163633176Y-110919001D01*
X163626355Y-110919371D01*
X163575735Y-110924869D01*
X163560478Y-110928496D01*
X163440563Y-110973450D01*
X163424977Y-110981982D01*
X163323357Y-111058143D01*
X163310794Y-111070706D01*
X163234633Y-111172326D01*
X163226101Y-111187912D01*
X163181145Y-111307832D01*
X163177520Y-111323077D01*
X163172020Y-111373708D01*
X163171651Y-111380522D01*
X163171651Y-111469385D01*
X156838804Y-111469385D01*
X156836904Y-111464797D01*
X156802651Y-111413535D01*
X156802651Y-110746525D01*
X166847351Y-110746525D01*
X166848558Y-110758779D01*
X166859784Y-110815217D01*
X166869098Y-110837703D01*
X166911893Y-110901749D01*
X166929102Y-110918958D01*
X166993148Y-110961753D01*
X167015634Y-110971067D01*
X167072072Y-110982293D01*
X167084326Y-110983500D01*
X167484536Y-110983500D01*
X167499775Y-110979025D01*
X167500980Y-110977635D01*
X167502651Y-110969952D01*
X167502651Y-110965385D01*
X168202651Y-110965385D01*
X168207126Y-110980624D01*
X168208516Y-110981829D01*
X168216199Y-110983500D01*
X168620976Y-110983500D01*
X168633230Y-110982293D01*
X168689668Y-110971067D01*
X168712154Y-110961753D01*
X168776200Y-110918958D01*
X168793409Y-110901749D01*
X168836204Y-110837703D01*
X168845518Y-110815217D01*
X168856744Y-110758779D01*
X168857951Y-110746525D01*
X168857951Y-110143115D01*
X168853476Y-110127876D01*
X168852086Y-110126671D01*
X168844403Y-110125000D01*
X168220766Y-110125000D01*
X168205527Y-110129475D01*
X168204322Y-110130865D01*
X168202651Y-110138548D01*
X168202651Y-110965385D01*
X167502651Y-110965385D01*
X167502651Y-110143115D01*
X167498176Y-110127876D01*
X167496786Y-110126671D01*
X167489103Y-110125000D01*
X166865466Y-110125000D01*
X166850227Y-110129475D01*
X166849022Y-110130865D01*
X166847351Y-110138548D01*
X166847351Y-110746525D01*
X156802651Y-110746525D01*
X156802651Y-108575000D01*
X166738036Y-108575000D01*
X166806157Y-108595002D01*
G37*
%TD.AperFunction*%
%TD*%
%TA.AperFunction,Conductor*%
%TO.N,Net-(C37-Pad2)*%
G36*
X169608795Y-102995002D02*
G01*
X169629769Y-103011905D01*
X169643113Y-103025249D01*
X169647622Y-103028406D01*
X169647624Y-103028408D01*
X169668775Y-103043218D01*
X169823497Y-103151556D01*
X169898191Y-103186386D01*
X170018092Y-103242297D01*
X170018098Y-103242299D01*
X170023075Y-103244620D01*
X170028383Y-103246042D01*
X170028385Y-103246043D01*
X170070455Y-103257316D01*
X170146427Y-103277673D01*
X170202910Y-103310284D01*
X170442339Y-103549713D01*
X170456283Y-103557327D01*
X170458116Y-103557196D01*
X170464731Y-103552945D01*
X170707392Y-103310284D01*
X170763875Y-103277673D01*
X170839847Y-103257316D01*
X170881917Y-103246043D01*
X170881919Y-103246042D01*
X170887227Y-103244620D01*
X170892204Y-103242299D01*
X170892210Y-103242297D01*
X171012111Y-103186386D01*
X171086805Y-103151556D01*
X171241527Y-103043218D01*
X171262678Y-103028408D01*
X171262680Y-103028406D01*
X171267189Y-103025249D01*
X171280533Y-103011905D01*
X171342845Y-102977879D01*
X171369628Y-102975000D01*
X175076651Y-102975000D01*
X175144772Y-102995002D01*
X175191265Y-103048658D01*
X175202651Y-103101000D01*
X175202651Y-103975000D01*
X180202651Y-103975000D01*
X180202651Y-103301000D01*
X180222653Y-103232879D01*
X180276309Y-103186386D01*
X180328651Y-103175000D01*
X180745371Y-103175000D01*
X180813492Y-103195002D01*
X180840755Y-103218672D01*
X180842844Y-103221092D01*
X180846122Y-103225654D01*
X180899800Y-103277672D01*
X180997901Y-103372738D01*
X181007450Y-103381992D01*
X181035645Y-103400938D01*
X181052635Y-103412355D01*
X181098019Y-103466951D01*
X181106682Y-103537418D01*
X181100341Y-103561164D01*
X181092141Y-103583037D01*
X181091112Y-103597102D01*
X181096399Y-103600000D01*
X181394750Y-103600000D01*
X181424164Y-103603481D01*
X181598148Y-103645251D01*
X181618062Y-103650032D01*
X181689746Y-103654165D01*
X181836734Y-103662640D01*
X181836737Y-103662640D01*
X181842341Y-103662963D01*
X182011517Y-103642491D01*
X182081545Y-103654165D01*
X182134147Y-103701847D01*
X182152651Y-103767579D01*
X182152651Y-104631967D01*
X182156828Y-104646193D01*
X182162946Y-104647181D01*
X182164403Y-104646835D01*
X182277611Y-104604396D01*
X182293196Y-104595864D01*
X182389087Y-104523997D01*
X182401648Y-104511436D01*
X182473515Y-104415545D01*
X182482047Y-104399960D01*
X182524489Y-104286745D01*
X182528114Y-104271500D01*
X182533163Y-104225023D01*
X182560405Y-104159461D01*
X182618769Y-104119036D01*
X182689723Y-104116581D01*
X182740938Y-104143408D01*
X182745701Y-104147535D01*
X182779073Y-104176453D01*
X182779076Y-104176455D01*
X182785885Y-104182355D01*
X182917411Y-104242421D01*
X182929263Y-104245901D01*
X182981209Y-104261154D01*
X182981213Y-104261155D01*
X182985532Y-104262423D01*
X182989980Y-104263063D01*
X182989987Y-104263064D01*
X183124203Y-104282361D01*
X183124210Y-104282362D01*
X183128651Y-104283000D01*
X183503599Y-104283000D01*
X183571720Y-104303002D01*
X183618213Y-104356658D01*
X183628317Y-104426932D01*
X183598823Y-104491512D01*
X183547828Y-104526982D01*
X183490563Y-104548450D01*
X183474977Y-104556982D01*
X183373357Y-104633143D01*
X183360794Y-104645706D01*
X183284633Y-104747326D01*
X183276101Y-104762912D01*
X183231145Y-104882832D01*
X183227520Y-104898077D01*
X183222020Y-104948708D01*
X183221651Y-104955522D01*
X183221651Y-105006885D01*
X183226126Y-105022124D01*
X183227516Y-105023329D01*
X183235199Y-105025000D01*
X185026651Y-105025000D01*
X185094772Y-105045002D01*
X185141265Y-105098658D01*
X185152651Y-105151000D01*
X185152651Y-106237884D01*
X185157126Y-106253123D01*
X185158516Y-106254328D01*
X185166199Y-106255999D01*
X185922126Y-106255999D01*
X185928947Y-106255629D01*
X185979567Y-106250131D01*
X185994824Y-106246504D01*
X186114739Y-106201550D01*
X186130325Y-106193018D01*
X186231945Y-106116857D01*
X186244508Y-106104294D01*
X186320669Y-106002674D01*
X186329201Y-105987089D01*
X186358669Y-105908482D01*
X186401310Y-105851717D01*
X186467871Y-105827017D01*
X186537220Y-105842224D01*
X186587339Y-105892510D01*
X186602651Y-105952711D01*
X186602651Y-106741000D01*
X186582649Y-106809121D01*
X186528993Y-106855614D01*
X186476651Y-106867000D01*
X180928651Y-106867000D01*
X180820671Y-106878609D01*
X180817387Y-106879323D01*
X180817383Y-106879324D01*
X180792312Y-106884778D01*
X180768329Y-106889995D01*
X180665279Y-106924293D01*
X180621652Y-106952331D01*
X180617501Y-106954998D01*
X180549380Y-106975000D01*
X168528651Y-106975000D01*
X168460530Y-106954998D01*
X168414037Y-106901342D01*
X168402651Y-106849000D01*
X168402651Y-106169475D01*
X175971652Y-106169475D01*
X175972022Y-106176296D01*
X175977520Y-106226916D01*
X175981147Y-106242173D01*
X176026101Y-106362088D01*
X176034633Y-106377674D01*
X176110794Y-106479294D01*
X176123357Y-106491857D01*
X176224977Y-106568018D01*
X176240563Y-106576550D01*
X176360483Y-106621506D01*
X176375728Y-106625131D01*
X176426359Y-106630631D01*
X176433173Y-106631000D01*
X177034536Y-106631000D01*
X177049775Y-106626525D01*
X177050980Y-106625135D01*
X177052651Y-106617452D01*
X177052651Y-106612884D01*
X177752651Y-106612884D01*
X177757126Y-106628123D01*
X177758516Y-106629328D01*
X177766199Y-106630999D01*
X178372126Y-106630999D01*
X178378947Y-106630629D01*
X178429567Y-106625131D01*
X178444824Y-106621504D01*
X178564739Y-106576550D01*
X178580325Y-106568018D01*
X178681945Y-106491857D01*
X178694508Y-106479294D01*
X178770669Y-106377674D01*
X178779201Y-106362088D01*
X178824157Y-106242168D01*
X178827782Y-106226923D01*
X178833282Y-106176292D01*
X178833651Y-106169478D01*
X178833651Y-106080615D01*
X178829176Y-106065376D01*
X178827786Y-106064171D01*
X178820103Y-106062500D01*
X177770766Y-106062500D01*
X177755527Y-106066975D01*
X177754322Y-106068365D01*
X177752651Y-106076048D01*
X177752651Y-106612884D01*
X177052651Y-106612884D01*
X177052651Y-106080615D01*
X177048176Y-106065376D01*
X177046786Y-106064171D01*
X177039103Y-106062500D01*
X175989767Y-106062500D01*
X175974528Y-106066975D01*
X175973323Y-106068365D01*
X175971652Y-106076048D01*
X175971652Y-106169475D01*
X168402651Y-106169475D01*
X168402651Y-105794475D01*
X183221652Y-105794475D01*
X183222022Y-105801296D01*
X183227520Y-105851916D01*
X183231147Y-105867173D01*
X183276101Y-105987088D01*
X183284633Y-106002674D01*
X183360794Y-106104294D01*
X183373357Y-106116857D01*
X183474977Y-106193018D01*
X183490563Y-106201550D01*
X183610483Y-106246506D01*
X183625728Y-106250131D01*
X183676359Y-106255631D01*
X183683173Y-106256000D01*
X184434536Y-106256000D01*
X184449775Y-106251525D01*
X184450980Y-106250135D01*
X184452651Y-106242452D01*
X184452651Y-105743115D01*
X184448176Y-105727876D01*
X184446786Y-105726671D01*
X184439103Y-105725000D01*
X183239767Y-105725000D01*
X183224528Y-105729475D01*
X183223323Y-105730865D01*
X183221652Y-105738548D01*
X183221652Y-105794475D01*
X168402651Y-105794475D01*
X168402651Y-105344385D01*
X175971651Y-105344385D01*
X175976126Y-105359624D01*
X175977516Y-105360829D01*
X175985199Y-105362500D01*
X177034536Y-105362500D01*
X177049775Y-105358025D01*
X177050980Y-105356635D01*
X177052651Y-105348952D01*
X177052651Y-105344385D01*
X177752651Y-105344385D01*
X177757126Y-105359624D01*
X177758516Y-105360829D01*
X177766199Y-105362500D01*
X178815535Y-105362500D01*
X178830774Y-105358025D01*
X178831979Y-105356635D01*
X178833650Y-105348952D01*
X178833650Y-105255525D01*
X178833280Y-105248704D01*
X178827782Y-105198084D01*
X178824155Y-105182827D01*
X178779201Y-105062912D01*
X178770669Y-105047326D01*
X178694508Y-104945706D01*
X178681945Y-104933143D01*
X178580325Y-104856982D01*
X178564739Y-104848450D01*
X178444819Y-104803494D01*
X178429574Y-104799869D01*
X178378943Y-104794369D01*
X178372129Y-104794000D01*
X177770766Y-104794000D01*
X177755527Y-104798475D01*
X177754322Y-104799865D01*
X177752651Y-104807548D01*
X177752651Y-105344385D01*
X177052651Y-105344385D01*
X177052651Y-104812116D01*
X177048176Y-104796877D01*
X177046786Y-104795672D01*
X177039103Y-104794001D01*
X176433176Y-104794001D01*
X176426355Y-104794371D01*
X176375735Y-104799869D01*
X176360478Y-104803496D01*
X176240563Y-104848450D01*
X176224977Y-104856982D01*
X176123357Y-104933143D01*
X176110794Y-104945706D01*
X176034633Y-105047326D01*
X176026101Y-105062912D01*
X175981145Y-105182832D01*
X175977520Y-105198077D01*
X175972020Y-105248708D01*
X175971651Y-105255522D01*
X175971651Y-105344385D01*
X168402651Y-105344385D01*
X168402651Y-104973837D01*
X170039409Y-104973837D01*
X170044318Y-104980395D01*
X170045070Y-104980815D01*
X170056316Y-104985728D01*
X170232223Y-105042883D01*
X170244197Y-105045516D01*
X170427869Y-105067417D01*
X170440118Y-105067674D01*
X170624545Y-105053484D01*
X170636622Y-105051354D01*
X170814762Y-105001616D01*
X170826212Y-104997175D01*
X170858967Y-104980629D01*
X170869253Y-104970982D01*
X170867015Y-104964339D01*
X170467963Y-104565287D01*
X170454019Y-104557673D01*
X170452186Y-104557804D01*
X170445571Y-104562055D01*
X170046169Y-104961457D01*
X170039409Y-104973837D01*
X168402651Y-104973837D01*
X168402651Y-104049530D01*
X169444898Y-104049530D01*
X169460375Y-104233842D01*
X169462588Y-104245901D01*
X169513572Y-104423702D01*
X169518087Y-104435107D01*
X169531696Y-104461586D01*
X169541415Y-104471805D01*
X169548215Y-104469461D01*
X169947364Y-104070312D01*
X169953742Y-104058632D01*
X170955324Y-104058632D01*
X170955455Y-104060465D01*
X170959706Y-104067080D01*
X171359530Y-104466904D01*
X171371910Y-104473664D01*
X171377651Y-104469366D01*
X171380569Y-104462813D01*
X171431422Y-104309940D01*
X181089508Y-104309940D01*
X181123255Y-104399959D01*
X181131787Y-104415545D01*
X181203654Y-104511436D01*
X181216215Y-104523997D01*
X181312106Y-104595864D01*
X181327691Y-104604396D01*
X181440905Y-104646837D01*
X181441301Y-104646932D01*
X181449232Y-104645511D01*
X181452651Y-104633076D01*
X181452651Y-104318115D01*
X181448176Y-104302876D01*
X181446786Y-104301671D01*
X181439103Y-104300000D01*
X181103897Y-104300000D01*
X181090366Y-104303973D01*
X181089508Y-104309940D01*
X171431422Y-104309940D01*
X171438951Y-104287308D01*
X171441671Y-104275336D01*
X171465182Y-104089228D01*
X171465674Y-104082201D01*
X171465970Y-104061023D01*
X171465675Y-104053995D01*
X171447368Y-103867289D01*
X171444985Y-103855251D01*
X171391528Y-103678192D01*
X171386851Y-103666845D01*
X171379363Y-103652763D01*
X171369503Y-103642682D01*
X171362375Y-103645251D01*
X170962938Y-104044688D01*
X170955324Y-104058632D01*
X169953742Y-104058632D01*
X169954978Y-104056368D01*
X169954847Y-104054535D01*
X169950596Y-104047920D01*
X169551583Y-103648907D01*
X169539203Y-103642147D01*
X169532814Y-103646930D01*
X169528997Y-103653873D01*
X169524162Y-103665154D01*
X169468236Y-103841456D01*
X169465686Y-103853450D01*
X169445069Y-104037261D01*
X169444898Y-104049530D01*
X168402651Y-104049530D01*
X168402651Y-103101000D01*
X168422653Y-103032879D01*
X168476309Y-102986386D01*
X168528651Y-102975000D01*
X169540674Y-102975000D01*
X169608795Y-102995002D01*
G37*
%TD.AperFunction*%
%TD*%
M02*
